<svg height="94" viewBox="0 0 156 94" width="156" xmlns="http://www.w3.org/2000/svg" xmlns:xlink="http://www.w3.org/1999/xlink"><defs><path id="a" d="m22 22h134v22h-134z"/><filter id="b" height="109.1%" width="100.7%" x="-.4%" y="-2.3%"><feOffset dx="0" dy="1" in="SourceAlpha" result="shadowOffsetOuter1"/><feColorMatrix in="shadowOffsetOuter1" type="matrix" values="0 0 0 0 0.650980392   0 0 0 0 0.674509804   0 0 0 0 0.705882353  0 0 0 0.547072191 0"/></filter></defs><g fill="none" fill-rule="evenodd"><path d="m0 0h156v94h-156z" fill="#fff"/><path d="m22 45h134v49h-134z" fill="#f3f5f6"/><use fill="#000" filter="url(#b)" xlink:href="#a"/><use fill="#f3f5f6" fill-rule="evenodd" xlink:href="#a"/><rect fill="#c1c8d1" height="15" rx="2" width="58" x="29" y="52"/><rect fill="#596473" height="3" rx="1.5" width="9" x="37" y="58"/><rect fill="#596473" height="3" rx="1.5" width="11" x="68" y="58"/><rect fill="#596473" height="3" rx="1.5" width="18" x="48" y="58"/><rect fill="#c1c8d1" height="15" rx="2" width="58" x="29" y="71"/><rect fill="#596473" height="3" rx="1.5" width="9" x="37" y="77"/><rect fill="#596473" height="3" rx="1.5" width="11" x="68" y="77"/><rect fill="#596473" height="3" rx="1.5" width="18" x="48" y="77"/><rect fill="#c1c8d1" height="15" rx="2" width="58" x="91" y="52"/><rect fill="#596473" height="3" rx="1.5" width="9" x="99" y="58"/><rect fill="#596473" height="3" rx="1.5" width="11" x="130" y="58"/><rect fill="#596473" height="3" rx="1.5" width="18" x="110" y="58"/><rect fill="#5ea9c8" height="15" rx="2" width="58" x="91" y="71"/><rect fill="#fff" height="3" rx="1.5" width="9" x="99" y="77"/><rect fill="#fff" height="3" rx="1.5" width="11" x="130" y="77"/><rect fill="#fff" height="3" rx="1.5" width="18" x="110" y="77"/><g fill="#647182"><rect height="4" rx="2" width="11" x="29" y="31"/><rect height="4" rx="2" width="14" x="70" y="31"/><circle cx="11" cy="33" opacity=".404886" r="6"/><rect height="4" rx="2" width="23" x="43" y="31"/></g><path d="m0 22h22v72h-22z" fill="#d4d8de"/><circle cx="144" cy="33" fill="#647182" opacity=".404886" r="4"/><circle cx="11" cy="52" fill="#5ea9c8" r="6"/><circle cx="11" cy="70" fill="#647182" opacity=".404886" r="6"/><circle cx="11" cy="34" fill="#647182" opacity=".404886" r="6"/><path d="m0 0h156v22h-156z" fill="#1b1e23"/><rect fill="#c1c8d1" height="4" rx="2" width="11" x="31" y="9"/><rect fill="#c1c8d1" height="4" rx="2" width="23" x="45" y="9"/><path d="m0 0h22v22h-22z" fill="#121417"/><path d="m15 13v1h-8v-1zm0-3v1h-8v-1zm0-3v1h-8v-1z" fill="#fff"/></g></svg>