<svg height="94" viewBox="0 0 156 94" width="156" xmlns="http://www.w3.org/2000/svg" xmlns:xlink="http://www.w3.org/1999/xlink"><defs><path id="a" d="m22 22h134v22h-134z"/><filter id="b" height="109.1%" width="100.7%" x="-.4%" y="-2.3%"><feOffset dx="0" dy="1" in="SourceAlpha" result="shadowOffsetOuter1"/><feColorMatrix in="shadowOffsetOuter1" type="matrix" values="0 0 0 0 0.235294118   0 0 0 0 0.254901961   0 0 0 0 0.28627451  0 0 0 1 0"/></filter></defs><g fill="none" fill-rule="evenodd"><path d="m0 0h156v94h-156z" fill="#23282e"/><path d="m22 44h134v50h-134z" fill="#23282e"/><use fill="#000" filter="url(#b)" xlink:href="#a"/><use fill="#23282e" fill-rule="evenodd" xlink:href="#a"/><circle cx="144" cy="33" fill="#647182" r="4"/><rect fill="#4d5865" height="15" rx="2" width="58" x="29" y="52"/><g fill="#bac1c8"><rect height="3" rx="1.5" width="9" x="37" y="58"/><rect height="3" rx="1.5" width="11" x="68" y="58"/><rect height="3" rx="1.5" width="18" x="48" y="58"/></g><rect fill="#4d5865" height="15" rx="2" width="58" x="29" y="71"/><rect fill="#bac1c8" height="3" rx="1.5" width="9" x="37" y="77"/><rect fill="#bac1c8" height="3" rx="1.5" width="11" x="68" y="77"/><rect fill="#bac1c8" height="3" rx="1.5" width="18" x="48" y="77"/><rect fill="#40bf95" height="15" rx="2" width="58" x="91" y="71"/><rect fill="#fff" height="3" rx="1.5" width="9" x="99" y="77"/><rect fill="#fff" height="3" rx="1.5" width="11" x="130" y="77"/><rect fill="#fff" height="3" rx="1.5" width="18" x="110" y="77"/><rect fill="#4d5865" height="15" rx="2" width="58" x="91" y="52"/><rect fill="#bac1c8" height="3" rx="1.5" width="9" x="99" y="58"/><rect fill="#bac1c8" height="3" rx="1.5" width="11" x="130" y="58"/><rect fill="#bac1c8" height="3" rx="1.5" width="18" x="110" y="58"/><rect fill="#c0c6cd" height="4" rx="2" width="11" x="29" y="31"/><rect fill="#c0c6cd" height="4" rx="2" width="14" x="70" y="31"/><rect fill="#c0c6cd" height="4" rx="2" width="23" x="43" y="31"/><path d="m0 22h22v72h-22z" fill="#373f48"/><circle cx="11" cy="34" fill="#959da7" opacity=".797982" r="6"/><circle cx="11" cy="52" fill="#40bf95" r="6"/><circle cx="11" cy="70" fill="#959da7" opacity=".797982" r="6"/><path d="m0 0h156v22h-156z" fill="#1b1e23"/><rect fill="#c1c8d1" height="4" opacity=".554382" rx="2" width="11" x="31" y="9"/><rect fill="#c1c8d1" height="4" opacity=".554382" rx="2" width="23" x="45" y="9"/><path d="m0 0h22v22h-22z" fill="#121417"/><path d="m15 13v1h-8v-1zm0-3v1h-8v-1zm0-3v1h-8v-1z" fill="#fff"/></g></svg>