<svg width="64" height="32" viewBox="0 0 64 32" fill="none" xmlns="http://www.w3.org/2000/svg">
<g clip-path="url(#clip0_1814_54105)">
<g clip-path="url(#clip1_1814_54105)">
<path fill-rule="evenodd" clip-rule="evenodd" d="M41 6.34267V6C41 5.44772 40.5523 5 40 5H20C19.4477 5 19 5.44772 19 6V9C19 9.55228 19.4477 10 20 10H39.223C39.5322 8.63763 40.1504 7.39265 41 6.34267Z" fill="#7A8799"/>
<path fill-rule="evenodd" clip-rule="evenodd" d="M31.5 13H39.0549C39.0924 13.3394 39.1488 13.6731 39.223 14H31.5C31.2239 14 31 13.7761 31 13.5C31 13.2239 31.2239 13 31.5 13ZM31.5 16H39.9355C40.1077 16.3465 40.3016 16.6804 40.5154 16.9998L40.5 17H31.5C31.2239 17 31 16.7761 31 16.5C31 16.2239 31.2239 16 31.5 16ZM19.5 13C19.2239 13 19 13.2239 19 13.5C19 13.7761 19.2239 14 19.5 14H28.5C28.7761 14 29 13.7761 29 13.5C29 13.2239 28.7761 13 28.5 13H19.5ZM20.9291 20C20.8802 19.6581 20.8066 19.3241 20.7101 19H28.5C28.7761 19 29 19.2239 29 19.5C29 19.7761 28.7761 20 28.5 20H20.9291ZM20.7101 23C20.8066 22.6759 20.8802 22.3419 20.9291 22H28.5C28.7761 22 29 22.2239 29 22.5C29 22.7761 28.7761 23 28.5 23H20.7101ZM19.0978 16.2029C19.1889 16.0798 19.3351 16 19.5 16H28.5C28.7761 16 29 16.2239 29 16.5C29 16.7761 28.7761 17 28.5 17H19.7453C19.5489 16.7185 19.3324 16.4521 19.0978 16.2029ZM19.0978 25.7971C19.3324 25.5479 19.5489 25.2815 19.7453 25H28.5C28.7761 25 29 25.2239 29 25.5C29 25.7761 28.7761 26 28.5 26H19.5C19.3351 26 19.1889 25.9202 19.0978 25.7971ZM31 19.5C31 19.2239 31.2239 19 31.5 19H40.5C40.7761 19 41 19.2239 41 19.5C41 19.7761 40.7761 20 40.5 20H31.5C31.2239 20 31 19.7761 31 19.5ZM31.5 22C31.2239 22 31 22.2239 31 22.5C31 22.7761 31.2239 23 31.5 23H40.5C40.7761 23 41 22.7761 41 22.5C41 22.2239 40.7761 22 40.5 22H31.5ZM31 25.5C31 25.2239 31.2239 25 31.5 25H40.5C40.7761 25 41 25.2239 41 25.5C41 25.7761 40.7761 26 40.5 26H31.5C31.2239 26 31 25.7761 31 25.5Z" fill="#97A1AF"/>
</g>
<path fill-rule="evenodd" clip-rule="evenodd" d="M45 2H15V14.0709C14.6734 14.0242 14.3395 14 14 14C13.6605 14 13.3266 14.0242 13 14.0709V2C13 0.895431 13.8954 0 15 0H45C46.1046 0 47 0.895431 47 2V3.05493C46.3065 3.13159 45.6368 3.28703 45 3.51212V2ZM45 20.4879V30H15V27.9291C14.6734 27.9758 14.3395 28 14 28C13.6605 28 13.3266 27.9758 13 27.9291V30C13 31.1046 13.8954 32 15 32H45C46.1046 32 47 31.1046 47 30V20.9451C46.3065 20.8684 45.6368 20.713 45 20.4879Z" fill="#626F7F"/>
<circle cx="48" cy="12" r="7" fill="#297EA3"/>
<path fill-rule="evenodd" clip-rule="evenodd" d="M51.2043 9.67574C51.4386 9.91005 51.4386 10.2899 51.2043 10.5243L47.3614 14.3671C47.1271 14.6014 46.7472 14.6014 46.5129 14.3671L44.9757 12.83C44.7414 12.5957 44.7414 12.2158 44.9757 11.9814C45.21 11.7471 45.5899 11.7471 45.8243 11.9814L46.9371 13.0943L50.3557 9.67574C50.59 9.44142 50.9699 9.44142 51.2043 9.67574Z" fill="white"/>
<circle cx="14" cy="21" r="5" fill="#297EA3"/>
<path fill-rule="evenodd" clip-rule="evenodd" d="M16.1743 19.3256C16.4086 19.56 16.4086 19.9399 16.1743 20.1742L13.6743 22.6742C13.4399 22.9085 13.06 22.9085 12.8257 22.6742L11.8257 21.6742C11.5914 21.4399 11.5914 21.06 11.8257 20.8256C12.06 20.5913 12.4399 20.5913 12.6743 20.8256L13.25 21.4014L15.3257 19.3256C15.56 19.0913 15.9399 19.0913 16.1743 19.3256Z" fill="white"/>
<path d="M55.25 27L56.5033 24.2533L59.25 23L56.5033 21.7467L55.25 19L53.9967 21.7467L51.25 23L53.9967 24.2533L55.25 27Z" fill="#297EA3" fill-opacity="0.32"/>
<path d="M57.5 6L58.1267 4.62667L59.5 4L58.1267 3.37333L57.5 2L56.8733 3.37333L55.5 4L56.8733 4.62667L57.5 6Z" fill="#297EA3" fill-opacity="0.24"/>
<path d="M60.25 16L61.19 13.94L63.25 13L61.19 12.06L60.25 10L59.31 12.06L57.25 13L59.31 13.94L60.25 16Z" fill="#297EA3" fill-opacity="0.24"/>
<path d="M3 14L3.94 11.94L6 11L3.94 10.06L3 8L2.06 10.06L0 11L2.06 11.94L3 14Z" fill="#297EA3" fill-opacity="0.24"/>
<path d="M8 8L9.25333 5.25333L12 4L9.25333 2.74667L8 0L6.74667 2.74667L4 4L6.74667 5.25333L8 8Z" fill="#297EA3" fill-opacity="0.32"/>
<path d="M8 16L8.62667 14.6267L10 14L8.62667 13.3733L8 12L7.37333 13.3733L6 14L7.37333 14.6267L8 16Z" fill="#297EA3" fill-opacity="0.24"/>
</g>
<defs>
<clipPath id="clip0_1814_54105">
<rect width="64" height="32" fill="white"/>
</clipPath>
<clipPath id="clip1_1814_54105">
<rect width="22" height="21" fill="white" transform="translate(19 5)"/>
</clipPath>
</defs>
</svg>
