<svg width="64" height="32" viewBox="0 0 64 32" fill="none" xmlns="http://www.w3.org/2000/svg">
<g clip-path="url(#clip0_1958_28602)">
<path d="M26 14.5C26 14.2239 26.2239 14 26.5 14H32.5C32.7761 14 33 14.2239 33 14.5C33 14.7761 32.7761 15 32.5 15H26.5C26.2239 15 26 14.7761 26 14.5Z" fill="#97A1AF"/>
<path d="M26 17.5C26 17.2239 26.2239 17 26.5 17H32.5C32.7761 17 33 17.2239 33 17.5C33 17.7761 32.7761 18 32.5 18H26.5C26.2239 18 26 17.7761 26 17.5Z" fill="#97A1AF"/>
<path d="M35 17.5C35 17.2239 35.2239 17 35.5 17H41.5C41.7761 17 42 17.2239 42 17.5C42 17.7761 41.7761 18 41.5 18H35.5C35.2239 18 35 17.7761 35 17.5Z" fill="#97A1AF"/>
<path d="M26.5 20C26.2239 20 26 20.2239 26 20.5C26 20.7761 26.2239 21 26.5 21H32.5C32.7761 21 33 20.7761 33 20.5C33 20.2239 32.7761 20 32.5 20H26.5Z" fill="#97A1AF"/>
<path d="M35.5 20C35.2239 20 35 20.2239 35 20.5C35 20.7761 35.2239 21 35.5 21H41.5C41.7761 21 42 20.7761 42 20.5C42 20.2239 41.7761 20 41.5 20H35.5Z" fill="#97A1AF"/>
<path d="M26 23.5C26 23.2239 26.2239 23 26.5 23H32.5C32.7761 23 33 23.2239 33 23.5C33 23.7761 32.7761 24 32.5 24H26.5C26.2239 24 26 23.7761 26 23.5Z" fill="#97A1AF"/>
<path d="M34.998 23.5C34.998 23.2239 35.2219 23 35.498 23H41.498C41.7742 23 41.998 23.2239 41.998 23.5C41.998 23.7761 41.7742 24 41.498 24H35.498C35.2219 24 34.998 23.7761 34.998 23.5Z" fill="#97A1AF"/>
</g>
<path opacity="0.6" fill-rule="evenodd" clip-rule="evenodd" d="M27 5C26.4477 5 26 5.44772 26 6V10C26 10.5523 26.4477 11 27 11H33V8.6C33 7.71634 33.7163 7 34.6 7H42V6C42 5.44772 41.5523 5 41 5H27Z" fill="#297EA3"/>
<path fill-rule="evenodd" clip-rule="evenodd" d="M21 5V2C21 0.981692 21.9378 0 23 0H45C46.1043 0 47 0.895715 47 2V7H45V2H23V27C23 27.5523 22.5523 28 22 28C21.4477 28 21 27.5523 21 27V7H19V28C19 29.0889 19.9118 30 21 30H43C44 30 45 29 45 28V17H47V28C47 29.0608 46.579 30.0782 45.8281 30.8281C45.0783 31.579 44.0608 32 43 32H21C19.9392 32 18.9218 31.579 18.1719 30.8281C17.421 30.0782 17 29.0608 17 28V6C17 5.5 17.4477 5 18 5H21Z" fill="#626F7F"/>
<rect x="35" y="9" width="16" height="6" rx="1" fill="#297EA3"/>
<path d="M53.25 10L54.8167 6.56667L58.25 5L54.8167 3.43333L53.25 0L51.6833 3.43333L48.25 5L51.6833 6.56667L53.25 10Z" fill="#297EA3" fill-opacity="0.32"/>
<path d="M58.25 14L58.8767 12.6267L60.25 12L58.8767 11.3733L58.25 10L57.6233 11.3733L56.25 12L57.6233 12.6267L58.25 14Z" fill="#297EA3" fill-opacity="0.24"/>
<path d="M59 23L59.94 20.94L62 20L59.94 19.06L59 17L58.06 19.06L56 20L58.06 20.94L59 23Z" fill="#297EA3" fill-opacity="0.24"/>
<path d="M5 15L5.94 12.94L8 12L5.94 11.06L5 9L4.06 11.06L2 12L4.06 12.94L5 15Z" fill="#297EA3" fill-opacity="0.24"/>
<path d="M10 9L11.2533 6.25333L14 5L11.2533 3.74667L10 1L8.74667 3.74667L6 5L8.74667 6.25333L10 9Z" fill="#297EA3" fill-opacity="0.32"/>
<path d="M10 19L10.6267 17.6267L12 17L10.6267 16.3733L10 15L9.37333 16.3733L8 17L9.37333 17.6267L10 19Z" fill="#297EA3" fill-opacity="0.24"/>
<defs>
<clipPath id="clip0_1958_28602">
<rect width="16" height="10" fill="white" transform="translate(26 14)"/>
</clipPath>
</defs>
</svg>
