<svg width="64" height="32" viewBox="0 0 64 32" fill="none" xmlns="http://www.w3.org/2000/svg">
<g clip-path="url(#clip0_1814_54108)">
<g clip-path="url(#clip1_1814_54108)">
<rect x="21" y="5" width="22" height="5" rx="1" fill="#7A8799"/>
<path d="M21.5 13C21.2239 13 21 13.2239 21 13.5C21 13.7761 21.2239 14 21.5 14H30.5C30.7761 14 31 13.7761 31 13.5C31 13.2239 30.7761 13 30.5 13H21.5Z" fill="#97A1AF"/>
<path d="M33.5 13C33.2239 13 33 13.2239 33 13.5C33 13.7761 33.2239 14 33.5 14H42.5C42.7761 14 43 13.7761 43 13.5C43 13.2239 42.7761 13 42.5 13H33.5Z" fill="#97A1AF"/>
<path d="M21.5 16C21.2239 16 21 16.2239 21 16.5C21 16.7761 21.2239 17 21.5 17H30.5C30.7761 17 31 16.7761 31 16.5C31 16.2239 30.7761 16 30.5 16H21.5Z" fill="#97A1AF"/>
<path d="M33.5 16C33.2239 16 33 16.2239 33 16.5C33 16.7761 33.2239 17 33.5 17H42.5C42.7761 17 43 16.7761 43 16.5C43 16.2239 42.7761 16 42.5 16H33.5Z" fill="#97A1AF"/>
<path d="M21 19.5C21 19.2239 21.2239 19 21.5 19H30.5C30.7761 19 31 19.2239 31 19.5C31 19.7761 30.7761 20 30.5 20H21.5C21.2239 20 21 19.7761 21 19.5Z" fill="#97A1AF"/>
<path d="M33 19.5C33 19.2239 33.2239 19 33.5 19H42.5C42.7761 19 43 19.2239 43 19.5C43 19.7761 42.7761 20 42.5 20H33.5C33.2239 20 33 19.7761 33 19.5Z" fill="#97A1AF"/>
<path d="M21.5 22C21.2239 22 21 22.2239 21 22.5C21 22.7761 21.2239 23 21.5 23H30.5C30.7761 23 31 22.7761 31 22.5C31 22.2239 30.7761 22 30.5 22H21.5Z" fill="#97A1AF"/>
<path d="M33.5 22C33.2239 22 33 22.2239 33 22.5C33 22.7761 33.2239 23 33.5 23H42.5C42.7761 23 43 22.7761 43 22.5C43 22.2239 42.7761 22 42.5 22H33.5Z" fill="#97A1AF"/>
<path d="M21 25.5C21 25.2239 21.2239 25 21.5 25H30.5C30.7761 25 31 25.2239 31 25.5C31 25.7761 30.7761 26 30.5 26H21.5C21.2239 26 21 25.7761 21 25.5Z" fill="#97A1AF"/>
<path d="M33 25.5C33 25.2239 33.2239 25 33.5 25H42.5C42.7761 25 43 25.2239 43 25.5C43 25.7761 42.7761 26 42.5 26H33.5C33.2239 26 33 25.7761 33 25.5Z" fill="#97A1AF"/>
</g>
<path fill-rule="evenodd" clip-rule="evenodd" d="M47 2H17V6H15V2C15 0.895431 15.8954 0 17 0H47C48.1046 0 49 0.895431 49 2V15H47V2ZM47 27V30H17V20H15V30C15 31.1046 15.8954 32 17 32H47C48.1046 32 49 31.1046 49 30V27H47Z" fill="#626F7F"/>
<rect x="45" y="17" width="19" height="8" rx="1" fill="#297EA3"/>
<path d="M48 19.5C48 19.2239 48.2239 19 48.5 19H51.5C51.7761 19 52 19.2239 52 19.5C52 19.7761 51.7761 20 51.5 20H48.5C48.2239 20 48 19.7761 48 19.5Z" fill="#F6F7F8"/>
<path d="M48 22.5C48 22.2239 48.2239 22 48.5 22H53.5C53.7761 22 54 22.2239 54 22.5C54 22.7761 53.7761 23 53.5 23H48.5C48.2239 23 48 22.7761 48 22.5Z" fill="#F6F7F8"/>
<path d="M53.5 19C53.2239 19 53 19.2239 53 19.5C53 19.7761 53.2239 20 53.5 20H54.5C54.7761 20 55 19.7761 55 19.5C55 19.2239 54.7761 19 54.5 19H53.5Z" fill="#F6F7F8"/>
<path d="M56 19.5C56 19.2239 56.2239 19 56.5 19H60.5C60.7761 19 61 19.2239 61 19.5C61 19.7761 60.7761 20 60.5 20H56.5C56.2239 20 56 19.7761 56 19.5Z" fill="#F6F7F8"/>
<path d="M55.5 22C55.2239 22 55 22.2239 55 22.5C55 22.7761 55.2239 23 55.5 23H57.5C57.7761 23 58 22.7761 58 22.5C58 22.2239 57.7761 22 57.5 22H55.5Z" fill="#F6F7F8"/>
<rect y="8" width="19" height="10" rx="1" fill="#297EA3"/>
<path d="M3 11.5C3 11.2239 3.22386 11 3.5 11H6.5C6.77614 11 7 11.2239 7 11.5C7 11.7761 6.77614 12 6.5 12H3.5C3.22386 12 3 11.7761 3 11.5Z" fill="#F6F7F8"/>
<path d="M3 14.5C3 14.2239 3.22386 14 3.5 14H8.5C8.77614 14 9 14.2239 9 14.5C9 14.7761 8.77614 15 8.5 15H3.5C3.22386 15 3 14.7761 3 14.5Z" fill="#F6F7F8"/>
<path d="M8.5 11C8.22386 11 8 11.2239 8 11.5C8 11.7761 8.22386 12 8.5 12H9.5C9.77614 12 10 11.7761 10 11.5C10 11.2239 9.77614 11 9.5 11H8.5Z" fill="#F6F7F8"/>
<path d="M11 11.5C11 11.2239 11.2239 11 11.5 11H15.5C15.7761 11 16 11.2239 16 11.5C16 11.7761 15.7761 12 15.5 12H11.5C11.2239 12 11 11.7761 11 11.5Z" fill="#F6F7F8"/>
<path d="M10.5 14C10.2239 14 10 14.2239 10 14.5C10 14.7761 10.2239 15 10.5 15H12.5C12.7761 15 13 14.7761 13 14.5C13 14.2239 12.7761 14 12.5 14H10.5Z" fill="#F6F7F8"/>
<path d="M55 9L56.2533 6.25333L59 5L56.2533 3.74667L55 1L53.7467 3.74667L51 5L53.7467 6.25333L55 9Z" fill="#297EA3" fill-opacity="0.24"/>
<path d="M5 32L6.25333 29.2533L9 28L6.25333 26.7467L5 24L3.74667 26.7467L1 28L3.74667 29.2533L5 32Z" fill="#297EA3" fill-opacity="0.24"/>
<path d="M59.5 32L60.1267 30.6267L61.5 30L60.1267 29.3733L59.5 28L58.8733 29.3733L57.5 30L58.8733 30.6267L59.5 32Z" fill="#297EA3" fill-opacity="0.24"/>
<path d="M53 15L53.6267 13.6267L55 13L53.6267 12.3733L53 11L52.3733 12.3733L51 13L52.3733 13.6267L53 15Z" fill="#297EA3" fill-opacity="0.24"/>
<path d="M11 25L11.6267 23.6267L13 23L11.6267 22.3733L11 21L10.3733 22.3733L9 23L10.3733 23.6267L11 25Z" fill="#297EA3" fill-opacity="0.24"/>
<path d="M2 4L2.62667 2.62667L4 2L2.62667 1.37333L2 0L1.37333 1.37333L0 2L1.37333 2.62667L2 4Z" fill="#297EA3" fill-opacity="0.24"/>
<path d="M60.5 15L61.44 12.94L63.5 12L61.44 11.06L60.5 9L59.56 11.06L57.5 12L59.56 12.94L60.5 15Z" fill="#297EA3" fill-opacity="0.24"/>
<path d="M10 6L10.94 3.94L13 3L10.94 2.06L10 0L9.06 2.06L7 3L9.06 3.94L10 6Z" fill="#297EA3" fill-opacity="0.24"/>
</g>
<defs>
<clipPath id="clip0_1814_54108">
<rect width="64" height="32" fill="white"/>
</clipPath>
<clipPath id="clip1_1814_54108">
<rect width="22" height="21" fill="white" transform="translate(21 5)"/>
</clipPath>
</defs>
</svg>
