<svg width="64" height="32" viewBox="0 0 64 32" fill="none" xmlns="http://www.w3.org/2000/svg">
<path fill-rule="evenodd" clip-rule="evenodd" d="M28 20V25C28 26.1046 28.8954 27 30 27H45L50 32V11C50 9.89543 49.1046 9 48 9H34V11L48 11V27.1716L45.8284 25H30L30 20H28Z" fill="#626F7F"/>
<path fill-rule="evenodd" clip-rule="evenodd" d="M39 13.3C39.2943 13.3 39.5573 13.4842 39.6578 13.7608L41.654 19.2504L42.6499 21.7401C42.7935 22.099 42.6189 22.5064 42.26 22.65C41.901 22.7936 41.4936 22.619 41.3501 22.26L40.5261 20.2H37.4739L36.6499 22.26C36.5063 22.619 36.099 22.7936 35.74 22.65C35.3811 22.5064 35.2065 22.099 35.3501 21.7401L36.3459 19.2504L38.3421 13.7608C38.4427 13.4842 38.7056 13.3 39 13.3ZM37.9994 18.8H40.0006L39 16.0484L37.9994 18.8Z" fill="#4B5562"/>
<path d="M49 8L50.2533 5.25333L53 4L50.2533 2.74667L49 0L47.7467 2.74667L45 4L47.7467 5.25333L49 8Z" fill="#297EA3" fill-opacity="0.32"/>
<path d="M59 5L59.6267 3.62667L61 3L59.6267 2.37333L59 1L58.3733 2.37333L57 3L58.3733 3.62667L59 5Z" fill="#297EA3" fill-opacity="0.24"/>
<path d="M10 2C10 0.89543 10.8954 0 12 0H30C31.1046 0 32 0.895431 32 2V16C32 17.1046 31.1046 18 30 18H15L10 23V2Z" fill="#297EA3"/>
<path fill-rule="evenodd" clip-rule="evenodd" d="M19.505 3.00507C19.7784 2.73171 20.2216 2.73171 20.495 3.00507L21.495 4.00507C21.7683 4.27844 21.7683 4.72166 21.495 4.99502C21.2216 5.26839 20.7784 5.26839 20.505 4.99502L19.505 3.99502C19.2316 3.72166 19.2316 3.27844 19.505 3.00507ZM16.3 6.50005C16.3 6.11345 16.6134 5.80005 17 5.80005H25C25.3866 5.80005 25.7 6.11345 25.7 6.50005C25.7 6.88665 25.3866 7.20005 25 7.20005H24.1474C23.9415 8.57972 23.1504 9.87026 22.1242 10.8808C23.055 11.4606 24.0746 11.8 25 11.8C25.3866 11.8 25.7 12.1134 25.7 12.5C25.7 12.8866 25.3866 13.2 25 13.2C23.6228 13.2 22.2014 12.6549 21 11.8152C19.7985 12.6549 18.3772 13.2 17 13.2C16.6134 13.2 16.3 12.8866 16.3 12.5C16.3 12.1134 16.6134 11.8 17 11.8C17.9254 11.8 18.945 11.4606 19.8757 10.8808C18.8495 9.87026 18.0584 8.57972 17.8526 7.20005H17C16.6134 7.20005 16.3 6.88665 16.3 6.50005ZM19.2749 7.20005C19.4819 8.1869 20.1062 9.18668 21 10.0193C21.8937 9.18668 22.5181 8.1869 22.7251 7.20005H19.2749Z" fill="white"/>
<path d="M19 28L20.2533 25.2533L23 24L20.2533 22.7467L19 20L17.7467 22.7467L15 24L17.7467 25.2533L19 28Z" fill="#297EA3" fill-opacity="0.32"/>
<path d="M7 31L7.94 28.94L10 28L7.94 27.06L7 25L6.06 27.06L4 28L6.06 28.94L7 31Z" fill="#297EA3" fill-opacity="0.24"/>
<path d="M25 31L25.6267 29.6267L27 29L25.6267 28.3733L25 27L24.3733 28.3733L23 29L24.3733 29.6267L25 31Z" fill="#297EA3" fill-opacity="0.24"/>
<path d="M54 16L54.94 13.94L57 13L54.94 12.06L54 10L53.06 12.06L51 13L53.06 13.94L54 16Z" fill="#297EA3" fill-opacity="0.24"/>
</svg>
