<svg width="64" height="32" viewBox="0 0 64 32" fill="none" xmlns="http://www.w3.org/2000/svg">
<g clip-path="url(#clip0_1814_54107)">
<g clip-path="url(#clip1_1814_54107)">
<path d="M37.0012 22C37.2658 22.3521 37.5531 22.6861 37.8609 23H30.5C30.2239 23 30 22.7761 30 22.5C30 22.2239 30.2239 22 30.5 22H37.0012Z" fill="#97A1AF"/>
<path d="M35.4584 19C35.5658 19.3416 35.6911 19.6753 35.8331 20H30.5C30.2239 20 30 19.7761 30 19.5C30 19.2239 30.2239 19 30.5 19H35.4584Z" fill="#97A1AF"/>
<path d="M35 16H30.5C30.2239 16 30 16.2239 30 16.5C30 16.7761 30.2239 17 30.5 17H35.0495C35.0167 16.6711 35 16.3375 35 16Z" fill="#97A1AF"/>
<path d="M35.4584 13C35.3558 13.3265 35.2694 13.6601 35.2003 14H30.5C30.2239 14 30 13.7761 30 13.5C30 13.2239 30.2239 13 30.5 13H35.4584Z" fill="#97A1AF"/>
<path d="M18 13.5C18 13.2239 18.2239 13 18.5 13H27.5C27.7761 13 28 13.2239 28 13.5C28 13.7761 27.7761 14 27.5 14H18.5C18.2239 14 18 13.7761 18 13.5Z" fill="#97A1AF"/>
<path d="M18 16.5C18 16.2239 18.2239 16 18.5 16H27.5C27.7761 16 28 16.2239 28 16.5C28 16.7761 27.7761 17 27.5 17H18.5C18.2239 17 18 16.7761 18 16.5Z" fill="#97A1AF"/>
<path d="M18.5 19C18.2239 19 18 19.2239 18 19.5C18 19.7761 18.2239 20 18.5 20H27.5C27.7761 20 28 19.7761 28 19.5C28 19.2239 27.7761 19 27.5 19H18.5Z" fill="#97A1AF"/>
<path d="M18 22.5C18 22.2239 18.2239 22 18.5 22H27.5C27.7761 22 28 22.2239 28 22.5C28 22.7761 27.7761 23 27.5 23H18.5C18.2239 23 18 22.7761 18 22.5Z" fill="#97A1AF"/>
<path d="M18.5 25C18.2239 25 18 25.2239 18 25.5C18 25.7761 18.2239 26 18.5 26H27.5C27.7761 26 28 25.7761 28 25.5C28 25.2239 27.7761 25 27.5 25H18.5Z" fill="#97A1AF"/>
<path d="M30.5 25C30.2239 25 30 25.2239 30 25.5C30 25.7761 30.2239 26 30.5 26H39.5C39.7761 26 40 25.7761 40 25.5C40 25.2239 39.7761 25 39.5 25H30.5Z" fill="#97A1AF"/>
<path fill-rule="evenodd" clip-rule="evenodd" d="M19 5C18.4477 5 18 5.44772 18 6V9C18 9.55228 18.4477 10 19 10H37.0012C37.8097 8.92425 38.83 8.01663 40 7.33929V6C40 5.44772 39.5523 5 39 5H19Z" fill="#7A8799"/>
</g>
<path fill-rule="evenodd" clip-rule="evenodd" d="M14 2H44V6.04946C44.3289 6.01675 44.6625 6 45 6C45.3375 6 45.6711 6.01675 46 6.04946V2C46 0.895431 45.1046 0 44 0H14C12.8954 0 12 0.895431 12 2V30C12 31.1046 12.8954 32 14 32H44C45.1046 32 46 31.1046 46 30V25.9505C45.6711 25.9833 45.3375 26 45 26C44.6625 26 44.3289 25.9833 44 25.9505V30H14L14 2Z" fill="#626F7F"/>
<circle cx="45" cy="16" r="7" fill="white"/>
<path fill-rule="evenodd" clip-rule="evenodd" d="M53 16C53 11.5848 49.4152 8 45 8C40.5848 8 37 11.5848 37 16C37 20.4152 40.5848 24 45 24C46.9918 24 48.8147 23.2704 50.2156 22.0642L52.7246 24.5732C52.5137 25.1115 52.6257 25.7471 53.0607 26.182L56.5962 29.7175C57.182 30.3033 58.1317 30.3033 58.7175 29.7175C59.3033 29.1317 59.3033 28.182 58.7175 27.5962L55.182 24.0607C54.747 23.6257 54.1114 23.5137 53.5732 23.7247L51.0641 21.2156C52.2704 19.8147 53 17.9919 53 16ZM51 16C51 12.6894 48.3106 10 45 10C41.6894 10 39 12.6894 39 16C39 19.3106 41.6894 22 45 22C48.3106 22 51 19.3106 51 16Z" fill="#297EA3"/>
<path fill-rule="evenodd" clip-rule="evenodd" d="M48.7046 13.2955C49.0937 13.6846 49.0937 14.3155 48.7046 14.7046L44.7046 18.7046C44.3155 19.0938 43.6846 19.0938 43.2954 18.7046L41.2954 16.7046C40.9063 16.3155 40.9063 15.6846 41.2954 15.2955C41.6846 14.9064 42.3155 14.9064 42.7046 15.2955L44 16.5909L47.2954 13.2955C47.6846 12.9064 48.3155 12.9064 48.7046 13.2955Z" fill="#339DCC"/>
<path d="M53.75 9L55.0033 6.25333L57.75 5L55.0033 3.74667L53.75 1L52.4967 3.74667L49.75 5L52.4967 6.25333L53.75 9Z" fill="#297EA3" fill-opacity="0.32"/>
<path d="M3.75 13L5.00333 10.2533L7.75 9L5.00333 7.74667L3.75 5L2.49667 7.74667L-0.25 9L2.49667 10.2533L3.75 13Z" fill="#297EA3" fill-opacity="0.32"/>
<path d="M55.75 16L56.3767 14.6267L57.75 14L56.3767 13.3733L55.75 12L55.1233 13.3733L53.75 14L55.1233 14.6267L55.75 16Z" fill="#297EA3" fill-opacity="0.24"/>
<path d="M8.5 29L9.12667 27.6267L10.5 27L9.12667 26.3733L8.5 25L7.87333 26.3733L6.5 27L7.87333 27.6267L8.5 29Z" fill="#297EA3" fill-opacity="0.24"/>
<path d="M60.75 18L61.3767 16.6267L62.75 16L61.3767 15.3733L60.75 14L60.1233 15.3733L58.75 16L60.1233 16.6267L60.75 18Z" fill="#297EA3" fill-opacity="0.24"/>
<path d="M7.75 5L8.37667 3.62667L9.75 3L8.37667 2.37333L7.75 1L7.12333 2.37333L5.75 3L7.12333 3.62667L7.75 5Z" fill="#297EA3" fill-opacity="0.24"/>
<path d="M50.75 32L51.3767 30.6267L52.75 30L51.3767 29.3733L50.75 28L50.1233 29.3733L48.75 30L50.1233 30.6267L50.75 32Z" fill="#297EA3" fill-opacity="0.24"/>
<path d="M58.75 25L59.69 22.94L61.75 22L59.69 21.06L58.75 19L57.81 21.06L55.75 22L57.81 22.94L58.75 25Z" fill="#297EA3" fill-opacity="0.32"/>
<path d="M6.75 21L7.69 18.94L9.75 18L7.69 17.06L6.75 15L5.81 17.06L3.75 18L5.81 18.94L6.75 21Z" fill="#297EA3" fill-opacity="0.32"/>
</g>
<defs>
<clipPath id="clip0_1814_54107">
<rect width="64" height="32" fill="white"/>
</clipPath>
<clipPath id="clip1_1814_54107">
<rect width="22" height="21" fill="white" transform="translate(18 5)"/>
</clipPath>
</defs>
</svg>
