<svg width="6" height="30" viewBox="0 0 6 30" fill="none" xmlns="http://www.w3.org/2000/svg">
<path fill-rule="evenodd" clip-rule="evenodd" d="M1 2C1.55228 2 2 1.55228 2 1C2 0.447715 1.55228 0 1 0C0.447715 0 0 0.447715 0 1C0 1.55228 0.447715 2 1 2ZM5 2C5.55228 2 6 1.55228 6 1C6 0.447715 5.55228 0 5 0C4.44772 0 4 0.447715 4 1C4 1.55228 4.44772 2 5 2ZM6 5C6 5.55228 5.55228 6 5 6C4.44772 6 4 5.55228 4 5C4 4.44772 4.44772 4 5 4C5.55228 4 6 4.44772 6 5ZM1 6C1.55228 6 2 5.55228 2 5C2 4.44772 1.55228 4 1 4C0.447715 4 0 4.44772 0 5C0 5.55228 0.447715 6 1 6ZM6 9C6 9.55229 5.55228 10 5 10C4.44772 10 4 9.55229 4 9C4 8.44771 4.44772 8 5 8C5.55228 8 6 8.44771 6 9ZM1 10C1.55228 10 2 9.55229 2 9C2 8.44771 1.55228 8 1 8C0.447715 8 0 8.44771 0 9C0 9.55229 0.447715 10 1 10ZM6 13C6 13.5523 5.55228 14 5 14C4.44772 14 4 13.5523 4 13C4 12.4477 4.44772 12 5 12C5.55228 12 6 12.4477 6 13ZM1 14C1.55228 14 2 13.5523 2 13C2 12.4477 1.55228 12 1 12C0.447715 12 0 12.4477 0 13C0 13.5523 0.447715 14 1 14ZM6 17C6 17.5523 5.55228 18 5 18C4.44772 18 4 17.5523 4 17C4 16.4477 4.44772 16 5 16C5.55228 16 6 16.4477 6 17ZM1 18C1.55228 18 2 17.5523 2 17C2 16.4477 1.55228 16 1 16C0.447715 16 0 16.4477 0 17C0 17.5523 0.447715 18 1 18ZM6 21C6 21.5523 5.55228 22 5 22C4.44772 22 4 21.5523 4 21C4 20.4477 4.44772 20 5 20C5.55228 20 6 20.4477 6 21ZM1 22C1.55228 22 2 21.5523 2 21C2 20.4477 1.55228 20 1 20C0.447715 20 0 20.4477 0 21C0 21.5523 0.447715 22 1 22ZM6 25C6 25.5523 5.55228 26 5 26C4.44772 26 4 25.5523 4 25C4 24.4477 4.44772 24 5 24C5.55228 24 6 24.4477 6 25ZM1 26C1.55228 26 2 25.5523 2 25C2 24.4477 1.55228 24 1 24C0.447715 24 0 24.4477 0 25C0 25.5523 0.447715 26 1 26ZM6 29C6 29.5523 5.55228 30 5 30C4.44772 30 4 29.5523 4 29C4 28.4477 4.44772 28 5 28C5.55228 28 6 28.4477 6 29ZM1 30C1.55228 30 2 29.5523 2 29C2 28.4477 1.55228 28 1 28C0.447715 28 0 28.4477 0 29C0 29.5523 0.447715 30 1 30Z" fill="#ffffff"/>
</svg>
