<svg width="10" height="14" viewBox="0 0 10 14" fill="none" xmlns="http://www.w3.org/2000/svg">
<path d="M1 0C0.447715 0 0 0.447715 0 1C0 1.55228 0.447715 2 1 2C1.55228 2 2 1.55228 2 1C2 0.447715 1.55228 0 1 0Z" fill="#2C323A"/>
<path d="M0 5C0 4.44772 0.447715 4 1 4C1.55228 4 2 4.44772 2 5C2 5.55228 1.55228 6 1 6C0.447715 6 0 5.55228 0 5Z" fill="#2C323A"/>
<path d="M1 8C0.447715 8 0 8.44771 0 9C0 9.55229 0.447715 10 1 10C1.55228 10 2 9.55229 2 9C2 8.44771 1.55228 8 1 8Z" fill="#2C323A"/>
<path d="M1 12C0.447715 12 0 12.4477 0 13C0 13.5523 0.447715 14 1 14C1.55228 14 2 13.5523 2 13C2 12.4477 1.55228 12 1 12Z" fill="#2C323A"/>
<path d="M5 0C4.44772 0 4 0.447715 4 1C4 1.55228 4.44772 2 5 2C5.55228 2 6 1.55228 6 1C6 0.447715 5.55228 0 5 0Z" fill="#2C323A"/>
<path d="M4 5C4 4.44772 4.44772 4 5 4C5.55228 4 6 4.44772 6 5C6 5.55228 5.55228 6 5 6C4.44772 6 4 5.55228 4 5Z" fill="#2C323A"/>
<path d="M5 8C4.44772 8 4 8.44771 4 9C4 9.55229 4.44772 10 5 10C5.55228 10 6 9.55229 6 9C6 8.44771 5.55228 8 5 8Z" fill="#2C323A"/>
<path d="M5 12C4.44772 12 4 12.4477 4 13C4 13.5523 4.44772 14 5 14C5.55228 14 6 13.5523 6 13C6 12.4477 5.55228 12 5 12Z" fill="#2C323A"/>
<path d="M8 1C8 0.447715 8.44771 0 9 0C9.55228 0 10 0.447715 10 1C10 1.55228 9.55228 2 9 2C8.44771 2 8 1.55228 8 1Z" fill="#2C323A"/>
<path d="M9 4C8.44771 4 8 4.44772 8 5C8 5.55228 8.44771 6 9 6C9.55228 6 10 5.55228 10 5C10 4.44772 9.55228 4 9 4Z" fill="#2C323A"/>
<path d="M8 9C8 8.44771 8.44771 8 9 8C9.55228 8 10 8.44771 10 9C10 9.55229 9.55228 10 9 10C8.44771 10 8 9.55229 8 9Z" fill="#2C323A"/>
<path d="M8 13C8 12.4477 8.44771 12 9 12C9.55228 12 10 12.4477 10 13C10 13.5523 9.55228 14 9 14C8.44771 14 8 13.5523 8 13Z" fill="#2C323A"/>
</svg>
