<svg xmlns="http://www.w3.org/2000/svg" x="0px" y="0px" width="90px" height="74px" viewBox="0 0 90 74">
<g id="Layer_2">
</g>
<g id="Layer_1">
</g>
<g id="Layer_3">
	<g>
		<rect x="7" y="7" opacity="0.25" fill="#FFFFFF" width="62" height="46"/>
		<path fill="#FFFFFF" d="M0,0v60h76V0H0z M72,56H4V4h68V56z"/>
		<polygon opacity="0.49" fill="#FFFFFF" points="79,7 79,63 7,63 7,67 83,67 83,7 		"/>
		<polygon opacity="0.25" fill="#FFFFFF" points="86,14 86,70 14,70 14,74 90,74 90,14 		"/>
		<circle opacity="0.3" fill="#FFFFFF" cx="18.5" cy="18.5" r="7.5"/>
		<path opacity="0.65" fill="#FFFFFF" d="M7,53v-5l17-17l22,22H7z M35,37l16,16h18V31L55,17L35,37z"/>
	</g>
</g>
</svg>
