<?xml version="1.0" encoding="utf-8"?>
<!-- Generator: Adobe Illustrator 23.0.6, SVG Export Plug-In . SVG Version: 6.00 Build 0)  -->
<svg version="1.1" id="Layer_1" xmlns="http://www.w3.org/2000/svg" xmlns:xlink="http://www.w3.org/1999/xlink" x="0px" y="0px"
	 width="200px" height="154px" viewBox="0 0 200 154" style="enable-background:new 0 0 200 154;" xml:space="preserve">
<style type="text/css">
	.st0{opacity:0.1;fill:#1397B9;stroke:#1397B9;stroke-miterlimit:10;}
	.st1{opacity:8.000000e-02;}
	.st2{opacity:0.39;}
	.st3{fill:#9BB9B2;}
	.st4{fill:#9EA5AF;}
	.st5{fill:#979FAA;}
	.st6{fill:#7D8695;}
	.st7{fill:#6E7888;}
	.st8{fill:#88909E;}
	.st9{fill:#B3B9C1;}
	.st10{fill:none;stroke:#939AA6;stroke-width:0.5;stroke-miterlimit:10;}
	.st11{fill:#BEC3CA;}
	.st12{fill:#77808F;}
</style>
<path class="st0" d="M187.9,79.5c-25.7-47.2-8.2-69.7-28.4-78c-20.5-8.4-33,39.4-59.4,45.8c-18.4,4.5-37.2-16.4-63.8-9
	c-24.7,6.9-41,39.3-35,69.6c11.4,58.1,64.3,23.7,98.1,21.6c38-2.3,63.3,42,91,14.3C200.8,133.3,206.4,113.4,187.9,79.5z"/>
<polygon class="st1" points="105.6,99.4 69.6,124.3 110,153.2 144.6,122.9 "/>
<g class="st2">
	<g>
		<path class="st3" d="M98.4,22.8c0.4-0.7,1.3-1.5,2.5-2.2c1.3-0.8,3.5-2.1,6.8-3.8c0.2-0.2,0.2-0.6,0.2-1c-0.1-2.9-0.8-5.3-2.2-7.2
			c-1.4-1.9-3.6-2.8-6.7-2.8c-0.8,0-1.4,0.1-1.9,0.2c-0.4,0.1-0.9,0.4-1.5,0.7l-1.4-5.6c0.5-0.3,1.5-0.5,3-0.8
			C99.1,0.1,101,0,103.3,0c3.3,0,6.1,0.5,8.3,1.6c2.2,1.1,3.8,2.5,4.9,4.3c1,1.8,1.6,3.7,1.6,5.7c0,1.8-0.3,3.2-1.1,4.4
			s-1.6,2.1-2.6,2.8c-1,0.7-2.4,1.4-4,2.2c-1.2,0.6-2.1,1.1-2.8,1.5c-0.6,0.4-1.2,0.8-1.6,1.4c-0.3,0.4-0.4,1-0.4,1.6
			c0,0.8,0.1,1.8,0.2,3.1c0.1,1.3,0.3,2.4,0.4,3.4l-5.5,1c-0.3-0.4-0.7-1-1.1-1.8c-0.4-0.8-0.8-1.7-1.2-2.7c-0.3-1-0.5-1.9-0.6-2.8
			C97.8,24.4,98,23.5,98.4,22.8z M107.8,37.2c0.8,0.4,1.4,1,1.8,1.7c0.4,0.7,0.6,1.5,0.6,2.3c0,1.4-0.5,2.5-1.4,3.3
			c-1,0.8-2.2,1.2-3.9,1.2c-0.8,0.1-1.6-0.1-2.3-0.4c-0.8-0.4-1.4-0.9-1.8-1.6c-0.5-0.7-0.7-1.5-0.7-2.4c0-0.9,0.2-1.7,0.6-2.3
			c0.4-0.7,1-1.3,1.8-1.7c0.8-0.4,1.7-0.6,2.6-0.6C106.2,36.6,107.1,36.8,107.8,37.2z"/>
	</g>
</g>
<g>
	<polygon class="st4" points="107.1,86.6 73.9,109.5 111.1,136.2 143,108.3 	"/>
	<polygon class="st5" points="117.6,93 85.2,117.6 73.9,109.5 107.1,86.6 	"/>
	<polygon class="st6" points="105.7,55.8 107.1,86.6 143,108.3 147.2,74.7 	"/>
	<polygon class="st7" points="105.7,55.8 69,76.3 73.9,109.5 107.1,86.6 	"/>
	<polygon class="st4" points="73.9,109.5 111.1,136.2 111.1,101.9 69,76.3 	"/>
	<polygon class="st8" points="143,108.3 111.1,136.2 111.1,101.9 147.2,74.7 	"/>
	<polygon class="st4" points="53.3,55.1 91.3,37 105.7,55.8 69,76.3 	"/>
	<polygon class="st9" points="120,39 105.7,55.8 147.2,74.7 161.7,54.8 	"/>
	<polygon class="st9" points="92.2,100.9 111.1,101.9 69,76.3 47.3,73.2 	"/>
	<polyline class="st10" points="47.3,73.2 92.2,100.9 111.1,101.9 	"/>
	<line class="st10" x1="161.7" y1="54.8" x2="147.2" y2="74.7"/>
	<polygon class="st11" points="131.5,97.7 111.1,101.9 147.2,74.7 168.1,68.5 	"/>
	<polyline class="st10" points="111.1,101.9 131.5,97.7 168.1,68.5 	"/>
	<polygon class="st12" points="105.7,55.8 117.6,93 107.1,86.6 	"/>
</g>
</svg>
