<svg xmlns="http://www.w3.org/2000/svg" id="Layer_1" x="0" y="0" version="1.1" viewBox="0 0 204 136" xml:space="preserve"><style>.st0{opacity:.39;fill:#c9cdd3;enable-background:new}.st1{fill:#39b16f}.st2{fill:#63c593}.st3{fill:#5f697a}.st4{fill:#1f293a}.st5{fill:#e9ebed}.st6{fill:#5d687a}.st7{fill:#34b87b}.st8{fill:#4bc089}.st9{fill:#1eb06c}.st10{fill:#fff}.st11{fill:#687283}.st12{fill:#939aa6}.st13{fill:#7d8695}.st14{fill:#a9afb8}.st15{fill:#d4d7dc}.st16{opacity:.3}.st17{fill:#3e7ba1}.st18{opacity:.1}.st19{opacity:.7}.st20{font-family:&apos;Roboto-Black&apos;}.st21{font-size:6.7833px}.st22{opacity:.5}.st23{fill:#f4d0a9}.st24{opacity:.6;fill:url(#SVGID_1_);enable-background:new}.st25{fill:#29374e}.st26{opacity:.6}.st27{fill:#b9834a}.st28{fill:url(#SVGID_2_)}</style><ellipse cx="108.6" cy="132.2" class="st0" rx="51.3" ry="3.3"/><path d="M118.4 95.3H87.8c-1.2 0-2.1-1-2.1-2.1 0-1.2 1-2.1 2.1-2.1h30.6c1.2 0 2.1 1 2.1 2.1 0 1.2-.9 2.1-2.1 2.1z" class="st1"/><path d="M113.2 71.6H90.9c-2.9 0-5.4-2.2-5.7-5.1L82.6 44c-.4-3.4 2.3-6.4 5.7-6.4h27.5c3.5 0 6.1 3 5.7 6.4L119 66.5c-.4 2.9-2.8 5.1-5.8 5.1zM119.6 83.9H86.2c-2.5 0-4.5 2-4.5 4.5s2 4.5 4.5 4.5h33.4c2.5 0 4.5-2 4.5-4.5.1-2.5-2-4.5-4.5-4.5z" class="st2"/><path d="M89.5 69.3h26.4v12.6H89.5z" class="st3"/><path d="M100.6 40.9l-6.1 1.2c-2.4.5-4.4 2.1-5.3 4.4l-7 14.7 8.8 6.4 26.3 3 4.8-16.6-21.5-13.1z" class="st3"/><path d="M130.7 63.8l-18.9-16.4c-1.1-1.1-3.4-4-2.3-5.2l1.2-1.7c1.6-.4 4.3-1.9 7.4.5l18.3 16.8c1.1 1.1 1.2 2.9.2 4l-1.5 1.6c-1.1 1.2-3.2 1.5-4.4.4z" class="st3"/><path d="M115.8 78.2C103 85.5 89.5 77 89.5 77v13.6h26.6l-.3-12.4z" class="st4"/><path d="M133.7 57.3l21.5 3.9c1.4.1 2.5 1.5 2.4 3-.1 1.6-1.4 2.7-2.9 2.6l-22-1.9c-1.4-.1-2.5-1.5-2.4-3 .2-1.5 2-4.7 3.4-4.6z" class="st3"/><path d="M127.8 64.1h34.5c.6 0 1.1.5 1.1 1.1 0 .6-.5 1.1-1.1 1.1h-34.5c-.6 0-1.1-.5-1.1-1.1 0-.6.5-1.1 1.1-1.1z" class="st5"/><path d="M187.2 47.1l-6.8 18.3c-.2.3-.5.6-.9.6l-33.1-.1c-.7 0-1.1-.7-.9-1.4l7.5-17.8c.2-.5.7-.7 1.2-.7h32.1c.7-.1 1.1.5.9 1.1z" class="st5"/><path d="M49.4 66.1h-3.9c-4.9 0-8.9-4-8.9-8.9v-1.7h21.8v1.7c-.1 4.9-4.1 8.9-9 8.9z" class="st6"/><path d="M60.7 44.3s-1.9 11.3-9.8 10c0 0 .3-3.6 9.8-10z" class="st7"/><path d="M51.2 40.2s-7.6 10.1-.9 13.8c0 0 2.8-3.4.9-13.8z" class="st8"/><path d="M57.5 36.5s3.1 9.3-4.9 13.1c0 0-2.1-6 4.9-13.1z" class="st7"/><path d="M38.2 43s-4.1 10.9 5.4 11.8c0-.1 1.7-3.4-5.4-11.8z" class="st9"/><path d="M44.6 54.5c-.1-.1-2.6-3 2.2-13l.2-.4.2.3c.1.2 3.5 4.9 2.2 8.9-.6 1.9-2.1 3.3-4.5 4.2l-.2.1-.1-.1z" class="st9"/><path d="M47 41.6s6.8 9.4-2.2 12.7c0 0-2.5-2.8 2.2-12.7m-.1-1l-.4.8c-4.8 10.1-2.2 13.2-2.1 13.3l.2.3.3-.1c2.5-.9 4.1-2.4 4.7-4.4 1.3-4.1-2.1-8.9-2.3-9.1l-.4-.8z" class="st10"/><path d="M39.5 35.6s9.5 5.9 3.7 13.1c.1 0-4.1-2.4-3.7-13.1z" class="st9"/><path d="M45.8 62.1v-6.6h-9.3v5c0 3.1 2.5 5.6 5.6 5.6h6.2c-2.5-.7-2.5-1.8-2.5-4z" class="st11"/><path d="M16.9 75.6L2 134.4h3.4l19.7-62.1z" class="st12"/><path d="M30.6 71.8l-14.9 58.9h3.4l19.7-62.2z" class="st13"/><path d="M187.1 75.6l14.9 58.8h-3.4l-19.7-62.1z" class="st12"/><path d="M173.4 72.4l14.9 58.9h-3.4l-19.7-62.1z" class="st13"/><path d="M197.4 69.8H7.7v20.1h51l6.7-10.4h74.3l7.9 10.4h49.8z" class="st14"/><path d="M7.7 66.1h189.7v3.7H7.7z" class="st15"/><g class="st16"><path d="M145.9 25.4l3.8.4-.2 1.5-6.2-.7.1-.9 4.4-5.5-3.7-.4.2-1.5 6.1.7-.1.8-4.4 5.6z" class="st17"/></g><g class="st18"><path d="M157.5 12.6l5.2-1.2.5 2.1-8.5 1.9-.3-1.2 3.3-9.4-5.2 1.1-.5-2.1 8.5-1.9.3 1.2-3.3 9.5z" class="st17"/></g><g class="st19"><text class="st17 st20 st21" transform="translate(133.335 40.358)">Z</text></g><g class="st22"><path d="M137.2 27.9l2.7-.4.2 1-4.3.6-.1-.6 2-4.6-2.6.4-.2-1 4.3-.6.1.6-2.1 4.6z" class="st17"/></g><g><path d="M108 35c-.4.4-.5.9-.5.9v.1c-5.7-3-10.3-.4-14.2 4.3-4.7 5.5-5.9 12.3.2 17.4.3.3.6.5 1 .8 0 0-.3.3-.5.8-.5 1-.8 2.6 2.1 3.4 4.3 1.1 5.1-1.3 5.1-1.3 4.8 1 29.7 5.2 12.2-19.9-.1-.2-.3-.4-.5-.7h.1s1.9-1.7-1-5.1c-2-2.4-3.3-1.5-4-.7z" class="st23"/><linearGradient id="SVGID_1_" x1="2347.915" x2="2348.257" y1="4588.735" y2="4580.624" gradientTransform="scale(1 -1) rotate(53.323 5842.915 34.935)" gradientUnits="userSpaceOnUse"><stop offset="0" stop-color="#efb89a" stop-opacity="0"/><stop offset="1" stop-color="#e08f79" stop-opacity=".8"/></linearGradient><path d="M104.4 48.7l8.2 2.8c.6.2 1.1.7 1.2 1.3l.4 1.5c.2.8-.3 1.6-1.1 1.7l-1.5.3c-.7.1-1.4-.1-1.8-.7l-5.4-6.9z" class="st24"/><path d="M90 24.4c1.7 5.4-.2 17.3-.2 17.3-.6.4-4-3.3-4-3.3.3 11.5 5 18.8 5 18.8C94 60.5 101 61 101 61c.2-.4.4-.7.4-.7-.3-.2-.7-.5-1-.8-4.3-3.6-3.4-6.8-2.9-11l4.9-2.1-.2-4.5c3.5-1.8 5.5-3.2 9.8-.8V41s.1-.4.4-.8l-8.7-7.3c-.9-.7-1.7-1.6-2.4-2.4-4.2-4.6-11.3-6.1-11.3-6.1z" class="st25"/><g class="st26"><path d="M106.7 57.4c-.3.5-.8.9-1.2 1.3l-.4-.5c.8-.7 1.5-1.5 1.9-2.5l.6.2-.9 1.5z" class="st27"/></g><g class="st26"><path d="M113.3 48.5c-.3.5-.8.9-1.2 1.3l-.4-.5c.8-.7 1.5-1.5 1.9-2.5l.6.2-.9 1.5z" class="st27"/></g></g><path d="M188 47l-6.6 17.9c-.2.3-.5.6-.9.6l-33.5-.1c-.5 0-.8-.5-.6-.9l7.6-17.8c.2-.4.6-.7 1.1-.7h32.2c.5-.1.9.5.7 1z" class="st13"/><g><linearGradient id="SVGID_2_" x1="109.216" x2="137.936" y1="624.692" y2="619.066" gradientTransform="scale(.99998 -.99998) rotate(5.424 7356.03 84.7)" gradientUnits="userSpaceOnUse"><stop offset="0" stop-color="#5f697a"/><stop offset="1" stop-color="#a6abb3"/></linearGradient><path d="M85.7 58.4l21.8 2.3c1.4.2 2 .9 2.1 2.4.1 1.5-1.1 2.6-2.5 2.6l-21.6.3c-2.3 0-3.7-1.9-3.4-3.6-.1-1.6 1.4-4 3.6-4z" class="st28"/><path d="M108.1 61.6c.4-.5 1-.8 1.6-.9l5.9-.9c.8-.1 1.6.1 2.2.7 1.1 1.1 3 3 4.1 4.2.4.4.1 1.1-.5 1.1H110c-2.2 0-3.3-2.5-1.9-4.2z" class="st23"/></g><g><ellipse cx="167.7" cy="56.4" class="st10" rx="4.3" ry="2.9" transform="rotate(-39.27 167.688 56.389)"/><path d="M165.2 57.4l.1-.1c.6-.7 1.2-1.3 1.8-2l.1-.1c.6-.3 1.3-.6 2-.9-.6.8-1.2 1.6-1.9 2.4l2.1.9c-.5.2-1 .3-1.5.5-.2.1-.5.2-.7.2s-.3-.1-.5-.2c-.4-.2-.9-.4-1.3-.6l-.2-.1z" class="st2"/></g><path d="M96.5 125.4h-2.9c-.9 0-1.6-.7-1.7-1.6l-3.8-37.7c-.4-3.4 2.1-6.5 5.4-6.5 3 0 5.4 2.6 5.4 5.8l-.7 38.1c0 1.1-.8 1.9-1.7 1.9zM133.1 122.1l-5.1 2.3-20.1-34.3c-1.3-2.6-.7-6.1 1.6-7.5l.7-.4c2.9-1.7 6.9.1 8.1 3.4l14.8 36.5z" class="st25"/><path d="M99 123.9c-.5 2.3.1 5-.4 7.3-.2.3-.6.3-.9.3H78.2c-.9 0-1-.1-.7-1 .3-.8.6-1.4 1.5-1.9 3.1-1.6 6.1-3.3 9.1-4.9.5-.3.9-.7 1.2-1.2.4-.6.9-1.2 1.4-1.9 1-.1 1.5.5 1.9 1.3.3.6.6.8 1.2.8 1.8.1 2.4 0 4.2.1.4.2 1.2.1 1 1.1zM126.6 124.6c1.2 2 1.6 4.7 2.8 6.8.3.2.6.1 1 0 6.1-2.2 12.3-4.4 18.4-6.6.9-.3.9-.5.4-1.2-.5-.6-1.1-1.1-2-1.3-3.4-.5-6.8-1-10.2-1.6-.6-.1-1.1-.4-1.5-.7-.6-.4-1.3-.9-1.9-1.3-1 .2-1.3 1-1.4 1.9-.1.6-.3.9-.9 1.2-1.6.7-2.3.8-3.9 1.6-.6.2-1.3.4-.8 1.2z" class="st2"/></svg>