<?xml version="1.0" encoding="utf-8"?>
<!-- Generator: Adobe Illustrator 23.0.6, SVG Export Plug-In . SVG Version: 6.00 Build 0)  -->
<svg version="1.1" id="Layer_1" xmlns="http://www.w3.org/2000/svg" xmlns:xlink="http://www.w3.org/1999/xlink" x="0px" y="0px"
	 width="305px" height="200px" viewBox="0 0 305 200" style="enable-background:new 0 0 305 200;" xml:space="preserve">
<style type="text/css">
	.st0{opacity:0.1;fill:#33C5A0;stroke:#33C5A0;stroke-miterlimit:10;}
	.st1{opacity:0.1;fill:#1397B9;stroke:#1397B9;stroke-miterlimit:10;}
	.st2{opacity:8.000000e-02;}
	.st3{fill:#939AA6;}
	.st4{fill:#7D8695;}
	.st5{fill:#5D687A;}
	.st6{fill:#1397B9;}
	.st7{fill:#5AB6CE;}
	.st8{fill:#5F697A;}
	.st9{fill:#1E355B;}
	.st10{fill:#A5AEBD;}
	.st11{fill:#8E9AAD;}
	.st12{fill:#BBC2CE;}
	.st13{fill:#78869D;}
	.st14{fill:#85DCC6;}
	.st15{fill:#66D3B8;}
	.st16{opacity:0.4;}
	.st17{fill:#3E7BA1;}
	.st18{opacity:0.2;}
	.st19{opacity:0.75;}
	.st20{opacity:0.55;}
	.st21{fill:#F4D0A9;}
	.st22{opacity:0.6;fill:url(#SVGID_1_);}
	.st23{fill:#9AA4B5;}
	.st24{fill:url(#SVGID_2_);}
	.st25{fill:#FFFFFF;}
	.st26{fill:#63C593;}
	.st27{fill:#293F63;}
	.st28{fill:#33C5A0;}
	.st29{fill:#70D6BC;}
	.st30{fill:none;stroke:#49B282;stroke-width:0.5;stroke-miterlimit:10;}
	.st31{fill:#6ED6BC;}
	.st32{fill:#61728C;}
	.st33{fill:#4B5D7C;}
	.st34{opacity:0.6;fill:#4B5D7C;}
	.st35{fill:#B9834A;}
</style>
<path class="st0" d="M38.2,91.4c19,59.8-20.6,81.8,7.9,104.1c22.1,17.3,65.2-21,106.4-24.7c27.3-2.5,57.8,26.8,87.5,26.8
	c36.8,0,62.3-31.1,63.7-71.4c2.7-79.8-91.5-60.5-139.8-73.3C109.5,38.6,87-16.3,47.1,4.7C29.8,13.8,21.6,39.2,38.2,91.4z"/>
<path class="st1" d="M263.7,102.1c-36.3-59.2-13.8-77.8-42.3-89.4c-28.8-11.8-44.2,37.8-81.2,43.4c-25.9,3.9-52.3-22.9-89.6-16
	C16,46.6-6.7,84.5,1.8,121.7c16.3,71.2,90.4,33.7,137.8,34c53.3,0.2,89.1,55.8,127.8,24.5C282,168.3,289.8,144.6,263.7,102.1z"/>
<ellipse class="st2" cx="151.2" cy="184.9" rx="49.6" ry="3.2"/>
<g>
	<g>
		<rect x="144.4" y="149.2" class="st3" width="3" height="23.3"/>
		<path class="st4" d="M151.6,174.6h-11.4v0c0-1.2,0.9-2.1,2.1-2.1h7.2C150.6,172.5,151.6,173.4,151.6,174.6L151.6,174.6z"/>
		<path class="st4" d="M163.1,177.5h-34.6v0c0-1.6,1.3-2.9,2.9-2.9h28.7C161.8,174.5,163.1,175.8,163.1,177.5L163.1,177.5z"/>
		<ellipse class="st5" cx="129.4" cy="180.1" rx="2.8" ry="2.4"/>
		<ellipse class="st5" cx="162.3" cy="180.1" rx="2.8" ry="2.4"/>
	</g>
</g>
<path class="st6" d="M160.7,149.3h-29.6c-1.1,0-2.1-0.9-2.1-2.1v0c0-1.1,0.9-2.1,2.1-2.1h29.6c1.1,0,2.1,0.9,2.1,2.1v0
	C162.7,148.3,161.8,149.3,160.7,149.3z"/>
<path class="st7" d="M155.7,126.3h-21.6c-2.8,0-5.2-2.1-5.5-4.9l-2.5-21.7c-0.4-3.3,2.2-6.2,5.5-6.2h26.6c3.3,0,5.9,2.9,5.5,6.2
	l-2.5,21.7C160.9,124.2,158.5,126.3,155.7,126.3z"/>
<path class="st7" d="M161.9,138.2h-32.4c-2.4,0-4.4,2-4.4,4.4v0c0,2.4,2,4.4,4.4,4.4h32.4c2.4,0,4.4-2,4.4-4.4v0
	C166.2,140.2,164.3,138.2,161.9,138.2z"/>
<rect x="132.7" y="124.1" class="st8" width="25.5" height="12.2"/>
<path class="st8" d="M143.5,96.6l-5.9,1.2c-2.3,0.5-4.3,2.1-5.1,4.3l-6.7,14.2l8.5,6.2l25.4,2.9l4.6-16.1L143.5,96.6z"/>
<path class="st8" d="M172.6,118.8L154.3,103c-1.1-1-3.3-3.9-2.2-5l1.2-1.6c1.5-0.4,4.1-1.8,7.1,0.5l17.7,16.2c1.1,1,1.2,2.8,0.2,3.9
	l-1.4,1.6C175.8,119.6,173.7,119.8,172.6,118.8z"/>
<path class="st9" d="M158.2,132.7c-12.4,7.1-25.5-1.1-25.5-1.1l0,13.2h25.7L158.2,132.7z"/>
<path class="st8" d="M175.5,112.5l20.8,3.8c1.4,0.1,2.4,1.4,2.3,2.9v0c-0.1,1.5-1.4,2.6-2.8,2.5l-21.3-1.8c-1.4-0.1-2.4-1.4-2.3-2.9
	v0C172.3,115.5,174.1,112.4,175.5,112.5z"/>
<path class="st10" d="M175.9,119.1h43.9c0.6,0,1.1,0.5,1.1,1.1v0c0,0.6-0.5,1.1-1.1,1.1h-43.9c-0.6,0-1.1-0.5-1.1-1.1v0
	C174.8,119.6,175.3,119.1,175.9,119.1z"/>
<path class="st11" d="M187.2,119.1h32.6c0.6,0,1.1,0.5,1.1,1.1v0c0,0.6-0.5,1.1-1.1,1.1h-32.6V119.1z"/>
<path class="st12" d="M227.5,102.6l-6.3,17.1c-0.1,0.3-0.5,0.6-0.8,0.6l-32.1,0c-0.7,0-1.1-0.7-0.8-1.3l7.1-16.7
	c0.2-0.4,0.6-0.7,1.1-0.7h31.1C227.3,101.5,227.7,102.1,227.5,102.6z"/>
<g>
	<polygon class="st11" points="62.6,130.1 48.1,187.1 51.4,187.1 70.4,127 	"/>
	<polygon class="st13" points="75.8,126.5 61.4,183.4 64.7,183.4 83.7,123.4 	"/>
	<polygon class="st11" points="227.1,130.1 241.5,187.1 238.2,187.1 219.2,127 	"/>
	<polygon class="st13" points="213.8,127.1 228.3,184.1 225,184.1 206,124 	"/>
	<polygon class="st14" points="237,124.5 236.9,124.5 236.9,124.5 53.6,124.5 53.6,144 102.9,144 109.4,134 181.3,134 188.9,144 
		237,144 	"/>
	<rect x="53.6" y="121" class="st15" width="183.4" height="3.6"/>
</g>
<g class="st16">
	<g>
		<path class="st17" d="M179.2,81.5l4,0.5l-0.2,1.6l-6.5-0.8l0.1-0.9l4.7-5.8l-3.9-0.5l0.2-1.6l6.5,0.7l-0.1,0.9L179.2,81.5z"/>
	</g>
</g>
<g class="st18">
	<g>
		<path class="st17" d="M191.5,70l5.5-1.2l0.5,2.2l-9,2l-0.3-1.3l3.5-9.9l-5.4,1.2l-0.5-2.2l8.9-2l0.3,1.2L191.5,70z"/>
	</g>
</g>
<g class="st19">
	<g>
		<path class="st17" d="M167.8,96.3h2.4v0.9h-4v-0.6l2.4-3.5h-2.4v-0.9h3.9v0.6L167.8,96.3z"/>
	</g>
</g>
<g class="st20">
	<g>
		<path class="st17" d="M168.2,84.2l2.8-0.4l0.2,1.1l-4.6,0.7l-0.1-0.6l2.1-4.8l-2.8,0.4l-0.2-1.1l4.5-0.7l0.1,0.6L168.2,84.2z"/>
	</g>
</g>
<g>
	<path class="st21" d="M152.8,92c-0.2,0.3-0.5,1.3-0.5,1.3c-0.4-0.2-2.9-1.8-3.2-1.9c-5.1-2.2-10.2-0.7-13.5,3.8
		c-4.3,5.7-4.8,12.8,1,17.7c0.3,0.3,0.6,0.5,0.9,0.7l0,0c0,0-0.3,0.3-0.5,0.7c-0.5,0.9-0.8,2.5,2.1,3.2c4.2,1.1,4.9-1.3,4.9-1.3
		c2.9,0.6,14.3,1.4,16.8-2.6c2-3.2,1.2-7.8-2.9-13.9c-0.1-0.2-0.6-1-0.8-1.4c0.2-0.4,0.9-1.8,0-4.6C156.3,91.1,153.9,90.6,152.8,92z
		"/>
	
		<linearGradient id="SVGID_1_" gradientUnits="userSpaceOnUse" x1="2378.8938" y1="-4354.146" x2="2379.186" y2="-4347.2178" gradientTransform="matrix(0.5973 -0.802 0.802 0.5973 2219.7046 4613.8721)">
		<stop  offset="0" style="stop-color:#EFB89A;stop-opacity:0"/>
		<stop  offset="1" style="stop-color:#E08F79;stop-opacity:0.8"/>
	</linearGradient>
	<path class="st22" d="M149.7,105.8l6.9,1.9c0.6,0.2,1,0.7,1.2,1.3l0.4,1.4c0.2,0.7-0.3,1.5-1,1.6l-1.5,0.3
		c-0.7,0.1-1.4-0.1-1.8-0.7L149.7,105.8z"/>
</g>
<path class="st9" d="M134.4,81.2c3,9.5-1.9,9.3-0.9,14.9c-2-0.3-4.1-3.4-4.1-3.4c-1.9,11.2,0.6,16.3,2.8,18.9
	c2.4,2.8,10.1,4.8,10.1,4.8s1-0.1,1.2-0.3c0.3-0.2,2.7-0.2,2.7-0.2s-2.6-1.2-3.3-1.7c-2.6-1.9-3.1-4.1-2.2-7.3
	c2.1,0.4,4.9-0.6,6.5-2.9c1.7-2.6,1.2-4.7,0-6.5c2.5-1.8,4.5-2.1,7-0.6c1,0.6,2.3,1.4,3.5,2.5c0,0-1.2-3.2-2.7-5
	c-0.9-1.1-3.7-3.7-7-3.7C147.4,84.7,134.4,81.2,134.4,81.2z"/>
<path class="st23" d="M227.9,102.6l-6.4,17.3c-0.1,0.3-0.5,0.4-0.8,0.4l-32.4,0c-0.5,0-0.8-0.5-0.6-0.9l7.3-17.2
	c0.2-0.4,0.6-0.7,1.1-0.7h31.1C227.8,101.4,228.2,102,227.9,102.6z"/>
<g>
	
		<linearGradient id="SVGID_2_" gradientUnits="userSpaceOnUse" x1="152.8964" y1="-427.4213" x2="180.6368" y2="-421.9875" gradientTransform="matrix(0.9955 -9.451974e-02 9.451974e-02 0.9955 21.9924 557.7208)">
		<stop  offset="0" style="stop-color:#5F697A"/>
		<stop  offset="1" style="stop-color:#A6ABB3"/>
	</linearGradient>
	<path class="st24" d="M129.1,113.6l21,2.5c1.4,0.2,2,0.9,2,2.3c0,1.5-1.1,2.5-2.5,2.5l-20.8,0c-2.2,0-3.6-1.9-3.3-3.5
		C125.5,115.9,126.9,113.6,129.1,113.6z"/>
	<path class="st21" d="M150.6,116.8L150.6,116.8c0.4-0.5,0.9-0.8,1.5-0.9l5.7-0.9c0.8-0.1,1.5,0.1,2.1,0.7c1,1,2.9,2.9,4,4.1
		c0.4,0.4,0.1,1.1-0.4,1.1c-2.4,0-7.2,0-11.1,0C150.4,120.9,149.3,118.4,150.6,116.8z"/>
</g>
<g>
	
		<ellipse transform="matrix(0.7742 -0.633 0.633 0.7742 -23.6167 157.0798)" class="st25" cx="208.3" cy="111.6" rx="4.2" ry="2.8"/>
	<g>
		<path class="st26" d="M205.9,112.6c0,0,0.1-0.1,0.1-0.1c0.6-0.6,1.1-1.3,1.7-1.9c0,0,0.1-0.1,0.1-0.1c0.6-0.3,1.2-0.6,1.9-0.9
			c-0.6,0.8-1.2,1.5-1.8,2.3c0.7,0.3,1.3,0.6,2,0.9c-0.5,0.2-1,0.3-1.5,0.4c-0.2,0.1-0.5,0.2-0.6,0.2c-0.2,0-0.3-0.1-0.5-0.2
			C206.8,113,206.4,112.8,205.9,112.6C206,112.6,205.9,112.6,205.9,112.6z"/>
	</g>
</g>
<path class="st27" d="M139.5,178.3h-2.8c-0.9,0-1.6-0.7-1.7-1.6l-3.7-36.4c-0.4-3.3,2.1-6.2,5.2-6.2h0c2.9,0,5.2,2.5,5.2,5.6
	l-0.7,36.9C141.1,177.5,140.4,178.3,139.5,178.3z"/>
<path class="st27" d="M174.9,175.1l-4.9,2.3l-19.5-33.1c-1.3-2.5-0.7-5.9,1.6-7.2l0.7-0.4c2.8-1.7,6.7,0.1,7.9,3.3L174.9,175.1z"/>
<path class="st28" d="M141.9,176.8c-0.5,2.2,0.1,4.8-0.4,7.1c-0.2,0.3-0.6,0.3-0.9,0.3c-6.3,0-12.6,0-18.9,0c-0.9,0-1-0.1-0.7-1
	c0.3-0.8,0.6-1.4,1.4-1.8c3-1.5,5.9-3.2,8.8-4.7c0.5-0.3,0.9-0.7,1.2-1.1c0.4-0.6,0.9-1.2,1.3-1.8c1-0.1,1.5,0.5,1.8,1.2
	c0.3,0.5,0.6,0.8,1.2,0.8c1.7,0.1,2.4,0,4.1,0.1C141.4,176,142.1,176,141.9,176.8z"/>
<path class="st28" d="M168.6,177.6c1.2,1.9,1.5,4.6,2.7,6.5c0.3,0.2,0.6,0.1,0.9,0c5.9-2.1,11.9-4.2,17.8-6.4
	c0.8-0.3,0.9-0.4,0.4-1.1c-0.5-0.6-1-1.1-2-1.2c-3.3-0.4-6.6-1-9.9-1.5c-0.6-0.1-1-0.3-1.5-0.7c-0.6-0.4-1.2-0.8-1.8-1.2
	c-0.9,0.2-1.2,1-1.3,1.8c-0.1,0.6-0.3,0.9-0.8,1.2c-1.6,0.7-2.2,0.8-3.8,1.5C168.8,176.6,168.1,176.8,168.6,177.6z"/>
<g>
	<g>
		<path class="st29" d="M70.4,77.5c-2.9,1.6-3.4,8.5-1.3,12.9c1.9,3.9,6.4,7,10.4,4.4c4.7-3,4.6-8,1.4-11.7
			C78.2,79.9,73.2,75.9,70.4,77.5z"/>
		<path class="st28" d="M79.2,94.4c-0.3-3.2,0.8-7.3,2.8-9.7l0.2,0.2c-1.9,2.3-3,6.3-2.7,9.5L79.2,94.4z"/>
		<g>
			<path class="st28" d="M77.9,91.9c-0.6-0.5-1.3-0.9-1.9-1.2c-2.3-1.1-5.1-1.9-7.7-2.2l0-0.3c2.6,0.3,5.4,1.1,7.8,2.2
				c0.7,0.3,1.4,0.7,2,1.3L77.9,91.9z"/>
			<path class="st28" d="M75.2,86.8c-0.4-1.9,1-5.3,2.6-6.8l0.2,0.2c-1.5,1.4-2.8,4.8-2.5,6.5L75.2,86.8z"/>
			<path class="st28" d="M73.8,84.3c-1.8-1-3.7-1.4-6-1.4c0,0,0,0,0,0l0-0.3c0,0,0,0,0,0c2.3,0,4.3,0.5,6.1,1.4L73.8,84.3z"/>
			<path class="st28" d="M83.4,102.9c-2.8-5.4-9.6-18.7-13.5-25.2l0.5-0.3c3.9,6.5,10.8,19.8,13.5,25.2L83.4,102.9z"/>
		</g>
	</g>
	<g>
		<path class="st28" d="M90.2,58.5c-4.8-0.1-10.6,7.7-11.1,14.7c-0.5,6.3,2.9,13,9.7,13.1c8,0.1,11.7-7.2,10.5-14.1
			C98.2,66.2,94.7,58.6,90.2,58.5z"/>
		<g>
			<g>
				<path class="st30" d="M89.2,81.8c2.2-3.7,6-6.8,10.3-7.9"/>
				<path class="st30" d="M89.6,71.4c1.4-2.2,4.8-4.5,7.5-6.2"/>
				<path class="st30" d="M89.8,67.9c-1.3-2.8-3.6-4.6-5.7-6.1"/>
				<path class="st30" d="M80.3,68.2c3.4,2.3,6.8,4.7,9.2,8"/>
				<path class="st30" d="M89,86c-2.7-3.3-6-6.5-9.6-8.4"/>
				
					<rect x="67.1" y="80.3" transform="matrix(4.297103e-02 -0.9991 0.9991 4.297103e-02 4.843 166.3249)" class="st28" width="44.3" height="0.6"/>
			</g>
			<g>
				<path class="st15" d="M89.3,81.9l-0.3-0.2c2.3-3.9,6.3-6.9,10.4-8l0.1,0.3C95.5,75.1,91.6,78.1,89.3,81.9z"/>
				<path class="st15" d="M89.8,71.5l-0.3-0.2c1.1-1.8,3.7-3.8,7.6-6.2l0.2,0.3C93.4,67.7,90.8,69.8,89.8,71.5z"/>
				<path class="st15" d="M89.6,68c-1.3-2.7-3.6-4.6-5.6-6l0.2-0.2c2.1,1.5,4.4,3.4,5.7,6.1L89.6,68z"/>
				<path class="st15" d="M89.3,76.3c-2.3-3.3-5.8-5.7-9.1-7.9l-0.1,0l0.2-0.2l0.1,0c3.3,2.3,6.8,4.7,9.1,8L89.3,76.3z"/>
				<path class="st15" d="M88.9,86.1c-2.1-2.6-5.5-6.3-9.6-8.4l0.1-0.3c4.1,2.2,7.5,5.8,9.7,8.5L88.9,86.1z"/>
				
					<rect x="75.7" y="72.1" transform="matrix(4.199615e-02 -0.9991 0.9991 4.199615e-02 13.4948 158.8558)" class="st15" width="27.8" height="0.6"/>
			</g>
		</g>
	</g>
	<g>
		<path class="st31" d="M110.1,70.9c-3.2-1.7-10.6,3.7-14.1,10c-3.1,5.7-3.8,12.9,0.8,15.2c5.4,2.7,11.2-2.8,13.4-9.6
			C112.2,80.6,113.2,72.4,110.1,70.9z"/>
		<g>
			<path class="st28" d="M102.1,82.3C102,82.3,102,82.3,102.1,82.3c-0.2-0.1-0.2-0.2-0.1-0.2c1.7-2.3,6.4-2.6,9.8-2.7c0,0,0,0,0,0
				c0.1,0,0.1,0.1,0.2,0.1c0,0.1-0.1,0.2-0.1,0.2c-3.3,0.1-8,0.5-9.6,2.6C102.2,82.3,102.1,82.3,102.1,82.3z"/>
			<path class="st28" d="M106.7,74.1c0,0-0.1,0-0.1-0.1c0-0.1,0-0.2,0-0.2c1.1-0.7,3.2-1,4.8-1.1c0.1,0,0.2,0.1,0.2,0.1
				c0,0.1-0.1,0.2-0.1,0.2C110.2,73.1,107.9,73.4,106.7,74.1C106.8,74.1,106.8,74.1,106.7,74.1z"/>
			<path class="st28" d="M105,77C105,77,105,77,105,77c-0.1,0-0.2-0.1-0.2-0.2c0.1-1.5-0.4-2.9-1.3-4.1c-0.1-0.1,0-0.2,0-0.2
				c0.1-0.1,0.2,0,0.2,0c1,1.2,1.5,2.7,1.4,4.3C105.1,77,105.1,77,105,77z"/>
			<path class="st28" d="M98.1,90.3c-0.1,0-0.1,0-0.1-0.1c0-0.1,0-0.2,0.1-0.2c4-2.3,7.8-3.2,11.7-2.6c0.1,0,0.1,0.1,0.1,0.2
				c0,0.1-0.1,0.1-0.2,0.1C105.9,87.2,102.1,88,98.1,90.3C98.1,90.3,98.1,90.3,98.1,90.3z"/>
			<path class="st28" d="M97,92.8c-0.1,0-0.1-0.1-0.2-0.1c-0.1-2.2-0.9-4.3-2.7-6.8c0-0.1,0-0.2,0-0.2c0.1,0,0.2,0,0.2,0
				c1.8,2.5,2.6,4.7,2.8,6.9C97.1,92.7,97.1,92.8,97,92.8C97,92.8,97,92.8,97,92.8z"/>
			<path class="st28" d="M100.8,84.7c-0.1,0-0.1-0.1-0.2-0.1c-0.2-2.7-1.4-4.8-2.5-6.6c0-0.1,0-0.2,0-0.2c0.1,0,0.2,0,0.2,0
				c1.1,1.7,2.4,4.1,2.5,6.8C100.9,84.6,100.9,84.7,100.8,84.7C100.8,84.7,100.8,84.7,100.8,84.7z"/>
			<path class="st28" d="M93,103.1c0,0-0.1,0-0.1,0c-0.2-0.1-0.2-0.2-0.2-0.4c5-13.9,9.7-22.5,15.8-32c0.1-0.1,0.3-0.2,0.4-0.1
				c0.1,0.1,0.2,0.3,0.1,0.4c-6,9.4-10.7,18.1-15.7,31.9C93.2,103,93.1,103.1,93,103.1z"/>
		</g>
	</g>
	<g>
		<path class="st32" d="M73.7,102.6c0,0.1,0,0.3,0,0.4c0,7.6,2.9,14.2,7.3,17.9h15.5c4.4-3.7,7.3-10.3,7.3-17.9c0-0.2,0-0.3,0-0.4
			H73.7z"/>
		<path class="st33" d="M81,120.9h15.5c4.4-3.7,7.3-10.3,7.3-17.9c0-0.2,0-0.3,0-0.4h-3.8c-0.2,5.3-2.1,10.3-9.5,11.6
			C84.1,115.2,81.6,118.8,81,120.9C81,120.9,81,120.9,81,120.9z"/>
		<path class="st32" d="M103.3,104H74.2c-0.3,0-0.6-0.3-0.6-0.6v-0.1c0-0.3,0.3-0.6,0.6-0.6h29.1c0.3,0,0.6,0.3,0.6,0.6v0.1
			C103.9,103.7,103.7,104,103.3,104z"/>
		<path class="st34" d="M103.7,104.6c0-0.2,0-0.4,0-0.7h-30c0,0.2,0,0.4,0,0.7H103.7z"/>
	</g>
</g>
<path class="st35" d="M149.2,112.4c-0.4,0.5-0.8,0.8-1.2,0.9l-0.1,0.1c0,0,0.1,0.1,0.1,0.1c0.3,0.3,1-0.1,1.6-0.8
	c0.5-0.7,0.7-1.4,0.3-1.7c0,0-0.1,0-0.1-0.1l0,0.1C149.8,111.3,149.6,111.8,149.2,112.4z"/>
<path class="st35" d="M155.6,103.3c-0.3,0.5-0.7,0.9-1.1,1l0,0.1c0,0,0.1,0.1,0.1,0.1c0.4,0.2,1-0.2,1.5-0.9
	c0.4-0.7,0.5-1.5,0.1-1.7c0,0-0.1,0-0.1,0l0,0.1C156.1,102.3,155.9,102.8,155.6,103.3z"/>
</svg>
