<?xml version="1.0" encoding="utf-8"?>
<svg version="1.1" id="Layer_1" xmlns="http://www.w3.org/2000/svg" xmlns:xlink="http://www.w3.org/1999/xlink" x="0" y="0" viewBox="0 0 305 200" style="enable-background:new 0 0 305 200;" xml:space="preserve">
<style type="text/css">
	.st0{opacity:0.1;fill:#33C5A0;stroke:#33C5A0;stroke-miterlimit:10;}
	.st1{opacity:0.1;fill:#1397B9;stroke:#1397B9;stroke-miterlimit:10;}
	.st2{opacity:8.000000e-02;}
	.st3{fill:#5F697A;}
	.st4{fill:#4E5763;}
	.st5{fill:#1397B9;}
	.st6{fill:#5AB6CE;}
	.st7{fill:#2BA1C0;}
	.st8{fill:#A5AEBD;}
	.st9{fill:#78869D;}
	.st10{fill:#8E9AAD;}
	.st11{fill:#D2D7DE;}
	.st12{fill:#EFF1F4;}
	.st13{fill:#9AA4B5;}
	.st14{fill:#293F63;}
	.st15{fill:#1E355B;}
	.st16{fill:#71C1D5;}
	.st17{fill:#61728C;}
	.st18{fill:#CC9E7A;}
	.st19{fill:#F4D0A9;}
	.st20{opacity:0.6;fill:url(#SVGID_1_);}
	.st21{fill:#34B87B;}
	.st22{fill:#9ADBBD;}
	.st23{opacity:0.3;}
	.st24{fill:#3E7BA1;}
	.st25{opacity:0.1;}
	.st26{opacity:0.7;}
	.st27{font-family:'Roboto-Black';}
	.st28{font-size:8.2018px;}
	.st29{opacity:0.5;}
	.st30{fill:#70D6BC;}
	.st31{fill:#33C5A0;}
	.st32{fill:none;stroke:#49B282;stroke-width:0.5;stroke-miterlimit:10;}
	.st33{fill:#66D3B8;}
	.st34{fill:#6ED6BC;}
	.st35{fill:#4B5D7C;}
	.st36{opacity:0.6;fill:#4B5D7C;}
	.st37{fill:#996C3D;}
</style>
<path class="st0" d="M38.6,91.4c19,59.8-20.6,81.8,7.9,104.1c22.1,17.3,65.2-21,106.4-24.7c27.3-2.5,57.8,26.8,87.5,26.8
	c36.8,0,62.3-31.1,63.7-71.4c2.7-79.8-91.5-60.5-139.8-73.3C109.9,38.6,87.4-16.3,47.5,4.7C30.2,13.8,22,39.2,38.6,91.4z"/>
<path class="st1" d="M263.7,102c-36.3-59.2-13.8-77.8-42.3-89.4c-28.8-11.8-44.2,37.8-81.2,43.4c-25.9,3.9-52.3-22.9-89.6-16
	C16,46.5-6.7,84.4,1.8,121.6c16.3,71.2,90.4,33.7,137.8,34c53.3,0.2,89.1,55.8,127.8,24.5C282,168.2,289.8,144.6,263.7,102z"/>
<ellipse class="st2" cx="120.7" cy="183.2" rx="31.6" ry="3.5"/>
<g>
	<g>
		<path class="st3" d="M121.1,148.8c0,0,3.1,14.1,0,23.5h3.6c0,0,3-7.1,0.3-23.4L121.1,148.8z"/>
		<path class="st3" d="M129,174.6h-12.7l0,0c0-1.3,1-2.3,2.3-2.3h8C128,172.3,129,173.3,129,174.6L129,174.6z"/>
		<path class="st3" d="M141.7,177.8h-38.4l0,0c0-1.8,1.5-3.3,3.3-3.3h31.8C140.2,174.5,141.7,176,141.7,177.8L141.7,177.8z"/>
		<ellipse class="st4" cx="104.6" cy="180.7" rx="3.1" ry="2.7"/>
		<ellipse class="st4" cx="140.4" cy="180.7" rx="3.1" ry="2.7"/>
	</g>
</g>
<path class="st5" d="M134.8,146.4l-23.7,6.9c-0.9,0.3-1.9-0.3-2.1-1.2l0,0c-0.3-0.9,0.3-1.9,1.2-2.1l23.7-6.9
	c0.9-0.3,1.9,0.3,2.1,1.2l0,0C136.2,145.1,135.7,146.1,134.8,146.4z"/>
<path class="st6" d="M133.1,137.2l-25.8,7.6c-1.9,0.6-3,2.6-2.5,4.5l0,0c0.6,1.9,2.6,3,4.5,2.5l25.8-7.6c1.9-0.6,3-2.6,2.5-4.5l0,0
	C137.1,137.8,135.1,136.7,133.1,137.2z"/>
<ellipse class="st2" cx="193.6" cy="183.2" rx="31.6" ry="3.5"/>
<path class="st7" d="M113.9,145.3l-0.5-1.1c-2.7,0.5-4.6,1.3-5.4,1.7C109.8,145.4,111.7,145.4,113.9,145.3z"/>
<path class="st7" d="M133.4,139.1c0.1,0,0.1,0,0.2,0c-0.9,0-2.9,0.1-5.5,0.8l0,1.3C130.1,140.2,131.9,139.3,133.4,139.1z"/>
<g>
	<rect x="169.9" y="129.5" class="st8" width="47.4" height="53.6"/>
	<rect x="167.7" y="125.3" class="st9" width="51.8" height="4.2"/>
	<g>
		<path class="st10" d="M213.9,152.1h-40.6c-0.5,0-1-0.4-1-1V135c0-0.5,0.4-1,1-1h40.6c0.5,0,1,0.4,1,1v16.1
			C214.8,151.7,214.4,152.1,213.9,152.1z"/>
		<path class="st11" d="M213.9,151.4h-40.6c-0.5,0-1-0.4-1-1v-16.1c0-0.5,0.4-1,1-1h40.6c0.5,0,1,0.4,1,1v16.1
			C214.8,151,214.4,151.4,213.9,151.4z"/>
		<g>
			<path class="st12" d="M198,143.1h-8.7l0,0c0-1.4,1.1-2.4,2.4-2.4h3.8C196.9,140.6,198,141.7,198,143.1L198,143.1z"/>
			<rect x="189.4" y="143.1" class="st8" width="8.7" height="0.6"/>
		</g>
	</g>
	<g>
		<path class="st10" d="M213.9,173.1h-40.6c-0.5,0-1-0.4-1-1V156c0-0.5,0.4-1,1-1h40.6c0.5,0,1,0.4,1,1v16.1
			C214.8,172.7,214.4,173.1,213.9,173.1z"/>
		<path class="st11" d="M213.9,172.4h-40.6c-0.5,0-1-0.4-1-1v-16.1c0-0.5,0.4-1,1-1h40.6c0.5,0,1,0.4,1,1v16.1
			C214.8,172,214.4,172.4,213.9,172.4z"/>
		<g>
			<path class="st12" d="M198,164.1h-8.7l0,0c0-1.4,1.1-2.4,2.4-2.4h3.8C196.9,161.6,198,162.7,198,164.1L198,164.1z"/>
			<rect x="189.4" y="164.1" class="st8" width="8.7" height="0.6"/>
		</g>
	</g>
	<rect x="169.9" y="129.4" class="st13" width="47.3" height="0.6"/>
</g>
<path class="st14" d="M124.2,127.4c-0.9,0.1-1.9,0.1-2.8,0c-1.7-0.2-3.9-0.6-5.8-1.3c-2.4,0.6-4.1,2-4.2,3.7c-0.1,2.4,3,4.5,7.1,4.8
	c4,0.2,7.4-1.6,7.5-4C126.1,129.4,125.4,128.3,124.2,127.4z"/>
<path class="st15" d="M186.7,119.7l-17.4-3.1l-21.2-4c-3.7-0.7-7.5,1.8-7.3,6.4c0.1,1.5,5,3.3,10.2,5c6.1,1.9,13.7,0.9,17.7,0.9
	c3.9,0,16.9,0.5,16.9,0.5c1.8,0.3,3.8-0.4,3.9-2.3C189.6,121.4,188.3,120,186.7,119.7z"/>
<path class="st16" d="M187.1,126.5c2.2,0.1,4.5,1.2,6.6,1.3c0.3-0.1,0.4-0.4,0.5-0.8c1.4-5.8,2.9-11.7,4.3-17.5
	c0.2-0.8,0.1-1-0.7-0.9c-0.8,0.1-1.4,0.2-2,0.9c-2.1,2.4-4.3,4.7-6.4,7.1c-0.4,0.4-0.8,0.6-1.3,0.8c-0.7,0.3-1.3,0.5-2,0.8
	c-0.3,0.9,0.1,1.5,0.7,2c0.4,0.4,0.6,0.7,0.5,1.3c-0.3,1.6-0.6,2.2-0.8,3.8C186.5,125.8,186.3,126.5,187.1,126.5z"/>
<path class="st14" d="M175,120.9l-14.7-9.8l-17.9-12.2c-3.1-2.1-7.8-1.1-9.7,3c-1.9,4.1-15.4,35.2-15.4,35.2l18.3-3.3
	c0,0,3.9-18.2,4.9-23.3c4.8,4.5,12.7,5.8,16.3,7.4s14.8,7.8,14.8,7.8c1.5,1,3.7,1.1,4.5-0.6C176.9,123.6,176.3,121.8,175,120.9z"/>
<path class="st15" d="M150.1,114.1c-1.5-2-4.7-2.3-8.5,0.2c-2.4,1.6-12.4,9.4-21,15.3c-0.4,0-3.2,0.5-3.6,0.5
	c-6.9-0.3-12.7,3.1-12.9,7.5s5.3,8.2,12.3,8.4c4.4,0.2,8.3-1.1,10.7-3.2l0.1,0c0,0,18.8-18.5,22.4-22.3
	C150.9,119.1,151.7,116.2,150.1,114.1z"/>
<path class="st16" d="M170.4,125.6c2,0.8,3.7,2.7,5.7,3.5c0.4,0,0.5-0.3,0.7-0.5c3.4-5,6.8-9.9,10.2-14.9c0.5-0.7,0.4-0.9-0.4-1.1
	c-0.7-0.2-1.4-0.3-2.2,0.1c-2.8,1.5-5.7,2.9-8.5,4.4c-0.5,0.3-1,0.3-1.5,0.3c-0.7,0-1.4,0-2.1,0.1c-0.6,0.7-0.4,1.4,0,2.1
	c0.3,0.5,0.3,0.9,0,1.4c-0.8,1.4-1.3,1.8-2.1,3.3C170,124.7,169.6,125.3,170.4,125.6z"/>
<path class="st6" d="M115.1,133l-15.3,9.2c-2,1.2-5,0.6-6.9-1.4L78,125.1c-2.3-2.4-2.2-5.7,0.1-7.2L97,106.5c2.4-1.4,6-0.3,7.7,2.4
	l11.4,17.8C117.5,129.1,117.1,131.7,115.1,133z"/>
<path class="st3" d="M116.9,143.6"/>
<polygon class="st4" points="121.2,150.3 121.7,152.5 125.4,151.7 125.1,149.2 "/>
<path class="st17" d="M103.1,109c-1-2.4,2.8-17.3,2.8-17.3c0.8-3.1-0.7-6.9-5.6-6.2l-18.7,3.3c-1.3,0.1-2.4,6.6,0.9,6.6l14.5-2
	l-2.5,9.1c-0.7,0.5-1.3,1.2-1.7,2c-0.4,0.9-0.6,1.8-0.5,2.6l-7,5.2l-0.4,0.1c-0.5-0.1-1.1-0.2-1.7-0.2c-1.5,0-2.8,0.5-3.7,1.2
	l-7.8,1.4l3.5-13.1c0.5-3.2-6.1-3.8-6.4-2.5l-6.2,18.8c-0.9,2.6,0,5.9,4,5.7l13-1c1.3-0.1,2.4,0.5,3.1,1.6c7.5,12,22.8,18.4,24.2,19
	c8.1-5,12-16.6,12-16.6C110.5,123.6,105.4,114.6,103.1,109z"/>
<ellipse transform="matrix(0.7803 -0.6255 0.6255 0.7803 -48.7802 79.4955)" class="st18" cx="88.7" cy="109.2" rx="5.1" ry="6.5"/>
<g>
	<path class="st19" d="M88.3,87.5c-0.5,0.3-0.5,0.3-0.5,0.3l0,0C83.5,83.4,76.6,84,72,87.8c-5.7,4.6-7.6,9.6-3.5,16.2
		c0.2,0.3,0.4,0.7,0.7,1l0,0c0,0-0.3,0.2-0.7,0.6c-0.7,0.8-1.5,2.2,1,3.7c3.7,2.3,5.1,0.3,5.1,0.3c4.1,2.3,26.1,13.5,17.2-14.9
		c-0.1-0.2-0.1-0.4-0.2-0.7l0,0c0,0,2-0.7,0.3-4.7C90.7,86.5,89.2,86.9,88.3,87.5z"/>
	
		<linearGradient id="SVGID_1_" gradientUnits="userSpaceOnUse" x1="1252.3849" y1="-3211.6462" x2="1252.7041" y2="-3204.0762" gradientTransform="matrix(0.8002 -0.5997 0.5997 0.8002 1004.4554 3419.6152)">
		<stop  offset="0" style="stop-color:#EFB89A;stop-opacity:0"/>
		<stop  offset="1" style="stop-color:#E08F79;stop-opacity:0.8"/>
	</linearGradient>
	<path class="st20" d="M81.6,99.5l6.6,4.5c0.5,0.4,0.8,1,0.8,1.6l-0.1,1.5c0,0.8-0.7,1.4-1.5,1.3l-1.5-0.2c-0.7-0.1-1.3-0.5-1.5-1.2
		L81.6,99.5z"/>
</g>
<path class="st15" d="M75.1,72.2c0.2,10.5-5.1,7.7-5.7,14.4c-1.8-1-2.6-5.2-2.6-5.2c-4.3,10.5-2.7,16.1-1.3,19.2
	c1.5,3.2,3.1,4.8,3.1,4.8s0.3-0.2,0.5-0.3c1.1,0.8,4.1,4,7.3,5.4c-2.1-2-3-3.4-3.7-4.5c-1.8-2.9-1.5-4.7,0.1-7.2
	c1.9,1.1,5.4,0.4,7.2-1.3c2.3-2.1,2.6-4,2-6.2c3.7-1.2,6,0.1,7.7,2c0.8,0.9,2.3,2.9,2.9,4.4c-1.5-7-4.2-8.7-4.8-9.4
	c0-0.1,0.2-0.3,0.3-0.5c0,0-1.3-2.1-3.7-2.2C84.7,80.4,75.1,72.2,75.1,72.2z"/>
<ellipse transform="matrix(0.6952 -0.7188 0.7188 0.6952 -56.7273 108.5142)" class="st21" cx="99.6" cy="121.2" rx="5.4" ry="5.7"/>
<g>
	<g>
		<path class="st22" d="M97.9,123.9c0-0.1,0-0.1,0-0.2c-0.1-1.1-0.2-2.2-0.4-3.3c0-0.1,0-0.2,0-0.2c0.4-0.8,0.8-1.6,1.3-2.4
			c0.3,1.3,0.5,2.5,0.8,3.8c1.2-0.2,2.5-0.4,3.7-0.6c-0.5,0.6-0.9,1.1-1.3,1.6c-0.2,0.2-0.3,0.5-0.6,0.7c-0.2,0.1-0.6,0.1-0.9,0.2
			c-0.8,0.1-1.6,0.3-2.4,0.4C98,123.9,98,123.9,97.9,123.9z"/>
	</g>
</g>
<g>
	<g class="st23">
		<g>
			<path class="st24" d="M102.4,56.9l4.6-0.8l0.3,1.8l-7.4,1.2l-0.2-1l3.3-7.9l-4.5,0.8l-0.3-1.8l7.4-1.2l0.2,1L102.4,56.9z"/>
		</g>
	</g>
	<g class="st25">
		<g>
			<path class="st24" d="M111.7,38.1l5.7-3.1l1.2,2.2l-9.3,5.1l-0.7-1.3l0.7-12l-5.6,3.1l-1.2-2.2l9.2-5l0.7,1.3L111.7,38.1z"/>
		</g>
	</g>
	<g class="st26">
		<text transform="matrix(0.9606 -0.2778 0.2778 0.9606 92.9026 78.4182)" class="st24 st27 st28">Z</text>
	</g>
	<g class="st29">
		<g>
			<path class="st24" d="M93.3,62.7l3-1.4l0.5,1.2l-4.8,2.2l-0.3-0.7l0.8-6l-2.9,1.3l-0.5-1.2l4.8-2.2l0.3,0.7L93.3,62.7z"/>
		</g>
	</g>
</g>
<path class="st6" d="M107.5,147.4c1.4,1.3,4.1,1.2,5.8,0.9c3.3-0.5,6.2-1,9.4-1.7c2.4-0.6,5.2-1.8,7.3-3.3c1.8-1.2,3.5-2.3,5.4-3.1
	c0-0.8,0.2-1.6-2.1-1.1c-3.1,0.6-7.3,3.5-13,5.1c-7.2,2.1-10.9,0.3-15.1,2.7C105.7,147.1,107.1,147.1,107.5,147.4z"/>
<g>
	<g>
		<path class="st30" d="M198.6,79.2c-3.1,1.3-4.4,8.1-2.7,12.7c1.5,4.1,5.6,7.7,9.8,5.6c5-2.5,5.5-7.4,2.7-11.5
			C206.1,82.5,201.5,78,198.6,79.2z"/>
		<path class="st31" d="M205.8,97l-0.3,0c0-3.2,1.7-7.2,3.8-9.3l0.2,0.2C207.4,90,205.8,93.8,205.8,97z"/>
		<g>
			<path class="st31" d="M204.5,94.4c-0.5-0.6-1.1-1.1-1.8-1.5c-2.2-1.4-4.9-2.5-7.4-3l0.1-0.3c2.6,0.5,5.3,1.7,7.5,3
				c0.7,0.4,1.3,0.9,1.8,1.5L204.5,94.4z"/>
			<path class="st31" d="M202.4,89c-0.1-1.9,1.5-5.2,3.3-6.5l0.2,0.2c-1.7,1.2-3.3,4.4-3.2,6.2L202.4,89z"/>
			<path class="st31" d="M201.3,86.4c-1.7-1.2-3.6-1.8-5.8-2.1l0-0.3c2.3,0.3,4.2,0.9,5.9,2.1L201.3,86.4z"/>
			<path class="st31" d="M208.7,106c-2.1-5.7-7.5-19.7-10.6-26.5l0.5-0.3c3.1,6.9,8.5,20.9,10.6,26.6L208.7,106z"/>
		</g>
	</g>
	<g>
		<path class="st31" d="M220.4,62.6c-4.7-0.6-11.4,6.5-12.7,13.4c-1.2,6.2,1.4,13.2,8.1,14.1c7.9,1,12.5-5.8,12-12.8
			C227.5,71.2,224.9,63.2,220.4,62.6z"/>
		<g>
			<g>
				<path class="st32" d="M216.8,85.6c2.6-3.4,6.8-6.1,11.1-6.7"/>
				<path class="st32" d="M218.4,75.4c1.6-2,5.3-3.9,8.2-5.3"/>
				<path class="st32" d="M219,71.9c-1-2.9-3.1-5-4.9-6.7"/>
				<path class="st32" d="M209.5,71.1c3.1,2.7,6.2,5.4,8.2,9"/>
				<path class="st32" d="M216.2,89.8c-2.3-3.6-5.2-7.2-8.6-9.5"/>
				
					<rect x="194.8" y="84.2" transform="matrix(0.1543 -0.988 0.988 0.1543 100.073 285.8367)" class="st31" width="44.3" height="0.6"/>
			</g>
			<g>
				<path class="st33" d="M216.9,85.7l-0.2-0.2c2.7-3.6,7-6.2,11.2-6.8l0,0.3C223.8,79.6,219.6,82.2,216.9,85.7z"/>
				<path class="st33" d="M218.5,75.5l-0.2-0.2c1.3-1.6,4.1-3.4,8.2-5.3l0.1,0.3C222.6,72.1,219.8,73.9,218.5,75.5z"/>
				<path class="st33" d="M218.8,71.9c-1-2.8-3-4.9-4.9-6.6l0.2-0.2c1.9,1.7,4,3.8,5,6.7L218.8,71.9z"/>
				<path class="st33" d="M217.5,80.2c-2-3.5-5.1-6.3-8.1-8.9l-0.1,0l0.2-0.2l0.1,0c3,2.7,6.2,5.4,8.2,9L217.5,80.2z"/>
				<path class="st33" d="M216,89.9c-1.8-2.9-4.8-6.8-8.6-9.4l0.2-0.2c3.8,2.6,6.8,6.6,8.7,9.5L216,89.9z"/>
				
					<rect x="204.4" y="76" transform="matrix(0.1543 -0.988 0.988 0.1543 109.204 280.1993)" class="st33" width="27.8" height="0.6"/>
			</g>
		</g>
	</g>
	<g>
		<path class="st34" d="M238.8,77.1c-3-2-11,2.5-15.1,8.3c-3.7,5.3-5.2,12.4-0.9,15.2c5,3.3,11.4-1.5,14.4-8
			C239.8,87,241.7,79,238.8,77.1z"/>
		<g>
			<path class="st31" d="M229.6,87.5c0,0-0.1,0-0.1,0c-0.1-0.1-0.1-0.2,0-0.2c1.9-2.1,6.7-1.9,10.1-1.6c0.1,0,0.1,0.1,0.1,0.2
				c0,0.1-0.1,0.1-0.2,0.1c-3.3-0.3-8-0.4-9.8,1.5C229.7,87.5,229.6,87.5,229.6,87.5z"/>
			<path class="st31" d="M235.1,80c-0.1,0-0.1,0-0.1-0.1c0-0.1,0-0.2,0.1-0.2c1.2-0.6,3.3-0.7,4.9-0.6c0.1,0,0.1,0.1,0.1,0.2
				c0,0.1-0.1,0.2-0.2,0.1C238.7,79.4,236.4,79.4,235.1,80C235.2,80,235.2,80,235.1,80z"/>
			<path class="st31" d="M233.1,82.7C233.1,82.7,233.1,82.7,233.1,82.7c-0.1,0-0.2-0.1-0.1-0.2c0.3-1.5,0-2.9-0.8-4.2
				c0-0.1,0-0.2,0-0.2c0.1,0,0.2,0,0.2,0c0.8,1.3,1.1,2.9,0.9,4.4C233.2,82.6,233.2,82.7,233.1,82.7z"/>
			<path class="st31" d="M224.7,95c-0.1,0-0.1,0-0.1-0.1c0-0.1,0-0.2,0.1-0.2c4.2-1.9,8.1-2.2,12-1.2c0.1,0,0.1,0.1,0.1,0.2
				c0,0.1-0.1,0.1-0.2,0.1C232.8,92.8,228.9,93.2,224.7,95C224.7,95,224.7,95,224.7,95z"/>
			<path class="st31" d="M223.3,97.4C223.3,97.4,223.3,97.4,223.3,97.4c-0.1,0-0.2-0.1-0.2-0.2c0.1-2.2-0.5-4.4-1.9-7
				c0-0.1,0-0.2,0.1-0.2c0.1,0,0.2,0,0.2,0.1c1.5,2.7,2.1,4.9,2,7.2C223.5,97.3,223.4,97.4,223.3,97.4z"/>
			<path class="st31" d="M228,89.8C228,89.8,228,89.8,228,89.8c-0.1,0-0.2-0.1-0.2-0.2c0.1-2.7-0.8-5-1.7-6.9c0-0.1,0-0.2,0.1-0.2
				c0.1,0,0.2,0,0.2,0.1c0.9,1.8,1.9,4.3,1.8,7C228.2,89.8,228.1,89.8,228,89.8z"/>
			<path class="st31" d="M218.2,107.2c0,0-0.1,0-0.1,0c-0.1-0.1-0.2-0.3-0.1-0.4c6.5-13.2,12.2-21.3,19.3-30c0.1-0.1,0.3-0.1,0.4,0
				c0.1,0.1,0.1,0.3,0,0.4c-7,8.7-12.7,16.7-19.2,29.9C218.4,107.1,218.3,107.2,218.2,107.2z"/>
		</g>
	</g>
	<g>
		<path class="st17" d="M199.1,104.5c0,0.1,0,0.3-0.1,0.4c-0.9,7.5,1.3,14.5,5.2,18.6l15.4,1.7c4.7-3.1,8.4-9.4,9.2-17
			c0-0.1,0-0.3,0-0.4L199.1,104.5z"/>
		<path class="st35" d="M204.3,123.6l15.4,1.7c4.7-3.1,8.4-9.4,9.2-17c0-0.1,0-0.3,0-0.4l-3.8-0.4c-0.8,5.2-3.3,10-10.8,10.4
			C208,118.2,205.1,121.5,204.3,123.6C204.2,123.5,204.3,123.5,204.3,123.6z"/>
		<path class="st17" d="M228.4,109.2l-29-3.3c-0.3,0-0.6-0.4-0.6-0.7l0-0.1c0-0.3,0.4-0.6,0.7-0.6l29,3.3c0.3,0,0.6,0.4,0.6,0.7
			l0,0.1C229,109,228.7,109.3,228.4,109.2z"/>
		<path class="st36" d="M228.7,109.9c0-0.2,0.1-0.4,0.1-0.7l-29.8-3.4c0,0.2,0,0.4,0,0.7L228.7,109.9z"/>
	</g>
</g>
<path class="st37" d="M79.6,106.3c-0.6,0.4-1.2,0.7-1.5,0.7l-0.1,0.1c0,0,0,0.1,0.1,0.1c0.3,0.3,1.1,0.1,1.9-0.5
	c0.8-0.6,1.2-1.3,0.9-1.7c0,0-0.1-0.1-0.1-0.1l-0.1,0.1C80.6,105.4,80.3,105.9,79.6,106.3z"/>
<path class="st37" d="M88.5,99.1c-0.5,0.4-1,0.8-1.4,0.8L87,100c0,0,0,0.1,0.1,0.1c0.3,0.3,1.1,0,1.8-0.6s1-1.4,0.7-1.7
	c0,0-0.1,0-0.1-0.1l-0.1,0.1C89.4,98.1,89,98.6,88.5,99.1z"/>
<path class="st15" d="M148.1,112.7c3.5,1,5.6,3.5,8.6,5.1c1.8,0.9-0.5,4.1-0.5,4.1l-8.3-0.3L148.1,112.7z"/>
</svg>
