<?xml version="1.0" encoding="utf-8"?>
<!-- Generator: Adobe Illustrator 23.0.6, SVG Export Plug-In . SVG Version: 6.00 Build 0)  -->
<svg version="1.1" id="Layer_1" xmlns="http://www.w3.org/2000/svg" xmlns:xlink="http://www.w3.org/1999/xlink" x="0px" y="0px"
	 width="305px" height="200px" viewBox="0 0 305 200" style="enable-background:new 0 0 305 200;" xml:space="preserve">
<style type="text/css">
	.st0{opacity:0.1;}
	.st1{fill:#33C5A0;}
	.st2{fill:#1397B9;}
	.st3{opacity:0.8;fill:#FFFFFF;enable-background:new    ;}
	.st4{opacity:0.2;fill:#A8ACB5;enable-background:new    ;}
	.st5{fill:#FFFFFF;}
	.st6{fill:#89CBDC;}
	.st7{fill:#D0EAF1;}
	.st8{opacity:4.000000e-02;}
	.st9{opacity:0.4;fill:#BBC2CE;enable-background:new    ;}
	.st10{opacity:0.16;fill:#99E2CF;enable-background:new    ;}
	.st11{opacity:0.7;fill:#BBC2CE;enable-background:new    ;}
	.st12{opacity:0.6;}
	.st13{opacity:6.000000e-02;}
	.st14{opacity:8.000000e-02;enable-background:new    ;}
	.st15{fill:#29374E;}
	.st16{opacity:0.3;}
	.st17{fill:#5F697A;}
	.st18{opacity:0.3;fill:#5F697A;enable-background:new    ;}
	.st19{opacity:0;}
	.st20{fill:#EDBE9A;}
	.st21{fill:#63C593;}
	.st22{fill:#AA6017;}
	.st23{fill:#ADE8D9;}
	.st24{fill:#70D6BC;}
</style>
<g class="st0">
	<path class="st1" d="M53.1,77.4c13.3,63.6-31.4,87.3-8.6,107.2c23,20.2,67.7-28.5,107.8-26.5c26.5,1.3,53.3,27,81.8,30.6
		c35.4,4.5,64.2-14.5,69.3-49.5c9.8-67.1-81.9-59.6-126.6-76.2C126.5,44.3,120.5-10.9,72.9,2.7C55,7.9,43.5,31.7,53.1,77.4z"/>
	<path class="st1" d="M58.9,189.8c-5.2,0-9.9-1.5-13.9-5c-10.8-9.5-6.5-20-0.5-34.6c6.8-16.5,16.1-39.1,9-72.8
		c-4.5-21.6-4.7-39.3-0.4-52.7C56.9,12.9,63.9,5.2,73.5,2.5c27.5-7.9,41.3,7.2,57.4,24.7c11.9,12.9,25.3,27.6,46.6,35.6
		c11.6,4.3,26.2,7,41.7,9.8c22.1,4,44.9,8.2,61.6,17.6c19,10.7,26.7,26.8,23.4,49.1c-2.5,17.1-10.6,30.8-23.4,39.8
		c-12.6,8.8-28.5,12.2-46.2,10c-13.9-1.8-27.5-8.8-40.6-15.6c-14.2-7.4-27.6-14.3-41.2-15c-18.1-0.9-37.6,8.9-54.8,17.4
		C83.3,183.2,69.9,189.8,58.9,189.8z M54,77.4c7.1,33.8-2.2,56.5-9.1,73.1c-6.1,14.9-10.2,24.8,0.4,34c12.4,10.9,31,1.6,52.5-9.1
		c17.3-8.6,36.9-18.4,55.1-17.5c13.7,0.7,27.2,7.7,41.4,15c13.1,6.8,26.6,13.8,40.4,15.6c17.5,2.2,33.3-1.2,45.8-9.9
		c12.7-8.9,20.7-22.5,23.2-39.4c3.2-22.1-4.4-38-23.2-48.6c-16.6-9.4-39.4-13.5-61.4-17.5c-15.5-2.8-30.2-5.5-41.8-9.8
		c-21.5-8-35-22.7-46.9-35.7C114.6,10.2,100.9-4.8,73.7,3c-9.4,2.7-16.3,10.3-20.1,22C49.4,38.2,49.5,55.9,54,77.4z"/>
</g>
<g class="st0">
	<path class="st2" d="M267.2,110.6c-28.6-54.3-0.5-72.9-27.5-86.3c-27.4-13.6-52.5,31.9-90.4,31.9c-26.5,0-49.5-25.9-87.9-24.9
		c-35.7,0.9-63.6,29.8-60,62.1c6.9,61.8,86.3,39.9,134,46.2c53.6,7.1,82,58.3,125.1,36.9C276.8,168.5,287.8,149.6,267.2,110.6z"/>
	<path class="st2" d="M239.5,182c-16,0-30.7-8.8-47-18.5s-34.7-20.7-57.2-23.7c-11.9-1.6-25.7-1.4-40.2-1.2
		c-21.4,0.3-43.5,0.6-61-4.9c-19.9-6.3-30.6-19.5-33-40.3c-1.7-15.4,3.8-31,15.1-42.8c11.5-12,27.9-19.2,45.1-19.6
		c21.3-0.5,38.1,7.2,52.9,14.1c11.9,5.5,23.2,10.8,35,10.8l0,0c17.8,0,33-10.3,46.5-19.3c15.8-10.6,29.4-19.8,44-12.5
		c13.5,6.7,13.4,14.5,13.4,27.5c-0.1,13.3-0.2,31.5,14.3,59c9.4,17.9,12.9,32.9,10.5,44.7c-2,9.6-7.8,16.8-17.3,21.5
		C253.2,180.4,246.3,182,239.5,182z M109.7,138c9.2,0,17.8,0.3,25.7,1.3c22.6,3,41.1,14,57.4,23.7c16.2,9.7,30.8,18.4,46.7,18.4
		c6.7,0,13.5-1.5,20.9-5.2c9.3-4.6,15-11.7,17-21.2c2.4-11.7-1.1-26.6-10.4-44.4c-14.5-27.6-14.4-45.9-14.4-59.2
		c0.1-12.8,0.1-20.5-13.1-27c-14.3-7.1-27.8,2-43.4,12.5c-13.5,9.1-28.9,19.4-46.8,19.4l0,0c-11.9,0-23.3-5.3-35.3-10.8
		c-14.7-6.7-31.4-14.5-52.6-14C44.4,32,28.1,39,16.7,50.9C5.5,62.7,0,78.1,1.7,93.4C4,114,14.7,127,34.3,133.3
		c17.4,5.5,39.5,5.2,60.8,4.9C100.1,138.1,105,138,109.7,138z"/>
</g>
<rect x="64.2" y="34.2" class="st3" width="43.9" height="28.2"/>
<rect x="64.2" y="69.7" class="st3" width="94" height="56.6"/>
<rect x="164.5" y="34.3" class="st3" width="43.9" height="92.1"/>
<rect x="215.3" y="34.2" class="st3" width="43.9" height="28.2"/>
<rect x="215.3" y="69.7" class="st3" width="43.9" height="56.6"/>
<path class="st4" d="M157.7,34.6h-42.9c-0.6,0-1,0.5-1,1v27.2c0,0.6,0.5,1,1,1h42.9c0.6,0,1-0.5,1-1V35.6
	C158.7,35.1,158.2,34.6,157.7,34.6z"/>
<g>
	<g>
		<g>
			<g>
				<g>
					<g>
						<g>
							<g>
								<path class="st5" d="M100.5,173.8l18.9-35c0.3-0.6,1-0.8,1.6-0.5l22.8,12.3c0.6,0.3,0.8,1,0.5,1.6l-18.9,35
									c-0.3,0.6-1,0.8-1.6,0.5L101,175.5C100.4,175.1,100.2,174.4,100.5,173.8z"/>
							</g>
						</g>
						<path class="st6" d="M122.4,187l1.7,0.9c0.5,0.2,1,0.1,1.3-0.4l19.1-35.5c0.2-0.4,0.1-1-0.4-1.2l-1.7-0.9L122.4,187z"/>
					</g>
				</g>
			</g>
		</g>
		<g>
			<ellipse transform="matrix(0.475 -0.88 0.88 0.475 -98.5508 207.2536)" class="st7" cx="124.4" cy="186.2" rx="0.6" ry="0.6"/>
		</g>
		<g>
			<ellipse transform="matrix(0.475 -0.88 0.88 0.475 -96.5997 207.1565)" class="st7" cx="125.3" cy="184.5" rx="0.6" ry="0.6"/>
		</g>
		<g>
			<ellipse class="st7" cx="142.9" cy="152" rx="0.6" ry="0.6"/>
		</g>
	</g>
	<g class="st8">
		<path d="M120.4,138.2c0.2,0,0.4,0,0.6,0.1l22.8,12.3c0.6,0.3,0.8,1,0.5,1.6l-18.9,35c-0.2,0.4-0.6,0.6-1,0.6c-0.2,0-0.4,0-0.6-0.1
			L101,175.5c-0.6-0.4-0.8-1.1-0.5-1.7l18.9-35C119.6,138.4,120,138.2,120.4,138.2 M120.4,137.7L120.4,137.7c-0.6,0-1.2,0.4-1.5,0.9
			l-18.9,35c-0.4,0.8-0.1,1.8,0.7,2.4l22.8,12.2c0.3,0.1,0.5,0.2,0.8,0.2c0.6,0,1.2-0.4,1.5-0.9l18.9-35c0.2-0.4,0.3-0.9,0.1-1.3
			c-0.1-0.4-0.4-0.8-0.8-1l-22.8-12.3C121,137.7,120.7,137.7,120.4,137.7L120.4,137.7z"/>
	</g>
	<g>
		<g>
			<g>
				<g>
					<g>
						<g>
							<g>
								<path class="st5" d="M100,171.7l20.4-34.1c0.3-0.6,1.1-0.8,1.6-0.4l22.3,13.3c0.6,0.3,0.8,1.1,0.4,1.6l-20.4,34.1
									c-0.3,0.6-1.1,0.8-1.6,0.4l-22.3-13.3C99.9,173,99.7,172.3,100,171.7z"/>
							</g>
						</g>
						<path class="st6" d="M121.3,185.8l1.6,1c0.4,0.3,1,0.1,1.3-0.3l20.7-34.6c0.3-0.4,0.1-1-0.3-1.3l-1.6-1L121.3,185.8z"/>
					</g>
				</g>
			</g>
		</g>
		<g>
			<ellipse class="st7" cx="123.4" cy="185.1" rx="0.6" ry="0.6"/>
		</g>
		<g>
			<ellipse class="st7" cx="124.3" cy="183.5" rx="0.6" ry="0.6"/>
		</g>
		<g>
			<ellipse class="st7" cx="143.3" cy="151.8" rx="0.6" ry="0.6"/>
		</g>
		<g>
			<g>
				
					<rect x="110.4" y="165.5" transform="matrix(0.5145 -0.8575 0.8575 0.5145 -79.4804 190.6797)" class="st9" width="36.4" height="0.1"/>
				
					<rect x="106.7" y="163.3" transform="matrix(0.5145 -0.8575 0.8575 0.5145 -79.401 186.4042)" class="st9" width="36.4" height="0.1"/>
				<path class="st10" d="M115.2,178.8c1.3-0.1,2.8-0.5,3.4-1.6c1.7-2.8-3.2-8-1.3-11c1.9-3,6.9-1.5,8.5-4.4s-3-10.8-1.1-13.8
					c1.4-2.3,3.2-2.1,5.5-2.7l-7.3-4.4l-18.7,31.2L115.2,178.8z"/>
				
					<rect x="102.9" y="161" transform="matrix(0.5145 -0.8575 0.8575 0.5145 -79.3218 182.032)" class="st9" width="36.4" height="0.1"/>
				
					<rect x="99.1" y="158.8" transform="matrix(0.5145 -0.8575 0.8575 0.5145 -79.2369 177.6566)" class="st9" width="36.4" height="0.1"/>
				<polygon class="st11" points="104.3,172.2 104.1,172.1 122.8,140.9 123,141 				"/>
				<path class="st1" d="M115.2,179c-0.1,0-0.2-0.1-0.2-0.2c0-0.1,0.1-0.2,0.2-0.2c1.2-0.1,2.7-0.5,3.3-1.5c0.8-1.3,0.1-3.1-0.7-5.1
					c-0.8-2.1-1.6-4.3-0.6-5.9c1-1.6,2.8-2,4.5-2.3c1.7-0.4,3.2-0.7,4-2s0.1-4-0.6-6.5c-0.7-2.8-1.5-5.7-0.5-7.3
					c1.1-1.9,3.1-2.3,4.8-2.6c0.3-0.1,0.6-0.1,0.8-0.2c0.1,0,0.2,0,0.2,0.1s0,0.2-0.1,0.2c-0.3,0.1-0.6,0.1-0.8,0.2
					c-1.6,0.3-3.5,0.7-4.5,2.4c-0.9,1.5-0.1,4.3,0.6,7s1.4,5.3,0.6,6.8s-2.6,1.9-4.3,2.2c-1.6,0.4-3.3,0.7-4.3,2.2
					c-0.9,1.4-0.1,3.5,0.7,5.5c0.8,2,1.5,4,0.7,5.5C118.3,178.2,117,178.8,115.2,179L115.2,179z"/>
				<g class="st12">
					<path class="st2" d="M135.7,148.8c-0.1,0-0.1,0-0.1-0.1l-0.1-0.1c0,0,0,0,0-0.1c0,0,0,0,0-0.1c0.1-0.1,0.1-0.1,0.2,0
						c0,0,0,0,0.1,0c0,0,0,0,0,0.1c0,0,0,0,0,0.1s0,0.1-0.1,0.1C135.8,148.7,135.8,148.8,135.7,148.8L135.7,148.8z"/>
					<path class="st2" d="M113.8,177.3c0-0.1,0-0.2,0.1-0.2l0,0c0.1,0,0.2,0,0.2,0.1l0,0c0,0.1,0,0.2-0.1,0.2l0,0l0,0l0,0l0,0l0,0
						C113.9,177.5,113.9,177.4,113.8,177.3z M114.8,177c0-0.1,0-0.2,0.1-0.3l0,0c0.1,0,0.2,0,0.3,0.1l0,0c0,0.1,0,0.2-0.1,0.3l0,0
						H115l0,0C114.9,177.1,114.9,177.1,114.8,177z M115.7,176.5c-0.1-0.1-0.1-0.2,0-0.3l0,0c0.1-0.1,0.2-0.1,0.3,0l0,0
						c0.1,0.1,0.1,0.2,0,0.3l0,0h-0.1l0,0C115.8,176.6,115.8,176.6,115.7,176.5z M116.5,175.8c-0.1-0.1-0.1-0.2,0-0.3l0,0
						c0.1-0.1,0.2-0.1,0.3,0l0,0c0.1,0.1,0.1,0.2,0,0.3l0,0l0,0l0,0c0,0.1-0.1,0.1-0.2,0.1l0,0C116.6,175.8,116.5,175.8,116.5,175.8
						z M117,174.9c-0.1,0-0.2-0.1-0.1-0.2l0,0c0-0.1,0.1-0.2,0.2-0.1l0,0c0.1,0,0.2,0.1,0.1,0.2l0,0
						C117.2,174.8,117.1,174.9,117,174.9L117,174.9L117,174.9z M116.9,173.7c0-0.1,0.1-0.2,0.2-0.2l0,0c0.1,0,0.2,0.1,0.2,0.2l0,0
						c0,0.1-0.1,0.2-0.2,0.2l0,0l0,0l0,0C117,173.9,116.9,173.8,116.9,173.7z M116.8,172.7L116.8,172.7c0-0.1,0.1-0.2,0.2-0.2l0,0
						c0.1,0,0.2,0.1,0.2,0.2l0,0l0,0l0,0c0,0.1-0.1,0.2-0.2,0.2l0,0l0,0l0,0C116.9,172.8,116.8,172.8,116.8,172.7z M116.6,171.7
						c0-0.1,0-0.2,0.2-0.2l0,0c0.1,0,0.2,0,0.2,0.1l0,0c0,0.1,0,0.2-0.2,0.2l0,0l0,0l0,0C116.7,171.8,116.7,171.7,116.6,171.7z
						 M116.4,170.7c0-0.1,0-0.2,0.1-0.2l0,0c0.1,0,0.2,0,0.2,0.1l0,0l0,0l0,0c0,0.1,0,0.2-0.1,0.2l0,0c0,0,0,0-0.1,0l0,0
						L116.4,170.7z M116.1,169.7L116.1,169.7c0-0.1,0-0.2,0.1-0.2l0,0c0.1,0,0.2,0,0.2,0.1l0,0c0,0.1,0,0.2-0.1,0.2l0,0
						c0,0,0,0-0.1,0l0,0C116.2,169.8,116.2,169.7,116.1,169.7z M115.8,168.7c0-0.1,0-0.2,0.1-0.2l0,0c0.1,0,0.2,0,0.2,0.1l0,0l0,0
						l0,0c0,0.1,0,0.2-0.1,0.2l0,0c0,0,0,0-0.1,0l0,0C115.9,168.8,115.9,168.7,115.8,168.7z M115.6,167.6c0-0.1,0-0.2,0.1-0.2l0,0
						c0.1,0,0.2,0,0.2,0.1l0,0c0,0.1,0,0.2-0.1,0.2l0,0c0,0,0,0-0.1,0l0,0C115.7,167.8,115.6,167.7,115.6,167.6z M115.3,166.6
						c0-0.1,0-0.2,0.1-0.2l0,0c0.1,0,0.2,0,0.2,0.1l0,0c0,0.1,0,0.2-0.1,0.2l0,0l0,0l0,0C115.4,166.8,115.3,166.7,115.3,166.6z
						 M115.1,165.6c0-0.1,0-0.2,0.2-0.2l0,0c0.1,0,0.2,0,0.2,0.2l0,0c0,0.1,0,0.2-0.2,0.2l0,0l0,0l0,0
						C115.1,165.8,115.1,165.7,115.1,165.6z M114.9,164.6L114.9,164.6c0-0.1,0.1-0.2,0.2-0.2l0,0c0.1,0,0.2,0.1,0.2,0.2l0,0l0,0l0,0
						c0,0.1-0.1,0.2-0.2,0.2l0,0l0,0l0,0C115,164.7,114.9,164.7,114.9,164.6z M114.8,163.5c0-0.1,0.1-0.2,0.2-0.2l0,0
						c0.1,0,0.2,0.1,0.2,0.2l0,0c0,0.1-0.1,0.2-0.2,0.2l0,0C114.9,163.7,114.8,163.6,114.8,163.5z M115,162.7
						c-0.1,0-0.2-0.1-0.1-0.2l0,0c0-0.1,0.1-0.2,0.2-0.1l0,0c0.1,0,0.2,0.1,0.2,0.2l0,0l0,0l0,0C115.3,162.6,115.2,162.7,115,162.7
						L115,162.7C115.1,162.7,115.1,162.7,115,162.7z M115.4,161.7c-0.1-0.1-0.1-0.2-0.1-0.3l0,0c0.1-0.1,0.2-0.1,0.3-0.1l0,0
						c0.1,0.1,0.1,0.2,0.1,0.3l0,0l0,0l0,0c0,0.1-0.1,0.1-0.2,0.1l0,0C115.4,161.7,115.4,161.7,115.4,161.7z M116,160.9
						c-0.1-0.1-0.1-0.2,0-0.3l0,0c0.1-0.1,0.2-0.1,0.3,0l0,0c0.1,0.1,0.1,0.2,0,0.3l0,0l0,0l0,0h-0.1l0,0
						C116.1,161,116.1,160.9,116,160.9z M116.9,160.3c0-0.1,0-0.2,0.1-0.3l0,0c0.1,0,0.2,0,0.3,0.1l0,0c0,0.1,0,0.2-0.1,0.3l0,0l0,0
						l0,0h-0.1l0,0C117,160.4,116.9,160.4,116.9,160.3z M117.8,159.9c0-0.1,0-0.2,0.1-0.2l0,0c0.1,0,0.2,0,0.2,0.1l0,0
						c0,0.1,0,0.2-0.1,0.2l0,0c0,0,0,0-0.1,0l0,0C117.9,160.1,117.9,160,117.8,159.9z M118.9,159.7c0-0.1,0.1-0.2,0.2-0.2l0,0
						c0.1,0,0.2,0.1,0.2,0.2l0,0c0,0.1-0.1,0.2-0.2,0.2l0,0l0,0l0,0C118.9,159.8,118.9,159.8,118.9,159.7z M119.9,159.5
						c0-0.1,0.1-0.2,0.2-0.2l0,0c0.1,0,0.2,0.1,0.2,0.2l0,0c0,0.1-0.1,0.2-0.2,0.2l0,0l0,0l0,0C120,159.7,119.9,159.6,119.9,159.5z
						 M120.9,159.4c0-0.1,0.1-0.2,0.2-0.2l0,0c0.1,0,0.2,0.1,0.2,0.2l0,0c0,0.1-0.1,0.2-0.2,0.2l0,0l0,0l0,0
						C121,159.6,120.9,159.5,120.9,159.4z M121.9,159.3c0-0.1,0.1-0.2,0.2-0.2l0,0c0.1,0,0.2,0.1,0.2,0.2l0,0c0,0.1-0.1,0.2-0.2,0.2
						l0,0l0,0l0,0l0,0l0,0C122,159.5,122,159.4,121.9,159.3z M123,159.2c0-0.1,0.1-0.2,0.2-0.2l0,0c0.1,0,0.2,0.1,0.2,0.2l0,0
						c0,0.1-0.1,0.2-0.2,0.2l0,0l0,0l0,0C123.1,159.4,123,159.3,123,159.2z M124,159.1c0-0.1,0.1-0.2,0.2-0.2l0,0
						c0.1,0,0.2,0.1,0.2,0.2l0,0c0,0.1-0.1,0.2-0.2,0.2l0,0l0,0l0,0C124.1,159.3,124,159.2,124,159.1z M125.1,159
						c0-0.1,0-0.2,0.2-0.2l0,0c0.1,0,0.2,0,0.2,0.2l0,0c0,0.1,0,0.2-0.2,0.2l0,0l0,0l0,0l0,0l0,0C125.2,159.1,125.1,159.1,125.1,159
						z M126.1,158.7c0-0.1,0-0.2,0.1-0.3l0,0c0.1,0,0.2,0,0.3,0.1l0,0c0,0.1,0,0.2-0.1,0.3l0,0c0,0,0,0-0.1,0l0,0
						C126.2,158.9,126.1,158.8,126.1,158.7z M127,158.3c-0.1-0.1,0-0.2,0-0.3l0,0c0.1-0.1,0.2-0.1,0.3,0l0,0c0.1,0.1,0,0.2,0,0.3
						l0,0h-0.1l0,0C127.1,158.4,127,158.3,127,158.3z M127.7,157.6c-0.1-0.1-0.1-0.2-0.1-0.3l0,0c0.1-0.1,0.2-0.1,0.3-0.1l0,0
						c0.1,0.1,0.1,0.2,0.1,0.3l0,0l0,0l0,0C128,157.6,127.9,157.6,127.7,157.6L127.7,157.6C127.8,157.6,127.8,157.6,127.7,157.6z
						 M128.2,156.6c-0.1,0-0.2-0.1-0.1-0.2l0,0c0-0.1,0.1-0.2,0.2-0.1l0,0c0.1,0,0.2,0.1,0.1,0.2l0,0
						C128.4,156.6,128.3,156.6,128.2,156.6L128.2,156.6L128.2,156.6z M128.3,155.6c-0.1,0-0.2-0.1-0.2-0.2l0,0
						c0-0.1,0.1-0.2,0.2-0.2l0,0c0.1,0,0.2,0.1,0.2,0.2l0,0C128.5,155.5,128.4,155.6,128.3,155.6L128.3,155.6L128.3,155.6z
						 M128.1,154.4c0-0.1,0.1-0.2,0.2-0.2l0,0c0.1,0,0.2,0.1,0.2,0.2l0,0c0,0.1-0.1,0.2-0.2,0.2l0,0l0,0l0,0
						C128.2,154.6,128.1,154.5,128.1,154.4z M127.9,153.4c0-0.1,0-0.2,0.2-0.2l0,0c0.1,0,0.2,0,0.2,0.2l0,0l0,0l0,0
						c0,0.1-0.1,0.2-0.2,0.2l0,0l0,0l0,0C128,153.5,127.9,153.5,127.9,153.4z M127.7,152.3L127.7,152.3c0-0.1,0.1-0.2,0.2-0.2l0,0
						c0.1,0,0.2,0.1,0.2,0.2l0,0l0,0l0,0c0,0.1-0.1,0.2-0.2,0.2l0,0l0,0l0,0C127.8,152.5,127.7,152.4,127.7,152.3z M127.8,151.5
						c-0.1,0-0.2-0.1-0.2-0.2l0,0c0-0.1,0.1-0.2,0.2-0.2l0,0c0.1,0,0.2,0.1,0.2,0.2l0,0C128,151.4,128,151.5,127.8,151.5
						L127.8,151.5C127.9,151.5,127.9,151.5,127.8,151.5z M128,150.5c-0.1,0-0.2-0.2-0.1-0.3l0,0c0-0.1,0.2-0.1,0.3-0.1l0,0
						c0.1,0,0.2,0.2,0.1,0.3l0,0C128.2,150.4,128.2,150.5,128,150.5L128,150.5C128.1,150.5,128,150.5,128,150.5z M128.5,149.5
						c-0.1-0.1-0.1-0.2,0-0.3l0,0c0.1-0.1,0.2-0.1,0.3,0l0,0c0.1,0.1,0.1,0.2,0,0.3l0,0l-0.1,0.1l0,0
						C128.6,149.6,128.6,149.6,128.5,149.5z M129.4,148.9c0-0.1,0-0.2,0.1-0.3l0,0c0.1,0,0.2,0,0.3,0.1l0,0c0,0.1,0,0.2-0.1,0.3l0,0
						h-0.1l0,0C129.5,149,129.4,149,129.4,148.9z M130.3,148.6c0-0.1,0-0.2,0.1-0.2l0,0c0.1,0,0.2,0,0.2,0.1l0,0
						c0,0.1,0,0.2-0.1,0.2l0,0c0,0,0,0-0.1,0l0,0C130.4,148.7,130.3,148.6,130.3,148.6z M134.6,148.6L134.6,148.6L134.6,148.6
						c-0.1,0-0.2-0.1-0.2-0.2l0,0c0-0.1,0.1-0.2,0.2-0.2l0,0c0.1,0,0.2,0.1,0.2,0.2l0,0C134.8,148.5,134.7,148.6,134.6,148.6
						L134.6,148.6L134.6,148.6z M131.3,148.3c0-0.1,0.1-0.2,0.2-0.2l0,0c0.1,0,0.2,0.1,0.2,0.2l0,0c0,0.1-0.1,0.2-0.2,0.2l0,0l0,0
						l0,0C131.4,148.5,131.4,148.4,131.3,148.3z M133.6,148.4c-0.1,0-0.2-0.1-0.2-0.2l0,0c0-0.1,0.1-0.2,0.2-0.2l0,0
						c0.1,0,0.2,0.1,0.2,0.2l0,0C133.8,148.4,133.7,148.4,133.6,148.4L133.6,148.4L133.6,148.4z M132.4,148.2c0-0.1,0.1-0.2,0.2-0.2
						l0,0c0.1,0,0.2,0.1,0.2,0.2l0,0c0,0.1-0.1,0.2-0.2,0.2l0,0l0,0l0,0C132.5,148.4,132.4,148.4,132.4,148.2z"/>
					<path class="st2" d="M113,177.6c-0.1,0-0.1,0-0.1-0.1c0,0,0,0,0-0.1c0,0,0,0,0-0.1s0-0.1,0.1-0.1c0.1-0.1,0.2-0.1,0.3,0
						l0.1,0.1v0.1c0,0,0,0,0,0.1C113.1,177.6,113.1,177.6,113,177.6L113,177.6z"/>
				</g>
				<circle class="st1" cx="125.8" cy="161.9" r="0.5"/>
			</g>
		</g>
	</g>
	<g class="st13">
		<path d="M121.4,137c0.2,0,0.4,0.1,0.6,0.2l22.3,13.3c0.6,0.3,0.8,1.1,0.4,1.6l-20.4,34.1c-0.2,0.4-0.6,0.6-1,0.6
			c-0.2,0-0.4-0.1-0.6-0.2l-22.3-13.3c-0.5-0.3-0.7-1-0.4-1.6l20.4-34.1C120.6,137.2,121,137,121.4,137 M121.4,136.5L121.4,136.5
			c-0.6,0-1.2,0.3-1.4,0.9l-20.4,34.1c-0.4,0.9-0.2,1.8,0.6,2.3l22.3,13.3c0.3,0.2,0.6,0.3,0.9,0.3c0.6,0,1.2-0.3,1.4-0.9l20.4-34
			c0.3-0.3,0.4-0.8,0.3-1.2c-0.1-0.5-0.4-0.9-0.8-1.1l-22.2-13.3C122,136.6,121.7,136.5,121.4,136.5L121.4,136.5z"/>
	</g>
</g>
<path class="st14" d="M182,197.2c0,1.3-14.5,2.3-32.3,2.3s-32.3,0-32.3-1.3s14.5-3.3,32.3-3.3S182,195.9,182,197.2z"/>
<path class="st15" d="M159.9,148.9l-14.3,1.7v2.9l0,0c-1.1,6.4-0.9,12.9-0.4,19.3l-0.1,19.8l2.7,0.2c0,0,0.4-3,1.1-7.3
	c0.4-3.2,1-6.1,0.9-9.7c0.5-4.7,1.1-8.5,1.2-9.1c0.2-1.7,0.4-5.6,1.6-5.7c1.3,0,1.1,8.5,1.2,13.2c0,1.2-0.4,3.7-0.7,5.9
	c-0.5,3.4-0.3,6.4-0.4,7.6c-0.1,1.7-0.5,6.1-0.5,6.1l3.1-0.9c0.9-6.7,2.2-12.5,3-18c1.6-6.4,2.1-16.4,1.8-23.3
	C159.9,149.7,159.9,148.9,159.9,148.9z"/>
<g class="st12">
	<g class="st16">
		<path class="st17" d="M108.1,35.8c-0.3,0-0.5-0.2-0.5-0.5v-0.5H107c-0.3,0-0.5-0.2-0.5-0.5s0.2-0.5,0.5-0.5h1
			c0.3,0,0.5,0.2,0.5,0.5v1C108.6,35.6,108.4,35.8,108.1,35.8z"/>
		<path class="st17" d="M105,34.8h-2c-0.3,0-0.5-0.2-0.5-0.5s0.2-0.5,0.5-0.5h2c0.3,0,0.5,0.2,0.5,0.5S105.3,34.8,105,34.8z
			 M101.1,34.8h-2c-0.3,0-0.5-0.2-0.5-0.5s0.2-0.5,0.5-0.5h2c0.3,0,0.5,0.2,0.5,0.5S101.4,34.8,101.1,34.8z M97.1,34.8h-2
			c-0.3,0-0.5-0.2-0.5-0.5s0.2-0.5,0.5-0.5h2c0.3,0,0.5,0.2,0.5,0.5S97.4,34.8,97.1,34.8z M93.1,34.8h-2c-0.3,0-0.5-0.2-0.5-0.5
			s0.2-0.5,0.5-0.5h2c0.3,0,0.5,0.2,0.5,0.5S93.4,34.8,93.1,34.8z M89.1,34.8h-2c-0.3,0-0.5-0.2-0.5-0.5s0.2-0.5,0.5-0.5h2
			c0.3,0,0.5,0.2,0.5,0.5S89.4,34.8,89.1,34.8z M85.1,34.8h-2c-0.3,0-0.5-0.2-0.5-0.5s0.2-0.5,0.5-0.5h2c0.3,0,0.5,0.2,0.5,0.5
			S85.4,34.8,85.1,34.8z M81.2,34.8h-2c-0.3,0-0.5-0.2-0.5-0.5s0.2-0.5,0.5-0.5h2c0.3,0,0.5,0.2,0.5,0.5S81.4,34.8,81.2,34.8z
			 M77.2,34.8h-2c-0.3,0-0.5-0.2-0.5-0.5s0.2-0.5,0.5-0.5h2c0.3,0,0.5,0.2,0.5,0.5S77.5,34.8,77.2,34.8z M73.2,34.8h-2
			c-0.3,0-0.5-0.2-0.5-0.5s0.2-0.5,0.5-0.5h2c0.3,0,0.5,0.2,0.5,0.5S73.5,34.8,73.2,34.8z M69.2,34.8h-2c-0.3,0-0.5-0.2-0.5-0.5
			s0.2-0.5,0.5-0.5h2c0.3,0,0.5,0.2,0.5,0.5S69.5,34.8,69.2,34.8z"/>
		<path class="st17" d="M64.2,35.8c-0.3,0-0.5-0.2-0.5-0.5v-1c0-0.3,0.2-0.5,0.5-0.5h1c0.3,0,0.5,0.2,0.5,0.5s-0.2,0.5-0.5,0.5h-0.5
			v0.5C64.7,35.6,64.5,35.8,64.2,35.8z"/>
		<path class="st17" d="M64.2,59.9c-0.3,0-0.5-0.2-0.5-0.5v-2c0-0.3,0.2-0.5,0.5-0.5c0.3,0,0.5,0.2,0.5,0.5v2
			C64.7,59.7,64.5,59.9,64.2,59.9z M64.2,55.9c-0.3,0-0.5-0.2-0.5-0.5v-2c0-0.3,0.2-0.5,0.5-0.5c0.3,0,0.5,0.2,0.5,0.5v2
			C64.7,55.7,64.5,55.9,64.2,55.9z M64.2,51.9c-0.3,0-0.5-0.2-0.5-0.5v-2c0-0.3,0.2-0.5,0.5-0.5c0.3,0,0.5,0.2,0.5,0.5v2
			C64.7,51.7,64.5,51.9,64.2,51.9z M64.2,47.9c-0.3,0-0.5-0.2-0.5-0.5v-2c0-0.3,0.2-0.5,0.5-0.5c0.3,0,0.5,0.2,0.5,0.5v2
			C64.7,47.6,64.5,47.9,64.2,47.9z M64.2,43.9c-0.3,0-0.5-0.2-0.5-0.5v-2c0-0.3,0.2-0.5,0.5-0.5c0.3,0,0.5,0.2,0.5,0.5v2
			C64.7,43.6,64.5,43.9,64.2,43.9z M64.2,39.8c-0.3,0-0.5-0.2-0.5-0.5v-2c0-0.3,0.2-0.5,0.5-0.5c0.3,0,0.5,0.2,0.5,0.5v2
			C64.7,39.6,64.5,39.8,64.2,39.8z"/>
		<path class="st17" d="M65.2,63h-1c-0.3,0-0.5-0.2-0.5-0.5v-1c0-0.3,0.2-0.5,0.5-0.5c0.3,0,0.5,0.2,0.5,0.5V62h0.5
			c0.3,0,0.5,0.2,0.5,0.5S65.5,63,65.2,63z"/>
		<path class="st17" d="M105,63h-2c-0.3,0-0.5-0.2-0.5-0.5s0.2-0.5,0.5-0.5h2c0.3,0,0.5,0.2,0.5,0.5S105.3,63,105,63z M101.1,63h-2
			c-0.3,0-0.5-0.2-0.5-0.5s0.2-0.5,0.5-0.5h2c0.3,0,0.5,0.2,0.5,0.5S101.4,63,101.1,63z M97.1,63h-2c-0.3,0-0.5-0.2-0.5-0.5
			s0.2-0.5,0.5-0.5h2c0.3,0,0.5,0.2,0.5,0.5S97.4,63,97.1,63z M93.1,63h-2c-0.3,0-0.5-0.2-0.5-0.5s0.2-0.5,0.5-0.5h2
			c0.3,0,0.5,0.2,0.5,0.5S93.4,63,93.1,63z M89.1,63h-2c-0.3,0-0.5-0.2-0.5-0.5s0.2-0.5,0.5-0.5h2c0.3,0,0.5,0.2,0.5,0.5
			S89.4,63,89.1,63z M85.1,63h-2c-0.3,0-0.5-0.2-0.5-0.5s0.2-0.5,0.5-0.5h2c0.3,0,0.5,0.2,0.5,0.5S85.4,63,85.1,63z M81.2,63h-2
			c-0.3,0-0.5-0.2-0.5-0.5s0.2-0.5,0.5-0.5h2c0.3,0,0.5,0.2,0.5,0.5S81.4,63,81.2,63z M77.2,63h-2c-0.3,0-0.5-0.2-0.5-0.5
			s0.2-0.5,0.5-0.5h2c0.3,0,0.5,0.2,0.5,0.5S77.5,63,77.2,63z M73.2,63h-2c-0.3,0-0.5-0.2-0.5-0.5s0.2-0.5,0.5-0.5h2
			c0.3,0,0.5,0.2,0.5,0.5S73.5,63,73.2,63z M69.2,63h-2c-0.3,0-0.5-0.2-0.5-0.5s0.2-0.5,0.5-0.5h2c0.3,0,0.5,0.2,0.5,0.5
			S69.5,63,69.2,63z"/>
		<path class="st17" d="M108.1,63h-1c-0.3,0-0.5-0.2-0.5-0.5s0.2-0.5,0.5-0.5h0.5v-0.5c0-0.3,0.2-0.5,0.5-0.5s0.5,0.2,0.5,0.5v1
			C108.6,62.8,108.4,63,108.1,63z"/>
		<path class="st17" d="M108.1,59.9c-0.3,0-0.5-0.2-0.5-0.5v-2c0-0.3,0.2-0.5,0.5-0.5s0.5,0.2,0.5,0.5v2
			C108.6,59.7,108.4,59.9,108.1,59.9z M108.1,55.9c-0.3,0-0.5-0.2-0.5-0.5v-2c0-0.3,0.2-0.5,0.5-0.5s0.5,0.2,0.5,0.5v2
			C108.6,55.7,108.4,55.9,108.1,55.9z M108.1,51.9c-0.3,0-0.5-0.2-0.5-0.5v-2c0-0.3,0.2-0.5,0.5-0.5s0.5,0.2,0.5,0.5v2
			C108.6,51.7,108.4,51.9,108.1,51.9z M108.1,47.9c-0.3,0-0.5-0.2-0.5-0.5v-2c0-0.3,0.2-0.5,0.5-0.5s0.5,0.2,0.5,0.5v2
			C108.6,47.6,108.4,47.9,108.1,47.9z M108.1,43.9c-0.3,0-0.5-0.2-0.5-0.5v-2c0-0.3,0.2-0.5,0.5-0.5s0.5,0.2,0.5,0.5v2
			C108.6,43.6,108.4,43.9,108.1,43.9z M108.1,39.8c-0.3,0-0.5-0.2-0.5-0.5v-2c0-0.3,0.2-0.5,0.5-0.5s0.5,0.2,0.5,0.5v2
			C108.6,39.6,108.4,39.8,108.1,39.8z"/>
	</g>
	<polygon class="st18" points="90.3,47.8 86.7,47.8 86.7,44.2 85.6,44.2 85.6,47.8 82,47.8 82,48.9 85.6,48.9 85.6,52.5 86.7,52.5 
		86.7,48.9 90.3,48.9 	"/>
	<polygon class="st18" points="140.4,47.8 136.7,47.8 136.7,44.2 135.7,44.2 135.7,47.8 132,47.8 132,48.9 135.7,48.9 135.7,52.5 
		136.7,52.5 136.7,48.9 140.4,48.9 	"/>
	<polygon class="st18" points="241.5,47.8 237.8,47.8 237.8,44.2 236.8,44.2 236.8,47.8 233.1,47.8 233.1,48.9 236.8,48.9 
		236.8,52.5 237.8,52.5 237.8,48.9 241.5,48.9 	"/>
	<polygon class="st18" points="241.5,97.5 237.8,97.5 237.8,93.8 236.8,93.8 236.8,97.5 233.1,97.5 233.1,98.5 236.8,98.5 
		236.8,102.2 237.8,102.2 237.8,98.5 241.5,98.5 	"/>
	<polygon class="st18" points="190.7,79.5 187.1,79.5 187.1,75.9 186,75.9 186,79.5 182.4,79.5 182.4,80.6 186,80.6 186,84.2 
		187.1,84.2 187.1,80.6 190.7,80.6 	"/>
	<polygon class="st18" points="115.4,97.5 111.7,97.5 111.7,93.9 110.7,93.9 110.7,97.5 107,97.5 107,98.6 110.7,98.6 110.7,102.2 
		111.7,102.2 111.7,98.6 115.4,98.6 	"/>
	<g class="st16">
		<path class="st17" d="M259.2,35.8c-0.3,0-0.5-0.2-0.5-0.5v-0.5h-0.5c-0.3,0-0.5-0.2-0.5-0.5s0.2-0.5,0.5-0.5h1
			c0.3,0,0.5,0.2,0.5,0.5v1C259.7,35.6,259.5,35.8,259.2,35.8z"/>
		<path class="st17" d="M256.1,34.8h-2c-0.3,0-0.5-0.2-0.5-0.5s0.2-0.5,0.5-0.5h2c0.3,0,0.5,0.2,0.5,0.5S256.4,34.8,256.1,34.8z
			 M252.2,34.8h-2c-0.3,0-0.5-0.2-0.5-0.5s0.2-0.5,0.5-0.5h2c0.3,0,0.5,0.2,0.5,0.5S252.4,34.8,252.2,34.8z M248.2,34.8h-2
			c-0.3,0-0.5-0.2-0.5-0.5s0.2-0.5,0.5-0.5h2c0.3,0,0.5,0.2,0.5,0.5S248.5,34.8,248.2,34.8z M244.2,34.8h-2c-0.3,0-0.5-0.2-0.5-0.5
			s0.2-0.5,0.5-0.5h2c0.3,0,0.5,0.2,0.5,0.5S244.5,34.8,244.2,34.8z M240.2,34.8h-2c-0.3,0-0.5-0.2-0.5-0.5s0.2-0.5,0.5-0.5h2
			c0.3,0,0.5,0.2,0.5,0.5S240.5,34.8,240.2,34.8z M236.2,34.8h-2c-0.3,0-0.5-0.2-0.5-0.5s0.2-0.5,0.5-0.5h2c0.3,0,0.5,0.2,0.5,0.5
			S236.5,34.8,236.2,34.8z M232.2,34.8h-2c-0.3,0-0.5-0.2-0.5-0.5s0.2-0.5,0.5-0.5h2c0.3,0,0.5,0.2,0.5,0.5S232.5,34.8,232.2,34.8z
			 M228.3,34.8h-2c-0.3,0-0.5-0.2-0.5-0.5s0.2-0.5,0.5-0.5h2c0.3,0,0.5,0.2,0.5,0.5S228.5,34.8,228.3,34.8z M224.3,34.8h-2
			c-0.3,0-0.5-0.2-0.5-0.5s0.2-0.5,0.5-0.5h2c0.3,0,0.5,0.2,0.5,0.5S224.6,34.8,224.3,34.8z M220.3,34.8h-2c-0.3,0-0.5-0.2-0.5-0.5
			s0.2-0.5,0.5-0.5h2c0.3,0,0.5,0.2,0.5,0.5S220.6,34.8,220.3,34.8z"/>
		<path class="st17" d="M215.3,35.8c-0.3,0-0.5-0.2-0.5-0.5v-1c0-0.3,0.2-0.5,0.5-0.5h1c0.3,0,0.5,0.2,0.5,0.5s-0.2,0.5-0.5,0.5
			h-0.5v0.5C215.8,35.6,215.6,35.8,215.3,35.8z"/>
		<path class="st17" d="M215.3,59.9c-0.3,0-0.5-0.2-0.5-0.5v-2c0-0.3,0.2-0.5,0.5-0.5s0.5,0.2,0.5,0.5v2
			C215.8,59.7,215.6,59.9,215.3,59.9z M215.3,55.9c-0.3,0-0.5-0.2-0.5-0.5v-2c0-0.3,0.2-0.5,0.5-0.5s0.5,0.2,0.5,0.5v2
			C215.8,55.7,215.6,55.9,215.3,55.9z M215.3,51.9c-0.3,0-0.5-0.2-0.5-0.5v-2c0-0.3,0.2-0.5,0.5-0.5s0.5,0.2,0.5,0.5v2
			C215.8,51.7,215.6,51.9,215.3,51.9z M215.3,47.9c-0.3,0-0.5-0.2-0.5-0.5v-2c0-0.3,0.2-0.5,0.5-0.5s0.5,0.2,0.5,0.5v2
			C215.8,47.6,215.6,47.9,215.3,47.9z M215.3,43.9c-0.3,0-0.5-0.2-0.5-0.5v-2c0-0.3,0.2-0.5,0.5-0.5s0.5,0.2,0.5,0.5v2
			C215.8,43.6,215.6,43.9,215.3,43.9z M215.3,39.8c-0.3,0-0.5-0.2-0.5-0.5v-2c0-0.3,0.2-0.5,0.5-0.5s0.5,0.2,0.5,0.5v2
			C215.8,39.6,215.6,39.8,215.3,39.8z"/>
		<path class="st17" d="M216.3,63h-1c-0.3,0-0.5-0.2-0.5-0.5v-1c0-0.3,0.2-0.5,0.5-0.5s0.5,0.2,0.5,0.5V62h0.5
			c0.3,0,0.5,0.2,0.5,0.5S216.6,63,216.3,63z"/>
		<path class="st17" d="M256.1,63h-2c-0.3,0-0.5-0.2-0.5-0.5s0.2-0.5,0.5-0.5h2c0.3,0,0.5,0.2,0.5,0.5S256.4,63,256.1,63z M252.2,63
			h-2c-0.3,0-0.5-0.2-0.5-0.5s0.2-0.5,0.5-0.5h2c0.3,0,0.5,0.2,0.5,0.5S252.4,63,252.2,63z M248.2,63h-2c-0.3,0-0.5-0.2-0.5-0.5
			s0.2-0.5,0.5-0.5h2c0.3,0,0.5,0.2,0.5,0.5S248.5,63,248.2,63z M244.2,63h-2c-0.3,0-0.5-0.2-0.5-0.5s0.2-0.5,0.5-0.5h2
			c0.3,0,0.5,0.2,0.5,0.5S244.5,63,244.2,63z M240.2,63h-2c-0.3,0-0.5-0.2-0.5-0.5s0.2-0.5,0.5-0.5h2c0.3,0,0.5,0.2,0.5,0.5
			S240.5,63,240.2,63z M236.2,63h-2c-0.3,0-0.5-0.2-0.5-0.5s0.2-0.5,0.5-0.5h2c0.3,0,0.5,0.2,0.5,0.5S236.5,63,236.2,63z M232.2,63
			h-2c-0.3,0-0.5-0.2-0.5-0.5s0.2-0.5,0.5-0.5h2c0.3,0,0.5,0.2,0.5,0.5S232.5,63,232.2,63z M228.3,63h-2c-0.3,0-0.5-0.2-0.5-0.5
			s0.2-0.5,0.5-0.5h2c0.3,0,0.5,0.2,0.5,0.5S228.5,63,228.3,63z M224.3,63h-2c-0.3,0-0.5-0.2-0.5-0.5s0.2-0.5,0.5-0.5h2
			c0.3,0,0.5,0.2,0.5,0.5S224.6,63,224.3,63z M220.3,63h-2c-0.3,0-0.5-0.2-0.5-0.5s0.2-0.5,0.5-0.5h2c0.3,0,0.5,0.2,0.5,0.5
			S220.6,63,220.3,63z"/>
		<path class="st17" d="M259.2,63h-1c-0.3,0-0.5-0.2-0.5-0.5s0.2-0.5,0.5-0.5h0.5v-0.5c0-0.3,0.2-0.5,0.5-0.5s0.5,0.2,0.5,0.5v1
			C259.7,62.8,259.5,63,259.2,63z"/>
		<path class="st17" d="M259.2,59.9c-0.3,0-0.5-0.2-0.5-0.5v-2c0-0.3,0.2-0.5,0.5-0.5s0.5,0.2,0.5,0.5v2
			C259.7,59.7,259.5,59.9,259.2,59.9z M259.2,55.9c-0.3,0-0.5-0.2-0.5-0.5v-2c0-0.3,0.2-0.5,0.5-0.5s0.5,0.2,0.5,0.5v2
			C259.7,55.7,259.5,55.9,259.2,55.9z M259.2,51.9c-0.3,0-0.5-0.2-0.5-0.5v-2c0-0.3,0.2-0.5,0.5-0.5s0.5,0.2,0.5,0.5v2
			C259.7,51.7,259.5,51.9,259.2,51.9z M259.2,47.9c-0.3,0-0.5-0.2-0.5-0.5v-2c0-0.3,0.2-0.5,0.5-0.5s0.5,0.2,0.5,0.5v2
			C259.7,47.6,259.5,47.9,259.2,47.9z M259.2,43.9c-0.3,0-0.5-0.2-0.5-0.5v-2c0-0.3,0.2-0.5,0.5-0.5s0.5,0.2,0.5,0.5v2
			C259.7,43.6,259.5,43.9,259.2,43.9z M259.2,39.8c-0.3,0-0.5-0.2-0.5-0.5v-2c0-0.3,0.2-0.5,0.5-0.5s0.5,0.2,0.5,0.5v2
			C259.7,39.6,259.5,39.8,259.2,39.8z"/>
	</g>
	<g class="st16">
		<path class="st17" d="M259.2,71.4c-0.3,0-0.5-0.2-0.5-0.5v-0.5h-0.5c-0.3,0-0.5-0.2-0.5-0.5s0.2-0.5,0.5-0.5h1
			c0.3,0,0.5,0.2,0.5,0.5v1C259.7,71.1,259.5,71.4,259.2,71.4z"/>
		<path class="st17" d="M256.1,70.3h-2c-0.3,0-0.5-0.2-0.5-0.5s0.2-0.5,0.5-0.5h2c0.3,0,0.5,0.2,0.5,0.5S256.4,70.3,256.1,70.3z
			 M252.2,70.3h-2c-0.3,0-0.5-0.2-0.5-0.5s0.2-0.5,0.5-0.5h2c0.3,0,0.5,0.2,0.5,0.5S252.4,70.3,252.2,70.3z M248.2,70.3h-2
			c-0.3,0-0.5-0.2-0.5-0.5s0.2-0.5,0.5-0.5h2c0.3,0,0.5,0.2,0.5,0.5S248.5,70.3,248.2,70.3z M244.2,70.3h-2c-0.3,0-0.5-0.2-0.5-0.5
			s0.2-0.5,0.5-0.5h2c0.3,0,0.5,0.2,0.5,0.5S244.5,70.3,244.2,70.3z M240.2,70.3h-2c-0.3,0-0.5-0.2-0.5-0.5s0.2-0.5,0.5-0.5h2
			c0.3,0,0.5,0.2,0.5,0.5S240.5,70.3,240.2,70.3z M236.2,70.3h-2c-0.3,0-0.5-0.2-0.5-0.5s0.2-0.5,0.5-0.5h2c0.3,0,0.5,0.2,0.5,0.5
			S236.5,70.3,236.2,70.3z M232.2,70.3h-2c-0.3,0-0.5-0.2-0.5-0.5s0.2-0.5,0.5-0.5h2c0.3,0,0.5,0.2,0.5,0.5S232.5,70.3,232.2,70.3z
			 M228.3,70.3h-2c-0.3,0-0.5-0.2-0.5-0.5s0.2-0.5,0.5-0.5h2c0.3,0,0.5,0.2,0.5,0.5S228.5,70.3,228.3,70.3z M224.3,70.3h-2
			c-0.3,0-0.5-0.2-0.5-0.5s0.2-0.5,0.5-0.5h2c0.3,0,0.5,0.2,0.5,0.5S224.6,70.3,224.3,70.3z M220.3,70.3h-2c-0.3,0-0.5-0.2-0.5-0.5
			s0.2-0.5,0.5-0.5h2c0.3,0,0.5,0.2,0.5,0.5S220.6,70.3,220.3,70.3z"/>
		<path class="st17" d="M215.3,71.4c-0.3,0-0.5-0.2-0.5-0.5v-1c0-0.3,0.2-0.5,0.5-0.5h1c0.3,0,0.5,0.2,0.5,0.5s-0.2,0.5-0.5,0.5
			h-0.5v0.5C215.8,71.1,215.6,71.4,215.3,71.4z"/>
		<path class="st17" d="M215.3,123.8c-0.3,0-0.5-0.2-0.5-0.5v-2c0-0.3,0.2-0.5,0.5-0.5s0.5,0.2,0.5,0.5v2
			C215.8,123.6,215.6,123.8,215.3,123.8z M215.3,119.8c-0.3,0-0.5-0.2-0.5-0.5v-2c0-0.3,0.2-0.5,0.5-0.5s0.5,0.2,0.5,0.5v2
			C215.8,119.6,215.6,119.8,215.3,119.8z M215.3,115.8c-0.3,0-0.5-0.2-0.5-0.5v-2c0-0.3,0.2-0.5,0.5-0.5s0.5,0.2,0.5,0.5v2
			C215.8,115.5,215.6,115.8,215.3,115.8z M215.3,111.7c-0.3,0-0.5-0.2-0.5-0.5v-2c0-0.3,0.2-0.5,0.5-0.5s0.5,0.2,0.5,0.5v2
			C215.8,111.5,215.6,111.7,215.3,111.7z M215.3,107.7c-0.3,0-0.5-0.2-0.5-0.5v-2c0-0.3,0.2-0.5,0.5-0.5s0.5,0.2,0.5,0.5v2
			C215.8,107.4,215.6,107.7,215.3,107.7z M215.3,103.6c-0.3,0-0.5-0.2-0.5-0.5v-2c0-0.3,0.2-0.5,0.5-0.5s0.5,0.2,0.5,0.5v2
			C215.8,103.4,215.6,103.6,215.3,103.6z M215.3,99.6c-0.3,0-0.5-0.2-0.5-0.5v-2c0-0.3,0.2-0.5,0.5-0.5s0.5,0.2,0.5,0.5v2
			C215.8,99.4,215.6,99.6,215.3,99.6z M215.3,95.6c-0.3,0-0.5-0.2-0.5-0.5v-2c0-0.3,0.2-0.5,0.5-0.5s0.5,0.2,0.5,0.5v2
			C215.8,95.3,215.6,95.6,215.3,95.6z M215.3,91.5c-0.3,0-0.5-0.2-0.5-0.5v-2c0-0.3,0.2-0.5,0.5-0.5s0.5,0.2,0.5,0.5v2
			C215.8,91.3,215.6,91.5,215.3,91.5z M215.3,87.5c-0.3,0-0.5-0.2-0.5-0.5v-2c0-0.3,0.2-0.5,0.5-0.5s0.5,0.2,0.5,0.5v2
			C215.8,87.3,215.6,87.5,215.3,87.5z M215.3,83.5c-0.3,0-0.5-0.2-0.5-0.5v-2c0-0.3,0.2-0.5,0.5-0.5s0.5,0.2,0.5,0.5v2
			C215.8,83.2,215.6,83.5,215.3,83.5z M215.3,79.4c-0.3,0-0.5-0.2-0.5-0.5v-2c0-0.3,0.2-0.5,0.5-0.5s0.5,0.2,0.5,0.5v2
			C215.8,79.2,215.6,79.4,215.3,79.4z M215.3,75.4c-0.3,0-0.5-0.2-0.5-0.5v-2c0-0.3,0.2-0.5,0.5-0.5s0.5,0.2,0.5,0.5v2
			C215.8,75.2,215.6,75.4,215.3,75.4z"/>
		<path class="st17" d="M216.3,126.9h-1c-0.3,0-0.5-0.2-0.5-0.5v-1c0-0.3,0.2-0.5,0.5-0.5s0.5,0.2,0.5,0.5v0.5h0.5
			c0.3,0,0.5,0.2,0.5,0.5S216.6,126.9,216.3,126.9z"/>
		<path class="st17" d="M256.1,126.9h-2c-0.3,0-0.5-0.2-0.5-0.5s0.2-0.5,0.5-0.5h2c0.3,0,0.5,0.2,0.5,0.5S256.4,126.9,256.1,126.9z
			 M252.2,126.9h-2c-0.3,0-0.5-0.2-0.5-0.5s0.2-0.5,0.5-0.5h2c0.3,0,0.5,0.2,0.5,0.5S252.4,126.9,252.2,126.9z M248.2,126.9h-2
			c-0.3,0-0.5-0.2-0.5-0.5s0.2-0.5,0.5-0.5h2c0.3,0,0.5,0.2,0.5,0.5S248.5,126.9,248.2,126.9z M244.2,126.9h-2
			c-0.3,0-0.5-0.2-0.5-0.5s0.2-0.5,0.5-0.5h2c0.3,0,0.5,0.2,0.5,0.5S244.5,126.9,244.2,126.9z M240.2,126.9h-2
			c-0.3,0-0.5-0.2-0.5-0.5s0.2-0.5,0.5-0.5h2c0.3,0,0.5,0.2,0.5,0.5S240.5,126.9,240.2,126.9z M236.2,126.9h-2
			c-0.3,0-0.5-0.2-0.5-0.5s0.2-0.5,0.5-0.5h2c0.3,0,0.5,0.2,0.5,0.5S236.5,126.9,236.2,126.9z M232.2,126.9h-2
			c-0.3,0-0.5-0.2-0.5-0.5s0.2-0.5,0.5-0.5h2c0.3,0,0.5,0.2,0.5,0.5S232.5,126.9,232.2,126.9z M228.3,126.9h-2
			c-0.3,0-0.5-0.2-0.5-0.5s0.2-0.5,0.5-0.5h2c0.3,0,0.5,0.2,0.5,0.5S228.5,126.9,228.3,126.9z M224.3,126.9h-2
			c-0.3,0-0.5-0.2-0.5-0.5s0.2-0.5,0.5-0.5h2c0.3,0,0.5,0.2,0.5,0.5S224.6,126.9,224.3,126.9z M220.3,126.9h-2
			c-0.3,0-0.5-0.2-0.5-0.5s0.2-0.5,0.5-0.5h2c0.3,0,0.5,0.2,0.5,0.5S220.6,126.9,220.3,126.9z"/>
		<path class="st17" d="M259.2,126.9h-1c-0.3,0-0.5-0.2-0.5-0.5s0.2-0.5,0.5-0.5h0.5v-0.5c0-0.3,0.2-0.5,0.5-0.5s0.5,0.2,0.5,0.5v1
			C259.7,126.7,259.5,126.9,259.2,126.9z"/>
		<path class="st17" d="M259.2,123.8c-0.3,0-0.5-0.2-0.5-0.5v-2c0-0.3,0.2-0.5,0.5-0.5s0.5,0.2,0.5,0.5v2
			C259.7,123.6,259.5,123.8,259.2,123.8z M259.2,119.8c-0.3,0-0.5-0.2-0.5-0.5v-2c0-0.3,0.2-0.5,0.5-0.5s0.5,0.2,0.5,0.5v2
			C259.7,119.6,259.5,119.8,259.2,119.8z M259.2,115.8c-0.3,0-0.5-0.2-0.5-0.5v-2c0-0.3,0.2-0.5,0.5-0.5s0.5,0.2,0.5,0.5v2
			C259.7,115.5,259.5,115.8,259.2,115.8z M259.2,111.7c-0.3,0-0.5-0.2-0.5-0.5v-2c0-0.3,0.2-0.5,0.5-0.5s0.5,0.2,0.5,0.5v2
			C259.7,111.5,259.5,111.7,259.2,111.7z M259.2,107.7c-0.3,0-0.5-0.2-0.5-0.5v-2c0-0.3,0.2-0.5,0.5-0.5s0.5,0.2,0.5,0.5v2
			C259.7,107.4,259.5,107.7,259.2,107.7z M259.2,103.6c-0.3,0-0.5-0.2-0.5-0.5v-2c0-0.3,0.2-0.5,0.5-0.5s0.5,0.2,0.5,0.5v2
			C259.7,103.4,259.5,103.6,259.2,103.6z M259.2,99.6c-0.3,0-0.5-0.2-0.5-0.5v-2c0-0.3,0.2-0.5,0.5-0.5s0.5,0.2,0.5,0.5v2
			C259.7,99.4,259.5,99.6,259.2,99.6z M259.2,95.6c-0.3,0-0.5-0.2-0.5-0.5v-2c0-0.3,0.2-0.5,0.5-0.5s0.5,0.2,0.5,0.5v2
			C259.7,95.3,259.5,95.6,259.2,95.6z M259.2,91.5c-0.3,0-0.5-0.2-0.5-0.5v-2c0-0.3,0.2-0.5,0.5-0.5s0.5,0.2,0.5,0.5v2
			C259.7,91.3,259.5,91.5,259.2,91.5z M259.2,87.5c-0.3,0-0.5-0.2-0.5-0.5v-2c0-0.3,0.2-0.5,0.5-0.5s0.5,0.2,0.5,0.5v2
			C259.7,87.3,259.5,87.5,259.2,87.5z M259.2,83.5c-0.3,0-0.5-0.2-0.5-0.5v-2c0-0.3,0.2-0.5,0.5-0.5s0.5,0.2,0.5,0.5v2
			C259.7,83.2,259.5,83.5,259.2,83.5z M259.2,79.4c-0.3,0-0.5-0.2-0.5-0.5v-2c0-0.3,0.2-0.5,0.5-0.5s0.5,0.2,0.5,0.5v2
			C259.7,79.2,259.5,79.4,259.2,79.4z M259.2,75.4c-0.3,0-0.5-0.2-0.5-0.5v-2c0-0.3,0.2-0.5,0.5-0.5s0.5,0.2,0.5,0.5v2
			C259.7,75.2,259.5,75.4,259.2,75.4z"/>
	</g>
	<g class="st16">
		<path class="st17" d="M208.4,35.8c-0.3,0-0.5-0.2-0.5-0.5v-0.5h-0.5c-0.3,0-0.5-0.2-0.5-0.5s0.2-0.5,0.5-0.5h1
			c0.3,0,0.5,0.2,0.5,0.5v1C209,35.6,208.7,35.8,208.4,35.8z"/>
		<path class="st17" d="M205.4,34.8h-2c-0.3,0-0.5-0.2-0.5-0.5s0.2-0.5,0.5-0.5h2c0.3,0,0.5,0.2,0.5,0.5S205.7,34.8,205.4,34.8z
			 M201.4,34.8h-2c-0.3,0-0.5-0.2-0.5-0.5s0.2-0.5,0.5-0.5h2c0.3,0,0.5,0.2,0.5,0.5S201.7,34.8,201.4,34.8z M197.4,34.8h-2
			c-0.3,0-0.5-0.2-0.5-0.5s0.2-0.5,0.5-0.5h2c0.3,0,0.5,0.2,0.5,0.5S197.7,34.8,197.4,34.8z M193.5,34.8h-2c-0.3,0-0.5-0.2-0.5-0.5
			s0.2-0.5,0.5-0.5h2c0.3,0,0.5,0.2,0.5,0.5S193.8,34.8,193.5,34.8z M189.5,34.8h-2c-0.3,0-0.5-0.2-0.5-0.5s0.2-0.5,0.5-0.5h2
			c0.3,0,0.5,0.2,0.5,0.5S189.8,34.8,189.5,34.8z M185.5,34.8h-2c-0.3,0-0.5-0.2-0.5-0.5s0.2-0.5,0.5-0.5h2c0.3,0,0.5,0.2,0.5,0.5
			S185.8,34.8,185.5,34.8z M181.5,34.8h-2c-0.3,0-0.5-0.2-0.5-0.5s0.2-0.5,0.5-0.5h2c0.3,0,0.5,0.2,0.5,0.5S181.8,34.8,181.5,34.8z
			 M177.5,34.8h-2c-0.3,0-0.5-0.2-0.5-0.5s0.2-0.5,0.5-0.5h2c0.3,0,0.5,0.2,0.5,0.5S177.8,34.8,177.5,34.8z M173.6,34.8h-2
			c-0.3,0-0.5-0.2-0.5-0.5s0.2-0.5,0.5-0.5h2c0.3,0,0.5,0.2,0.5,0.5S173.8,34.8,173.6,34.8z M169.6,34.8h-2c-0.3,0-0.5-0.2-0.5-0.5
			s0.2-0.5,0.5-0.5h2c0.3,0,0.5,0.2,0.5,0.5S169.9,34.8,169.6,34.8z"/>
		<path class="st17" d="M164.5,35.8c-0.3,0-0.5-0.2-0.5-0.5v-1c0-0.3,0.2-0.5,0.5-0.5h1c0.3,0,0.5,0.2,0.5,0.5s-0.2,0.5-0.5,0.5H165
			v0.5C165.1,35.6,164.8,35.8,164.5,35.8z"/>
		<path class="st17" d="M164.5,123.7c-0.3,0-0.5-0.2-0.5-0.5v-2.1c0-0.3,0.2-0.5,0.5-0.5s0.5,0.2,0.5,0.5v2.1
			C165.1,123.5,164.8,123.7,164.5,123.7z M164.5,119.6c-0.3,0-0.5-0.2-0.5-0.5V117c0-0.3,0.2-0.5,0.5-0.5s0.5,0.2,0.5,0.5v2.1
			C165.1,119.3,164.8,119.6,164.5,119.6z M164.5,115.4c-0.3,0-0.5-0.2-0.5-0.5v-2.1c0-0.3,0.2-0.5,0.5-0.5s0.5,0.2,0.5,0.5v2.1
			C165.1,115.1,164.8,115.4,164.5,115.4z M164.5,111.2c-0.3,0-0.5-0.2-0.5-0.5v-2.1c0-0.3,0.2-0.5,0.5-0.5s0.5,0.2,0.5,0.5v2.1
			C165.1,110.9,164.8,111.2,164.5,111.2z M164.5,107c-0.3,0-0.5-0.2-0.5-0.5v-2.1c0-0.3,0.2-0.5,0.5-0.5s0.5,0.2,0.5,0.5v2.1
			C165.1,106.8,164.8,107,164.5,107z M164.5,102.8c-0.3,0-0.5-0.2-0.5-0.5v-2.1c0-0.3,0.2-0.5,0.5-0.5s0.5,0.2,0.5,0.5v2.1
			C165.1,102.6,164.8,102.8,164.5,102.8z M164.5,98.6c-0.3,0-0.5-0.2-0.5-0.5V96c0-0.3,0.2-0.5,0.5-0.5s0.5,0.2,0.5,0.5v2.1
			C165.1,98.4,164.8,98.6,164.5,98.6z M164.5,94.4c-0.3,0-0.5-0.2-0.5-0.5v-2.1c0-0.3,0.2-0.5,0.5-0.5s0.5,0.2,0.5,0.5v2.1
			C165.1,94.2,164.8,94.4,164.5,94.4z M164.5,90.2c-0.3,0-0.5-0.2-0.5-0.5v-2.1c0-0.3,0.2-0.5,0.5-0.5s0.5,0.2,0.5,0.5v2.1
			C165.1,90,164.8,90.2,164.5,90.2z M164.5,86.1c-0.3,0-0.5-0.2-0.5-0.5v-2.1c0-0.3,0.2-0.5,0.5-0.5s0.5,0.2,0.5,0.5v2.1
			C165.1,85.8,164.8,86.1,164.5,86.1z M164.5,81.9c-0.3,0-0.5-0.2-0.5-0.5v-2.1c0-0.3,0.2-0.5,0.5-0.5s0.5,0.2,0.5,0.5v2.1
			C165.1,81.6,164.8,81.9,164.5,81.9z M164.5,77.7c-0.3,0-0.5-0.2-0.5-0.5v-2.1c0-0.3,0.2-0.5,0.5-0.5s0.5,0.2,0.5,0.5v2.1
			C165.1,77.5,164.8,77.7,164.5,77.7z M164.5,73.5c-0.3,0-0.5-0.2-0.5-0.5v-2.1c0-0.3,0.2-0.5,0.5-0.5s0.5,0.2,0.5,0.5V73
			C165.1,73.3,164.8,73.5,164.5,73.5z M164.5,69.3c-0.3,0-0.5-0.2-0.5-0.5v-2.1c0-0.3,0.2-0.5,0.5-0.5s0.5,0.2,0.5,0.5v2.1
			C165.1,69.1,164.8,69.3,164.5,69.3z M164.5,65.1c-0.3,0-0.5-0.2-0.5-0.5v-2.1c0-0.3,0.2-0.5,0.5-0.5s0.5,0.2,0.5,0.5v2.1
			C165.1,64.9,164.8,65.1,164.5,65.1z M164.5,60.9c-0.3,0-0.5-0.2-0.5-0.5v-2.1c0-0.3,0.2-0.5,0.5-0.5s0.5,0.2,0.5,0.5v2.1
			C165.1,60.7,164.8,60.9,164.5,60.9z M164.5,56.8c-0.3,0-0.5-0.2-0.5-0.5v-2.1c0-0.3,0.2-0.5,0.5-0.5s0.5,0.2,0.5,0.5v2.1
			C165.1,56.5,164.8,56.8,164.5,56.8z M164.5,52.6c-0.3,0-0.5-0.2-0.5-0.5V50c0-0.3,0.2-0.5,0.5-0.5s0.5,0.2,0.5,0.5v2
			C165.1,52.3,164.8,52.6,164.5,52.6z M164.5,48.4c-0.3,0-0.5-0.2-0.5-0.5v-2.1c0-0.3,0.2-0.5,0.5-0.5s0.5,0.2,0.5,0.5v2.1
			C165.1,48.1,164.8,48.4,164.5,48.4z M164.5,44.2c-0.3,0-0.5-0.2-0.5-0.5v-2.1c0-0.3,0.2-0.5,0.5-0.5s0.5,0.2,0.5,0.5v2.1
			C165.1,44,164.8,44.2,164.5,44.2z M164.5,40c-0.3,0-0.5-0.2-0.5-0.5v-2.1c0-0.3,0.2-0.5,0.5-0.5s0.5,0.2,0.5,0.5v2.1
			C165.1,39.8,164.8,40,164.5,40z"/>
		<path class="st17" d="M165.6,126.9h-1c-0.3,0-0.5-0.2-0.5-0.5v-1c0-0.3,0.2-0.5,0.5-0.5s0.5,0.2,0.5,0.5v0.5h0.5
			c0.3,0,0.5,0.2,0.5,0.5S165.9,126.9,165.6,126.9z"/>
		<path class="st17" d="M205.4,126.9h-2c-0.3,0-0.5-0.2-0.5-0.5s0.2-0.5,0.5-0.5h2c0.3,0,0.5,0.2,0.5,0.5S205.7,126.9,205.4,126.9z
			 M201.4,126.9h-2c-0.3,0-0.5-0.2-0.5-0.5s0.2-0.5,0.5-0.5h2c0.3,0,0.5,0.2,0.5,0.5S201.7,126.9,201.4,126.9z M197.4,126.9h-2
			c-0.3,0-0.5-0.2-0.5-0.5s0.2-0.5,0.5-0.5h2c0.3,0,0.5,0.2,0.5,0.5S197.7,126.9,197.4,126.9z M193.5,126.9h-2
			c-0.3,0-0.5-0.2-0.5-0.5s0.2-0.5,0.5-0.5h2c0.3,0,0.5,0.2,0.5,0.5S193.8,126.9,193.5,126.9z M189.5,126.9h-2
			c-0.3,0-0.5-0.2-0.5-0.5s0.2-0.5,0.5-0.5h2c0.3,0,0.5,0.2,0.5,0.5S189.8,126.9,189.5,126.9z M185.5,126.9h-2
			c-0.3,0-0.5-0.2-0.5-0.5s0.2-0.5,0.5-0.5h2c0.3,0,0.5,0.2,0.5,0.5S185.8,126.9,185.5,126.9z M181.5,126.9h-2
			c-0.3,0-0.5-0.2-0.5-0.5s0.2-0.5,0.5-0.5h2c0.3,0,0.5,0.2,0.5,0.5S181.8,126.9,181.5,126.9z M177.5,126.9h-2
			c-0.3,0-0.5-0.2-0.5-0.5s0.2-0.5,0.5-0.5h2c0.3,0,0.5,0.2,0.5,0.5S177.8,126.9,177.5,126.9z M173.6,126.9h-2
			c-0.3,0-0.5-0.2-0.5-0.5s0.2-0.5,0.5-0.5h2c0.3,0,0.5,0.2,0.5,0.5S173.8,126.9,173.6,126.9z M169.6,126.9h-2
			c-0.3,0-0.5-0.2-0.5-0.5s0.2-0.5,0.5-0.5h2c0.3,0,0.5,0.2,0.5,0.5S169.9,126.9,169.6,126.9z"/>
		<path class="st17" d="M208.4,126.9h-1c-0.3,0-0.5-0.2-0.5-0.5s0.2-0.5,0.5-0.5h0.5v-0.5c0-0.3,0.2-0.5,0.5-0.5s0.5,0.2,0.5,0.5v1
			C209,126.7,208.7,126.9,208.4,126.9z"/>
		<path class="st17" d="M208.4,123.7c-0.3,0-0.5-0.2-0.5-0.5v-2.1c0-0.3,0.2-0.5,0.5-0.5s0.5,0.2,0.5,0.5v2.1
			C209,123.5,208.7,123.7,208.4,123.7z M208.4,119.6c-0.3,0-0.5-0.2-0.5-0.5V117c0-0.3,0.2-0.5,0.5-0.5s0.5,0.2,0.5,0.5v2.1
			C209,119.3,208.7,119.6,208.4,119.6z M208.4,115.4c-0.3,0-0.5-0.2-0.5-0.5v-2.1c0-0.3,0.2-0.5,0.5-0.5s0.5,0.2,0.5,0.5v2.1
			C209,115.1,208.7,115.4,208.4,115.4z M208.4,111.2c-0.3,0-0.5-0.2-0.5-0.5v-2.1c0-0.3,0.2-0.5,0.5-0.5s0.5,0.2,0.5,0.5v2.1
			C209,110.9,208.7,111.2,208.4,111.2z M208.4,107c-0.3,0-0.5-0.2-0.5-0.5v-2.1c0-0.3,0.2-0.5,0.5-0.5s0.5,0.2,0.5,0.5v2.1
			C209,106.8,208.7,107,208.4,107z M208.4,102.8c-0.3,0-0.5-0.2-0.5-0.5v-2.1c0-0.3,0.2-0.5,0.5-0.5s0.5,0.2,0.5,0.5v2.1
			C209,102.6,208.7,102.8,208.4,102.8z M208.4,98.6c-0.3,0-0.5-0.2-0.5-0.5V96c0-0.3,0.2-0.5,0.5-0.5s0.5,0.2,0.5,0.5v2.1
			C209,98.4,208.7,98.6,208.4,98.6z M208.4,94.4c-0.3,0-0.5-0.2-0.5-0.5v-2.1c0-0.3,0.2-0.5,0.5-0.5s0.5,0.2,0.5,0.5v2.1
			C209,94.2,208.7,94.4,208.4,94.4z M208.4,90.2c-0.3,0-0.5-0.2-0.5-0.5v-2.1c0-0.3,0.2-0.5,0.5-0.5s0.5,0.2,0.5,0.5v2.1
			C209,90,208.7,90.2,208.4,90.2z M208.4,86.1c-0.3,0-0.5-0.2-0.5-0.5v-2.1c0-0.3,0.2-0.5,0.5-0.5s0.5,0.2,0.5,0.5v2.1
			C209,85.8,208.7,86.1,208.4,86.1z M208.4,81.9c-0.3,0-0.5-0.2-0.5-0.5v-2.1c0-0.3,0.2-0.5,0.5-0.5s0.5,0.2,0.5,0.5v2.1
			C209,81.6,208.7,81.9,208.4,81.9z M208.4,77.7c-0.3,0-0.5-0.2-0.5-0.5v-2.1c0-0.3,0.2-0.5,0.5-0.5s0.5,0.2,0.5,0.5v2.1
			C209,77.5,208.7,77.7,208.4,77.7z M208.4,73.5c-0.3,0-0.5-0.2-0.5-0.5v-2.1c0-0.3,0.2-0.5,0.5-0.5s0.5,0.2,0.5,0.5V73
			C209,73.3,208.7,73.5,208.4,73.5z M208.4,69.3c-0.3,0-0.5-0.2-0.5-0.5v-2.1c0-0.3,0.2-0.5,0.5-0.5s0.5,0.2,0.5,0.5v2.1
			C209,69.1,208.7,69.3,208.4,69.3z M208.4,65.1c-0.3,0-0.5-0.2-0.5-0.5v-2.1c0-0.3,0.2-0.5,0.5-0.5s0.5,0.2,0.5,0.5v2.1
			C209,64.9,208.7,65.1,208.4,65.1z M208.4,60.9c-0.3,0-0.5-0.2-0.5-0.5v-2.1c0-0.3,0.2-0.5,0.5-0.5s0.5,0.2,0.5,0.5v2.1
			C209,60.7,208.7,60.9,208.4,60.9z M208.4,56.8c-0.3,0-0.5-0.2-0.5-0.5v-2.1c0-0.3,0.2-0.5,0.5-0.5s0.5,0.2,0.5,0.5v2.1
			C209,56.5,208.7,56.8,208.4,56.8z M208.4,52.6c-0.3,0-0.5-0.2-0.5-0.5V50c0-0.3,0.2-0.5,0.5-0.5s0.5,0.2,0.5,0.5v2
			C209,52.3,208.7,52.6,208.4,52.6z M208.4,48.4c-0.3,0-0.5-0.2-0.5-0.5v-2.1c0-0.3,0.2-0.5,0.5-0.5s0.5,0.2,0.5,0.5v2.1
			C209,48.1,208.7,48.4,208.4,48.4z M208.4,44.2c-0.3,0-0.5-0.2-0.5-0.5v-2.1c0-0.3,0.2-0.5,0.5-0.5s0.5,0.2,0.5,0.5v2.1
			C209,44,208.7,44.2,208.4,44.2z M208.4,40c-0.3,0-0.5-0.2-0.5-0.5v-2.1c0-0.3,0.2-0.5,0.5-0.5s0.5,0.2,0.5,0.5v2.1
			C209,39.8,208.7,40,208.4,40z"/>
	</g>
	<g class="st19">
		<path class="st17" d="M158.3,35.8c-0.3,0-0.5-0.2-0.5-0.5v-0.5h-0.5c-0.3,0-0.5-0.2-0.5-0.5s0.2-0.5,0.5-0.5h1
			c0.3,0,0.5,0.2,0.5,0.5v1C158.8,35.6,158.6,35.8,158.3,35.8z"/>
		<path class="st17" d="M155.2,34.8h-2c-0.3,0-0.5-0.2-0.5-0.5s0.2-0.5,0.5-0.5h2c0.3,0,0.5,0.2,0.5,0.5S155.5,34.8,155.2,34.8z
			 M151.2,34.8h-2c-0.3,0-0.5-0.2-0.5-0.5s0.2-0.5,0.5-0.5h2c0.3,0,0.5,0.2,0.5,0.5S151.5,34.8,151.2,34.8z M147.3,34.8h-2
			c-0.3,0-0.5-0.2-0.5-0.5s0.2-0.5,0.5-0.5h2c0.3,0,0.5,0.2,0.5,0.5S147.6,34.8,147.3,34.8z M143.3,34.8h-2c-0.3,0-0.5-0.2-0.5-0.5
			s0.2-0.5,0.5-0.5h2c0.3,0,0.5,0.2,0.5,0.5S143.6,34.8,143.3,34.8z M139.3,34.8h-2c-0.3,0-0.5-0.2-0.5-0.5s0.2-0.5,0.5-0.5h2
			c0.3,0,0.5,0.2,0.5,0.5S139.6,34.8,139.3,34.8z M135.3,34.8h-2c-0.3,0-0.5-0.2-0.5-0.5s0.2-0.5,0.5-0.5h2c0.3,0,0.5,0.2,0.5,0.5
			S135.6,34.8,135.3,34.8z M131.3,34.8h-2c-0.3,0-0.5-0.2-0.5-0.5s0.2-0.5,0.5-0.5h2c0.3,0,0.5,0.2,0.5,0.5S131.6,34.8,131.3,34.8z
			 M127.4,34.8h-2c-0.3,0-0.5-0.2-0.5-0.5s0.2-0.5,0.5-0.5h2c0.3,0,0.5,0.2,0.5,0.5S127.6,34.8,127.4,34.8z M123.4,34.8h-2
			c-0.3,0-0.5-0.2-0.5-0.5s0.2-0.5,0.5-0.5h2c0.3,0,0.5,0.2,0.5,0.5S123.7,34.8,123.4,34.8z M119.4,34.8h-2c-0.3,0-0.5-0.2-0.5-0.5
			s0.2-0.5,0.5-0.5h2c0.3,0,0.5,0.2,0.5,0.5S119.7,34.8,119.4,34.8z"/>
		<path class="st17" d="M114.4,35.8c-0.3,0-0.5-0.2-0.5-0.5v-1c0-0.3,0.2-0.5,0.5-0.5h1c0.3,0,0.5,0.2,0.5,0.5s-0.2,0.5-0.5,0.5
			h-0.5v0.5C114.9,35.6,114.6,35.8,114.4,35.8z"/>
		<path class="st17" d="M114.4,59.9c-0.3,0-0.5-0.2-0.5-0.5v-2c0-0.3,0.2-0.5,0.5-0.5s0.5,0.2,0.5,0.5v2
			C114.9,59.7,114.6,59.9,114.4,59.9z M114.4,55.9c-0.3,0-0.5-0.2-0.5-0.5v-2c0-0.3,0.2-0.5,0.5-0.5s0.5,0.2,0.5,0.5v2
			C114.9,55.7,114.6,55.9,114.4,55.9z M114.4,51.9c-0.3,0-0.5-0.2-0.5-0.5v-2c0-0.3,0.2-0.5,0.5-0.5s0.5,0.2,0.5,0.5v2
			C114.9,51.7,114.6,51.9,114.4,51.9z M114.4,47.9c-0.3,0-0.5-0.2-0.5-0.5v-2c0-0.3,0.2-0.5,0.5-0.5s0.5,0.2,0.5,0.5v2
			C114.9,47.6,114.6,47.9,114.4,47.9z M114.4,43.9c-0.3,0-0.5-0.2-0.5-0.5v-2c0-0.3,0.2-0.5,0.5-0.5s0.5,0.2,0.5,0.5v2
			C114.9,43.6,114.6,43.9,114.4,43.9z M114.4,39.8c-0.3,0-0.5-0.2-0.5-0.5v-2c0-0.3,0.2-0.5,0.5-0.5s0.5,0.2,0.5,0.5v2
			C114.9,39.6,114.6,39.8,114.4,39.8z"/>
		<path class="st17" d="M115.4,63h-1c-0.3,0-0.5-0.2-0.5-0.5v-1c0-0.3,0.2-0.5,0.5-0.5s0.5,0.2,0.5,0.5V62h0.5
			c0.3,0,0.5,0.2,0.5,0.5S115.7,63,115.4,63z"/>
		<path class="st17" d="M155.2,63h-2c-0.3,0-0.5-0.2-0.5-0.5s0.2-0.5,0.5-0.5h2c0.3,0,0.5,0.2,0.5,0.5S155.5,63,155.2,63z M151.2,63
			h-2c-0.3,0-0.5-0.2-0.5-0.5s0.2-0.5,0.5-0.5h2c0.3,0,0.5,0.2,0.5,0.5S151.5,63,151.2,63z M147.3,63h-2c-0.3,0-0.5-0.2-0.5-0.5
			s0.2-0.5,0.5-0.5h2c0.3,0,0.5,0.2,0.5,0.5S147.6,63,147.3,63z M143.3,63h-2c-0.3,0-0.5-0.2-0.5-0.5s0.2-0.5,0.5-0.5h2
			c0.3,0,0.5,0.2,0.5,0.5S143.6,63,143.3,63z M139.3,63h-2c-0.3,0-0.5-0.2-0.5-0.5s0.2-0.5,0.5-0.5h2c0.3,0,0.5,0.2,0.5,0.5
			S139.6,63,139.3,63z M135.3,63h-2c-0.3,0-0.5-0.2-0.5-0.5s0.2-0.5,0.5-0.5h2c0.3,0,0.5,0.2,0.5,0.5S135.6,63,135.3,63z M131.3,63
			h-2c-0.3,0-0.5-0.2-0.5-0.5s0.2-0.5,0.5-0.5h2c0.3,0,0.5,0.2,0.5,0.5S131.6,63,131.3,63z M127.4,63h-2c-0.3,0-0.5-0.2-0.5-0.5
			s0.2-0.5,0.5-0.5h2c0.3,0,0.5,0.2,0.5,0.5S127.6,63,127.4,63z M123.4,63h-2c-0.3,0-0.5-0.2-0.5-0.5s0.2-0.5,0.5-0.5h2
			c0.3,0,0.5,0.2,0.5,0.5S123.7,63,123.4,63z M119.4,63h-2c-0.3,0-0.5-0.2-0.5-0.5s0.2-0.5,0.5-0.5h2c0.3,0,0.5,0.2,0.5,0.5
			S119.7,63,119.4,63z"/>
		<path class="st17" d="M158.3,63h-1c-0.3,0-0.5-0.2-0.5-0.5s0.2-0.5,0.5-0.5h0.5v-0.5c0-0.3,0.2-0.5,0.5-0.5s0.5,0.2,0.5,0.5v1
			C158.8,62.8,158.6,63,158.3,63z"/>
		<path class="st17" d="M158.3,59.9c-0.3,0-0.5-0.2-0.5-0.5v-2c0-0.3,0.2-0.5,0.5-0.5s0.5,0.2,0.5,0.5v2
			C158.8,59.7,158.6,59.9,158.3,59.9z M158.3,55.9c-0.3,0-0.5-0.2-0.5-0.5v-2c0-0.3,0.2-0.5,0.5-0.5s0.5,0.2,0.5,0.5v2
			C158.8,55.7,158.6,55.9,158.3,55.9z M158.3,51.9c-0.3,0-0.5-0.2-0.5-0.5v-2c0-0.3,0.2-0.5,0.5-0.5s0.5,0.2,0.5,0.5v2
			C158.8,51.7,158.6,51.9,158.3,51.9z M158.3,47.9c-0.3,0-0.5-0.2-0.5-0.5v-2c0-0.3,0.2-0.5,0.5-0.5s0.5,0.2,0.5,0.5v2
			C158.8,47.6,158.6,47.9,158.3,47.9z M158.3,43.9c-0.3,0-0.5-0.2-0.5-0.5v-2c0-0.3,0.2-0.5,0.5-0.5s0.5,0.2,0.5,0.5v2
			C158.8,43.6,158.6,43.9,158.3,43.9z M158.3,39.8c-0.3,0-0.5-0.2-0.5-0.5v-2c0-0.3,0.2-0.5,0.5-0.5s0.5,0.2,0.5,0.5v2
			C158.8,39.6,158.6,39.8,158.3,39.8z"/>
	</g>
	<g class="st16">
		<path class="st17" d="M158.3,71.4c-0.3,0-0.5-0.2-0.5-0.5v-0.5h-0.5c-0.3,0-0.5-0.2-0.5-0.5s0.2-0.5,0.5-0.5h1
			c0.3,0,0.5,0.2,0.5,0.5v1C158.8,71.1,158.6,71.4,158.3,71.4z"/>
		<path class="st17" d="M155.2,70.3h-2c-0.3,0-0.5-0.2-0.5-0.5s0.2-0.5,0.5-0.5h2c0.3,0,0.5,0.2,0.5,0.5S155.5,70.3,155.2,70.3z
			 M151.1,70.3h-2c-0.3,0-0.5-0.2-0.5-0.5s0.2-0.5,0.5-0.5h2c0.3,0,0.5,0.2,0.5,0.5S151.4,70.3,151.1,70.3z M147,70.3h-2
			c-0.3,0-0.5-0.2-0.5-0.5s0.2-0.5,0.5-0.5h2c0.3,0,0.5,0.2,0.5,0.5S147.3,70.3,147,70.3z M142.9,70.3h-2c-0.3,0-0.5-0.2-0.5-0.5
			s0.2-0.5,0.5-0.5h2c0.3,0,0.5,0.2,0.5,0.5S143.2,70.3,142.9,70.3z M138.8,70.3h-2c-0.3,0-0.5-0.2-0.5-0.5s0.2-0.5,0.5-0.5h2
			c0.3,0,0.5,0.2,0.5,0.5S139.1,70.3,138.8,70.3z M134.7,70.3h-2c-0.3,0-0.5-0.2-0.5-0.5s0.2-0.5,0.5-0.5h2c0.3,0,0.5,0.2,0.5,0.5
			S135,70.3,134.7,70.3z M130.6,70.3h-2c-0.3,0-0.5-0.2-0.5-0.5s0.2-0.5,0.5-0.5h2c0.3,0,0.5,0.2,0.5,0.5S130.9,70.3,130.6,70.3z
			 M126.6,70.3h-2c-0.3,0-0.5-0.2-0.5-0.5s0.2-0.5,0.5-0.5h2c0.3,0,0.5,0.2,0.5,0.5S126.8,70.3,126.6,70.3z M122.5,70.3h-2
			c-0.3,0-0.5-0.2-0.5-0.5s0.2-0.5,0.5-0.5h2c0.3,0,0.5,0.2,0.5,0.5S122.8,70.3,122.5,70.3z M118.4,70.3h-2c-0.3,0-0.5-0.2-0.5-0.5
			s0.2-0.5,0.5-0.5h2c0.3,0,0.5,0.2,0.5,0.5S118.7,70.3,118.4,70.3z M114.3,70.3h-2c-0.3,0-0.5-0.2-0.5-0.5s0.2-0.5,0.5-0.5h2
			c0.3,0,0.5,0.2,0.5,0.5S114.6,70.3,114.3,70.3z M110.2,70.3h-2c-0.3,0-0.5-0.2-0.5-0.5s0.2-0.5,0.5-0.5h2c0.3,0,0.5,0.2,0.5,0.5
			S110.5,70.3,110.2,70.3z M106.1,70.3h-2c-0.3,0-0.5-0.2-0.5-0.5s0.2-0.5,0.5-0.5h2c0.3,0,0.5,0.2,0.5,0.5S106.4,70.3,106.1,70.3z
			 M102,70.3h-2c-0.3,0-0.5-0.2-0.5-0.5s0.2-0.5,0.5-0.5h2c0.3,0,0.5,0.2,0.5,0.5S102.3,70.3,102,70.3z M97.9,70.3h-2
			c-0.3,0-0.5-0.2-0.5-0.5s0.2-0.5,0.5-0.5h2c0.3,0,0.5,0.2,0.5,0.5S98.2,70.3,97.9,70.3z M93.8,70.3h-2c-0.3,0-0.5-0.2-0.5-0.5
			s0.2-0.5,0.5-0.5h2c0.3,0,0.5,0.2,0.5,0.5S94.1,70.3,93.8,70.3z M89.8,70.3h-2c-0.3,0-0.5-0.2-0.5-0.5s0.2-0.5,0.5-0.5h2
			c0.3,0,0.5,0.2,0.5,0.5S90,70.3,89.8,70.3z M85.7,70.3h-2c-0.3,0-0.5-0.2-0.5-0.5s0.2-0.5,0.5-0.5h2c0.3,0,0.5,0.2,0.5,0.5
			S86,70.3,85.7,70.3z M81.6,70.3h-2c-0.3,0-0.5-0.2-0.5-0.5s0.2-0.5,0.5-0.5h2c0.3,0,0.5,0.2,0.5,0.5S81.9,70.3,81.6,70.3z
			 M77.5,70.3h-2c-0.3,0-0.5-0.2-0.5-0.5s0.2-0.5,0.5-0.5h2c0.3,0,0.5,0.2,0.5,0.5S77.8,70.3,77.5,70.3z M73.4,70.3h-2
			c-0.3,0-0.5-0.2-0.5-0.5s0.2-0.5,0.5-0.5h2c0.3,0,0.5,0.2,0.5,0.5S73.7,70.3,73.4,70.3z M69.3,70.3h-2c-0.3,0-0.5-0.2-0.5-0.5
			s0.2-0.5,0.5-0.5h2c0.3,0,0.5,0.2,0.5,0.5S69.6,70.3,69.3,70.3z"/>
		<path class="st17" d="M64.2,71.4c-0.3,0-0.5-0.2-0.5-0.5v-1c0-0.3,0.2-0.5,0.5-0.5h1c0.3,0,0.5,0.2,0.5,0.5s-0.2,0.5-0.5,0.5h-0.5
			v0.5C64.7,71.1,64.5,71.4,64.2,71.4z"/>
		<path class="st17" d="M64.2,123.8c-0.3,0-0.5-0.2-0.5-0.5v-2c0-0.3,0.2-0.5,0.5-0.5c0.3,0,0.5,0.2,0.5,0.5v2
			C64.7,123.6,64.5,123.8,64.2,123.8z M64.2,119.8c-0.3,0-0.5-0.2-0.5-0.5v-2c0-0.3,0.2-0.5,0.5-0.5c0.3,0,0.5,0.2,0.5,0.5v2
			C64.7,119.6,64.5,119.8,64.2,119.8z M64.2,115.8c-0.3,0-0.5-0.2-0.5-0.5v-2c0-0.3,0.2-0.5,0.5-0.5c0.3,0,0.5,0.2,0.5,0.5v2
			C64.7,115.5,64.5,115.8,64.2,115.8z M64.2,111.7c-0.3,0-0.5-0.2-0.5-0.5v-2c0-0.3,0.2-0.5,0.5-0.5c0.3,0,0.5,0.2,0.5,0.5v2
			C64.7,111.5,64.5,111.7,64.2,111.7z M64.2,107.7c-0.3,0-0.5-0.2-0.5-0.5v-2c0-0.3,0.2-0.5,0.5-0.5c0.3,0,0.5,0.2,0.5,0.5v2
			C64.7,107.4,64.5,107.7,64.2,107.7z M64.2,103.6c-0.3,0-0.5-0.2-0.5-0.5v-2c0-0.3,0.2-0.5,0.5-0.5c0.3,0,0.5,0.2,0.5,0.5v2
			C64.7,103.4,64.5,103.6,64.2,103.6z M64.2,99.6c-0.3,0-0.5-0.2-0.5-0.5v-2c0-0.3,0.2-0.5,0.5-0.5c0.3,0,0.5,0.2,0.5,0.5v2
			C64.7,99.4,64.5,99.6,64.2,99.6z M64.2,95.6c-0.3,0-0.5-0.2-0.5-0.5v-2c0-0.3,0.2-0.5,0.5-0.5c0.3,0,0.5,0.2,0.5,0.5v2
			C64.7,95.3,64.5,95.6,64.2,95.6z M64.2,91.5c-0.3,0-0.5-0.2-0.5-0.5v-2c0-0.3,0.2-0.5,0.5-0.5c0.3,0,0.5,0.2,0.5,0.5v2
			C64.7,91.3,64.5,91.5,64.2,91.5z M64.2,87.5c-0.3,0-0.5-0.2-0.5-0.5v-2c0-0.3,0.2-0.5,0.5-0.5c0.3,0,0.5,0.2,0.5,0.5v2
			C64.7,87.3,64.5,87.5,64.2,87.5z M64.2,83.5c-0.3,0-0.5-0.2-0.5-0.5v-2c0-0.3,0.2-0.5,0.5-0.5c0.3,0,0.5,0.2,0.5,0.5v2
			C64.7,83.2,64.5,83.5,64.2,83.5z M64.2,79.4c-0.3,0-0.5-0.2-0.5-0.5v-2c0-0.3,0.2-0.5,0.5-0.5c0.3,0,0.5,0.2,0.5,0.5v2
			C64.7,79.2,64.5,79.4,64.2,79.4z M64.2,75.4c-0.3,0-0.5-0.2-0.5-0.5v-2c0-0.3,0.2-0.5,0.5-0.5c0.3,0,0.5,0.2,0.5,0.5v2
			C64.7,75.2,64.5,75.4,64.2,75.4z"/>
		<path class="st17" d="M65.2,126.9h-1c-0.3,0-0.5-0.2-0.5-0.5v-1c0-0.3,0.2-0.5,0.5-0.5c0.3,0,0.5,0.2,0.5,0.5v0.5h0.5
			c0.3,0,0.5,0.2,0.5,0.5S65.5,126.9,65.2,126.9z"/>
		<path class="st17" d="M155.2,126.9h-2c-0.3,0-0.5-0.2-0.5-0.5s0.2-0.5,0.5-0.5h2c0.3,0,0.5,0.2,0.5,0.5S155.5,126.9,155.2,126.9z
			 M151.1,126.9h-2c-0.3,0-0.5-0.2-0.5-0.5s0.2-0.5,0.5-0.5h2c0.3,0,0.5,0.2,0.5,0.5S151.4,126.9,151.1,126.9z M147,126.9h-2
			c-0.3,0-0.5-0.2-0.5-0.5s0.2-0.5,0.5-0.5h2c0.3,0,0.5,0.2,0.5,0.5S147.3,126.9,147,126.9z M142.9,126.9h-2c-0.3,0-0.5-0.2-0.5-0.5
			s0.2-0.5,0.5-0.5h2c0.3,0,0.5,0.2,0.5,0.5S143.2,126.9,142.9,126.9z M138.8,126.9h-2c-0.3,0-0.5-0.2-0.5-0.5s0.2-0.5,0.5-0.5h2
			c0.3,0,0.5,0.2,0.5,0.5S139.1,126.9,138.8,126.9z M134.7,126.9h-2c-0.3,0-0.5-0.2-0.5-0.5s0.2-0.5,0.5-0.5h2
			c0.3,0,0.5,0.2,0.5,0.5S135,126.9,134.7,126.9z M130.6,126.9h-2c-0.3,0-0.5-0.2-0.5-0.5s0.2-0.5,0.5-0.5h2c0.3,0,0.5,0.2,0.5,0.5
			S130.9,126.9,130.6,126.9z M126.6,126.9h-2c-0.3,0-0.5-0.2-0.5-0.5s0.2-0.5,0.5-0.5h2c0.3,0,0.5,0.2,0.5,0.5
			S126.8,126.9,126.6,126.9z M122.5,126.9h-2c-0.3,0-0.5-0.2-0.5-0.5s0.2-0.5,0.5-0.5h2c0.3,0,0.5,0.2,0.5,0.5
			S122.8,126.9,122.5,126.9z M118.4,126.9h-2c-0.3,0-0.5-0.2-0.5-0.5s0.2-0.5,0.5-0.5h2c0.3,0,0.5,0.2,0.5,0.5
			S118.7,126.9,118.4,126.9z M114.3,126.9h-2c-0.3,0-0.5-0.2-0.5-0.5s0.2-0.5,0.5-0.5h2c0.3,0,0.5,0.2,0.5,0.5
			S114.6,126.9,114.3,126.9z M110.2,126.9h-2c-0.3,0-0.5-0.2-0.5-0.5s0.2-0.5,0.5-0.5h2c0.3,0,0.5,0.2,0.5,0.5
			S110.5,126.9,110.2,126.9z M106.1,126.9h-2c-0.3,0-0.5-0.2-0.5-0.5s0.2-0.5,0.5-0.5h2c0.3,0,0.5,0.2,0.5,0.5
			S106.4,126.9,106.1,126.9z M102,126.9h-2c-0.3,0-0.5-0.2-0.5-0.5s0.2-0.5,0.5-0.5h2c0.3,0,0.5,0.2,0.5,0.5S102.3,126.9,102,126.9z
			 M97.9,126.9h-2c-0.3,0-0.5-0.2-0.5-0.5s0.2-0.5,0.5-0.5h2c0.3,0,0.5,0.2,0.5,0.5S98.2,126.9,97.9,126.9z M93.8,126.9h-2
			c-0.3,0-0.5-0.2-0.5-0.5s0.2-0.5,0.5-0.5h2c0.3,0,0.5,0.2,0.5,0.5S94.1,126.9,93.8,126.9z M89.8,126.9h-2c-0.3,0-0.5-0.2-0.5-0.5
			s0.2-0.5,0.5-0.5h2c0.3,0,0.5,0.2,0.5,0.5S90,126.9,89.8,126.9z M85.7,126.9h-2c-0.3,0-0.5-0.2-0.5-0.5s0.2-0.5,0.5-0.5h2
			c0.3,0,0.5,0.2,0.5,0.5S86,126.9,85.7,126.9z M81.6,126.9h-2c-0.3,0-0.5-0.2-0.5-0.5s0.2-0.5,0.5-0.5h2c0.3,0,0.5,0.2,0.5,0.5
			S81.9,126.9,81.6,126.9z M77.5,126.9h-2c-0.3,0-0.5-0.2-0.5-0.5s0.2-0.5,0.5-0.5h2c0.3,0,0.5,0.2,0.5,0.5S77.8,126.9,77.5,126.9z
			 M73.4,126.9h-2c-0.3,0-0.5-0.2-0.5-0.5s0.2-0.5,0.5-0.5h2c0.3,0,0.5,0.2,0.5,0.5S73.7,126.9,73.4,126.9z M69.3,126.9h-2
			c-0.3,0-0.5-0.2-0.5-0.5s0.2-0.5,0.5-0.5h2c0.3,0,0.5,0.2,0.5,0.5S69.6,126.9,69.3,126.9z"/>
		<path class="st17" d="M158.3,126.9h-1c-0.3,0-0.5-0.2-0.5-0.5s0.2-0.5,0.5-0.5h0.5v-0.5c0-0.3,0.2-0.5,0.5-0.5s0.5,0.2,0.5,0.5v1
			C158.8,126.7,158.6,126.9,158.3,126.9z"/>
		<path class="st17" d="M158.3,123.8c-0.3,0-0.5-0.2-0.5-0.5v-2c0-0.3,0.2-0.5,0.5-0.5s0.5,0.2,0.5,0.5v2
			C158.8,123.6,158.6,123.8,158.3,123.8z M158.3,119.8c-0.3,0-0.5-0.2-0.5-0.5v-2c0-0.3,0.2-0.5,0.5-0.5s0.5,0.2,0.5,0.5v2
			C158.8,119.6,158.6,119.8,158.3,119.8z M158.3,115.8c-0.3,0-0.5-0.2-0.5-0.5v-2c0-0.3,0.2-0.5,0.5-0.5s0.5,0.2,0.5,0.5v2
			C158.8,115.5,158.6,115.8,158.3,115.8z M158.3,111.7c-0.3,0-0.5-0.2-0.5-0.5v-2c0-0.3,0.2-0.5,0.5-0.5s0.5,0.2,0.5,0.5v2
			C158.8,111.5,158.6,111.7,158.3,111.7z M158.3,107.7c-0.3,0-0.5-0.2-0.5-0.5v-2c0-0.3,0.2-0.5,0.5-0.5s0.5,0.2,0.5,0.5v2
			C158.8,107.4,158.6,107.7,158.3,107.7z M158.3,103.6c-0.3,0-0.5-0.2-0.5-0.5v-2c0-0.3,0.2-0.5,0.5-0.5s0.5,0.2,0.5,0.5v2
			C158.8,103.4,158.6,103.6,158.3,103.6z M158.3,99.6c-0.3,0-0.5-0.2-0.5-0.5v-2c0-0.3,0.2-0.5,0.5-0.5s0.5,0.2,0.5,0.5v2
			C158.8,99.4,158.6,99.6,158.3,99.6z M158.3,95.6c-0.3,0-0.5-0.2-0.5-0.5v-2c0-0.3,0.2-0.5,0.5-0.5s0.5,0.2,0.5,0.5v2
			C158.8,95.3,158.6,95.6,158.3,95.6z M158.3,91.5c-0.3,0-0.5-0.2-0.5-0.5v-2c0-0.3,0.2-0.5,0.5-0.5s0.5,0.2,0.5,0.5v2
			C158.8,91.3,158.6,91.5,158.3,91.5z M158.3,87.5c-0.3,0-0.5-0.2-0.5-0.5v-2c0-0.3,0.2-0.5,0.5-0.5s0.5,0.2,0.5,0.5v2
			C158.8,87.3,158.6,87.5,158.3,87.5z M158.3,83.5c-0.3,0-0.5-0.2-0.5-0.5v-2c0-0.3,0.2-0.5,0.5-0.5s0.5,0.2,0.5,0.5v2
			C158.8,83.2,158.6,83.5,158.3,83.5z M158.3,79.4c-0.3,0-0.5-0.2-0.5-0.5v-2c0-0.3,0.2-0.5,0.5-0.5s0.5,0.2,0.5,0.5v2
			C158.8,79.2,158.6,79.4,158.3,79.4z M158.3,75.4c-0.3,0-0.5-0.2-0.5-0.5v-2c0-0.3,0.2-0.5,0.5-0.5s0.5,0.2,0.5,0.5v2
			C158.8,75.2,158.6,75.4,158.3,75.4z"/>
	</g>
</g>
<path class="st20" d="M161.8,109.1c-0.4,0.1-0.7,0.1-0.7,0.1v0.1c-0.6-4.3-3.9-7.6-8-7.9c-4.8-0.3-9,3.7-9.4,9c0,0.3,0,0.6,0,0.8
	l0,0c0,0-0.3,0.1-0.6,0c-0.9-0.1-2.1,0.8-1.2,2.6c1.3,2.7,3,2.1,3,2.1c1.6,4,4.8,8.3,8.7,8c3.6-0.2,5.9-5,7.2-10
	c0.2,0,1.9,0.3,2.8-2.6C164.1,109.4,162.6,108.9,161.8,109.1z"/>
<path class="st21" d="M151.4,193.2c0.7,0.5-0.8,2.9,0,3.8c0.1,0.2,0.3,0.2,0.5,0.2c3.6-0.1,6.3,0.1,9.9,0.1c0.5,0,0.8-0.2,0.9-0.7
	c-0.2-0.4-0.4-0.6-0.9-0.9c-1.7-0.9-2.9-1.2-4.6-2.1c-0.3-0.2-0.8-0.6-1-0.8c-0.3-0.3,0-1.1-0.2-1.4c-0.6-0.1-0.8,0.3-1,0.7
	c-0.1,0.3-0.3,0.4-0.7,0.5c-1,0.1-1.4,0-2.3,0.1C151.8,192.7,151.3,192.7,151.4,193.2z"/>
<path class="st21" d="M148.3,193.2c-0.7,0.5,0.8,2.9,0,3.8c-0.1,0.2-0.3,0.2-0.5,0.2c-3.6-0.1-6.3,0.1-9.9,0.1
	c-0.5,0-0.8-0.2-0.9-0.7c0.2-0.4,0.4-0.6,0.9-0.9c1.7-0.9,2.9-1.2,4.6-2.1c0.3-0.2,0.8-0.6,1-0.8c0.3-0.3,0-1.1,0.2-1.4
	c0.6-0.1,0.8,0.3,1,0.7c0.1,0.3,0.3,0.4,0.7,0.5c1,0.1,1.4,0,2.3,0.1C147.9,192.7,148.4,192.7,148.3,193.2z"/>
<path class="st22" d="M161.9,109.1c0,0,0.9-5.9-2.9-9.1c-4.2-3.5-12.9-2.5-15.3,2c-1.4,2.5-0.6,9-0.6,9s0,0,0,0.1
	c0.9,0.9,1.7,2.7,2,3.7c0.1,0.5,0.3,0.9,0.7,1.2c4.1,4.5,3.1,4.3,7.8,3.8c4.4-0.5,3.9-0.1,5.9-4.4c0.4-0.9,0.7-1.9,1-3
	C160.6,111.5,161.1,110.3,161.9,109.1z"/>
<path class="st20" d="M140.6,151.9l4.1-3.5l0.4,2.5c0.2,1.1-0.3,2.3-1.2,3l-2.1,1.7c-0.5,0.4-1.3,0.4-1.8,0l-1.5-1.2
	c-0.5-0.4-0.7-0.9-0.6-1.5l0.2-2.8L140.6,151.9z"/>
<path class="st22" d="M141.3,93.7c3.2,1.8,6.6-3.9,10.5,0.8c0-1-1.1-1.9-1.1-1.9c8.9,1.8,10.4,5.6,11.4,8s0.3,8.5,0.3,8.5
	s-0.3,0-0.5,0.1c-0.3,0.1-1.3,2-1.3,2s0.3-3.1,0.3-3.8c-0.1-3.2-2-3.8-4.7-4.5c-0.3,1.7-2.4,2.8-4.8,3c-2.3,0.2-4-0.6-4.8-2.2
	c-3.1,1.1-3.2,2.1-2.8,5c0.2,1.3,0.4,2.4,0.9,4.2c0,0-1-1.2-1.2-1.6c-0.3,0-0.4,0-0.7,0c0,0-2.7-5-1.7-7.6
	C139.5,102.7,139.3,97.4,141.3,93.7z"/>
<g>
	<g>
		<g>
			<g>
				<g>
					<g>
						<g>
							<g>
								<path class="st5" d="M157.9,63h-43.4c-0.5,0-0.9-0.4-0.9-0.9V33.5c0-0.5,0.4-0.9,0.9-0.9h43.4c0.5,0,0.9,0.4,0.9,0.9v28.6
									C158.8,62.6,158.4,63,157.9,63z"/>
							</g>
						</g>
						<g>
							<g>
								<path class="st5" d="M157.9,63h-43.4c-0.5,0-0.9-0.4-0.9-0.9V33.5c0-0.5,0.4-0.9,0.9-0.9h43.4c0.5,0,0.9,0.4,0.9,0.9v28.6
									C158.8,62.6,158.4,63,157.9,63z"/>
							</g>
						</g>
						<path class="st6" d="M158.8,35.7v-2.1c0-0.6-0.4-1-1-1h-43.1c-0.5,0-1,0.4-1,1v2.1H158.8z"/>
					</g>
				</g>
			</g>
		</g>
		<g>
			<path class="st23" d="M118.5,57.6v-2.8c0-0.7,0.5-1.2,1.2-1.2h1.1c0.7,0,1.2,0.5,1.2,1.2v2.8c0,0.7-0.5,1.2-1.2,1.2h-1.1
				C119,58.8,118.5,58.2,118.5,57.6z"/>
			<path class="st23" d="M125,57.6v-6.2c0-0.7,0.5-1.2,1.2-1.2h1.1c0.7,0,1.2,0.5,1.2,1.2v6.2c0,0.7-0.5,1.2-1.2,1.2h-1.1
				C125.5,58.8,125,58.2,125,57.6z"/>
			<path class="st24" d="M131.5,57.6V41.1c0-0.7,0.5-1.2,1.2-1.2h1.1c0.7,0,1.2,0.5,1.2,1.2v16.5c0,0.7-0.5,1.2-1.2,1.2h-1.1
				C132,58.8,131.5,58.2,131.5,57.6z"/>
			<path class="st23" d="M138,57.6V50c0-0.7,0.5-1.2,1.2-1.2h1.1c0.7,0,1.2,0.5,1.2,1.2v7.6c0,0.7-0.5,1.2-1.2,1.2h-1.1
				C138.6,58.8,138,58.2,138,57.6z"/>
			<path class="st23" d="M144.5,57.6v-9.8c0-0.7,0.5-1.2,1.2-1.2h1.1c0.7,0,1.2,0.5,1.2,1.2v9.8c0,0.7-0.5,1.2-1.2,1.2h-1.1
				C145.1,58.8,144.5,58.2,144.5,57.6z"/>
			<path class="st23" d="M151,57.6v-3.9c0-0.7,0.5-1.2,1.2-1.2h1.1c0.7,0,1.2,0.5,1.2,1.2v3.9c0,0.7-0.5,1.2-1.2,1.2h-1.1
				C151.6,58.8,151,58.2,151,57.6z"/>
		</g>
	</g>
	<g>
		<ellipse class="st5" cx="157" cy="34.2" rx="0.6" ry="0.6"/>
	</g>
	<g>
		<ellipse class="st5" cx="155" cy="34.2" rx="0.6" ry="0.6"/>
	</g>
	<g>
		<ellipse class="st5" cx="115.5" cy="34.2" rx="0.6" ry="0.6"/>
	</g>
</g>
<g class="st0">
	<path d="M157.9,32.6c0.5,0,0.9,0.4,0.9,0.9v28.6c0,0.5-0.4,0.9-0.9,0.9h-43.4c-0.5,0-0.9-0.4-0.9-0.9V33.5c0-0.5,0.4-0.9,0.9-0.9
		H157.9 M157.9,32.1h-43.4c-0.8,0-1.4,0.6-1.4,1.4v28.6c0,0.8,0.6,1.4,1.4,1.4h43.4c0.4,0,0.7-0.1,1-0.4s0.4-0.6,0.4-1V33.5
		C159.3,32.7,158.7,32.1,157.9,32.1L157.9,32.1z"/>
</g>
<path class="st17" d="M177.3,117.2c0.3-4.3-14.7-18.4-14.7-18.4l-1.4,2.4c6.8,7.6,6.5,9.9,9.8,14.8c-1.2,2.7-10,4.3-11.7,4.6
	c-4,0.7-11.3,1.2-17,3.5s-15.6,11.5-14.7,16.7c0.5,3.3,6.2,6.6,15.7,8.6l1.3-1c0,0-8.1-7.3-11.5-8.9c0.5-1.3,3.2-3.6,8.4-6.3
	c0.3-0.2,0.8,0,0.8,0.4c0,0,2.7,13.8,3.1,18.4c3.2,1.1,11.1,0.5,14.9-2.2c-0.6-9,1.7-18.2,1.7-18.2c0.2-1.4,1-2.6,2.2-3.3
	C168.1,125.9,177,120.1,177.3,117.2z"/>
<path class="st20" d="M162.1,101.1l-4.6,2.1c-0.2,0.1-0.4-0.2-0.3-0.4l1.2-1.4c0.1-0.1,0-0.4-0.1-0.4l-6.8-1.6
	c-0.3-0.1-0.4-0.4-0.1-0.6l1.9-1.6c0.7-0.4,1.4-0.5,2.2-0.4l6.2,1.3c0.2,0,0.5,0.2,0.8,0.4C163.2,99.2,163.1,100.6,162.1,101.1z"/>
</svg>
