<?xml version="1.0" encoding="utf-8"?>
<svg version="1.1" id="Layer_1" xmlns="http://www.w3.org/2000/svg" xmlns:xlink="http://www.w3.org/1999/xlink" x="0" y="0" viewBox="0 0 305 200" style="enable-background:new 0 0 305 200;" xml:space="preserve">
<style type="text/css">
	.st0{opacity:0.1;fill:#33C5A0;stroke:#33C5A0;stroke-miterlimit:10;}
	.st1{opacity:0.1;fill:#1397B9;stroke:#1397B9;stroke-miterlimit:10;}
	.st2{opacity:8.000000e-02;}
	.st3{fill:#939AA6;}
	.st4{fill:#7D8695;}
	.st5{fill:#5D687A;}
	.st6{fill:#1397B9;}
	.st7{fill:#5AB6CE;}
	.st8{fill:#1E355B;}
	.st9{fill:#293F63;}
	.st10{fill:#33C5A0;}
	.st11{fill:#5F697A;}
	.st12{fill:#F4D0A9;}
	.st13{fill:none;stroke:#DDDBCE;stroke-width:1.8338;stroke-miterlimit:10;}
	.st14{fill:url(#SVGID_1_);}
	.st15{fill:#AA6017;}
	.st16{fill:url(#SVGID_2_);}
	.st17{fill:url(#SVGID_3_);}
	.st18{fill:#EFB97F;}
	.st19{fill:#B0B8C6;}
	.st20{fill:#8E9AAD;}
	.st21{fill:#78869D;}
	.st22{fill:#687283;}
	.st23{fill:#85DCC6;}
	.st24{fill:#66D3B8;}
	.st25{fill:#70D6BC;}
	.st26{fill:none;stroke:#49B282;stroke-width:0.5;stroke-miterlimit:10;}
	.st27{fill:#6ED6BC;}
	.st28{fill:#61728C;}
	.st29{fill:#4B5D7C;}
	.st30{opacity:0.6;fill:#4B5D7C;}
	.st31{fill:#231F20;}
</style>
<path class="st0" d="M38.6,91.4c19,59.8-20.6,81.8,7.9,104.1c22.1,17.3,65.2-21,106.4-24.7c27.3-2.5,57.8,26.8,87.5,26.8
	c36.8,0,62.3-31.1,63.7-71.4c2.7-79.8-91.5-60.5-139.8-73.3C109.9,38.6,87.4-16.3,47.5,4.7C30.2,13.8,22,39.2,38.6,91.4z"/>
<path class="st1" d="M263.7,102c-36.3-59.2-13.8-77.8-42.3-89.4c-28.8-11.8-44.2,37.8-81.2,43.4c-25.9,3.9-52.3-22.9-89.6-16
	C16,46.5-6.7,84.4,1.8,121.6c16.3,71.2,90.4,33.7,137.8,34c53.3,0.2,89.1,55.8,127.8,24.5C282,168.2,289.8,144.6,263.7,102z"/>
<ellipse class="st2" cx="144.9" cy="180" rx="48.4" ry="3.1"/>
<g>
	<g>
		<rect x="147.7" y="146.5" class="st3" width="3" height="23.3"/>
		<path class="st4" d="M154.9,171.9h-11.4l0,0c0-1.2,0.9-2.1,2.1-2.1h7.2C153.9,169.8,154.9,170.7,154.9,171.9L154.9,171.9z"/>
		<path class="st4" d="M166.5,174.7h-34.6v0c0-1.6,1.3-2.9,2.9-2.9h28.7C165.1,171.8,166.5,173.1,166.5,174.7L166.5,174.7z"/>
		<ellipse class="st5" cx="132.8" cy="177.4" rx="2.8" ry="2.4"/>
		<ellipse class="st5" cx="165.6" cy="177.4" rx="2.8" ry="2.4"/>
	</g>
</g>
<path class="st6" d="M164,146.9h-28.8c-1.1,0-2-0.9-2-2l0,0c0-1.1,0.9-2,2-2H164c1.1,0,2,0.9,2,2l0,0C166,146,165.1,146.9,164,146.9
	z"/>
<path class="st7" d="M165.1,136.1h-31.5c-2.3,0-4.3,1.9-4.3,4.3l0,0c0,2.3,1.9,4.3,4.3,4.3h31.5c2.3,0,4.3-1.9,4.3-4.3l0,0
	C169.4,138,167.5,136.1,165.1,136.1z"/>
<path class="st8" d="M160.2,134.2l0.2-3c-12.1,6.9-22.7-1.2-22.7-1.2l-0.6,4.1h-0.4v8.2h24.9v-8.2H160.2z"/>
<path class="st9" d="M142.8,174.2h-3.1c-0.8,0-1.5-0.7-1.6-1.5l-3.6-33.9c-0.4-3.2,2-6,5-6h0c2.8,0,5.1,2.4,5,5.4l-0.2,34.3
	C144.4,173.4,143.7,174.2,142.8,174.2z"/>
<path class="st9" d="M156.9,174.5h-5.3l1.8-36.8c0.2-2.8,2.4-4.9,5-4.9l0,0c3.2,0,5.5,3.1,4.9,6.4L156.9,174.5z"/>
<path class="st10" d="M144.8,173.7c-0.4,2.2,0.1,4.7-0.3,6.9c-0.2,0.3-0.5,0.3-0.9,0.3c-6.1,0-12.3,0-18.4,0c-0.9,0-1-0.1-0.7-0.9
	c0.3-0.7,0.6-1.4,1.4-1.8c2.9-1.5,5.7-3.1,8.6-4.6c0.5-0.3,0.8-0.7,1.1-1.1c0.4-0.6,0.9-1.2,1.3-1.7c0.9-0.1,1.4,0.5,1.8,1.2
	c0.3,0.5,0.6,0.7,1.2,0.8c1.7,0.1,2.3,0,4,0.1C144.3,172.9,145,172.9,144.8,173.7z"/>
<path class="st10" d="M158.2,174.8c0-0.5-0.3-1-0.6-1.3c-2.1-1.6-4.5-1.6-6.6,0c-0.4,0.3-0.6,0.8-0.6,1.3c-1.6,1-2.7,2.7-3,4.6
	c-0.1,0.7,0.4,1.3,1.1,1.3h11.8c0.7,0,1.2-0.6,1.1-1.3C160.9,177.5,159.8,175.8,158.2,174.8z"/>
<path class="st7" d="M159.1,124.5h-21c-2.8,0-5.1-2.1-5.4-4.8l-2.4-21.2c-0.4-3.2,2.2-6.1,5.4-6.1h25.9c3.3,0,5.8,2.8,5.4,6.1
	l-2.4,21.2C164.2,122.5,161.9,124.5,159.1,124.5z"/>
<rect x="136.7" y="122.3" class="st11" width="24.9" height="11.9"/>
<path class="st11" d="M155.6,92.2l-15.3,3c-2.3,0.4-4.1,2-5,4.2l-7,18.6l8.8,3.8l24.7,0.1l4.5-15.4L155.6,92.2z"/>
<path class="st11" d="M156.2,117.4l4.8-22.3c0.3-1.5,2.6-3.2,4.3-2.8l2.7,0.4c1.7,0.4,4.4,2.3,3.6,5.8l-6.8,20.9
	c-0.3,1.5-2,2.3-3.7,1.9l-2.4-0.6C157,120.4,155.8,118.8,156.2,117.4z"/>
<ellipse transform="matrix(0.1221 -0.9925 0.9925 0.1221 38.4877 237.9169)" class="st12" cx="153.7" cy="97.2" rx="7.3" ry="6.6"/>
<path class="st13" d="M93,131.5"/>
<path class="st13" d="M80.4,131.5"/>
<linearGradient id="SVGID_1_" gradientUnits="userSpaceOnUse" x1="230.1356" y1="-331.6393" x2="257.9095" y2="-326.1991" gradientTransform="matrix(0.9966 -8.209485e-02 8.209485e-02 0.9966 -65.6063 468.1938)">
	<stop  offset="0" style="stop-color:#5F697A"/>
	<stop  offset="1" style="stop-color:#A6ABB3"/>
</linearGradient>
<path class="st14" d="M132.2,114.6l20,2.4c1.4,0,2.6,1,2.7,2.3c0,1.3-1,2.5-2.4,2.5l-22.1,0c-1.6,0-2.7-1.7-2-3.8
	C129.2,115.7,130.8,114.6,132.2,114.6z"/>
<g>
	<g>
		<path class="st12" d="M168,82.8c-0.5-0.1-1.3,0-1.3,0l0.8-3.5c1.4-8.3-4.2-12.8-9.9-13.5c-6.6-0.8-13.5,2.9-14.2,10.3
			c0,0.4-0.2,3.7-0.3,4.1l0,0c0,0-0.4-0.1-0.9-0.1c-1,0-2.5,0.5-1.8,3.2c1,4,3.3,3.5,3.3,3.5c1.3,4.3,8.5,28.6,21,3.1
			c0.1-0.2,0.3-0.6,0.3-0.6s1.8,1.1,3.7-2.7C170.1,84.2,168.9,82.9,168,82.8z"/>
		<path class="st15" d="M162.7,90.8c-0.7,0.4-2.6,1-2.9-0.7c-0.3-1.8-9-3.2-9.9-0.7c-0.7,2-2.7,1-3.4,0.3c-0.7-0.7-2-2.3-2.6-3
			c0.8,4.4,3.5,14.5,9.9,15.1c4.9,0.5,9.4-6.9,11.5-12.6C165.2,89.3,163.3,90.4,162.7,90.8z M158.6,94.1c-0.2,1.1-0.3,1.6-1.4,1.9
			c-0.6,0.1-1.6,0.1-1.5-0.7l0.1-1.4c0-0.2,0.1-0.3,0.3-0.4l0.8-0.2c0.1,0,0-0.1,0-0.1c0,0-1.4,0-2.1-0.1c-0.8-0.1-2.2-0.4-2.2-0.4
			c0,0,0,0.1,0,0.1l0.6,0.4c0.1,0.1,0.2,0.3,0.2,0.5l-0.3,1.3c-0.2,0.5-0.8,0.5-1.4,0.3c-1-0.4-1.1-1.1-1-2.1
			c0.3-2.7,2.3-2.1,4.4-1.8C157.1,91.7,159.1,91.6,158.6,94.1z"/>
	</g>
	
		<linearGradient id="SVGID_2_" gradientUnits="userSpaceOnUse" x1="86.0491" y1="834.8002" x2="86.3718" y2="842.453" gradientTransform="matrix(0.9907 0.136 -0.136 0.9907 184.7262 -763.6881)">
		<stop  offset="0" style="stop-color:#EFB89A;stop-opacity:0"/>
		<stop  offset="1" style="stop-color:#E08F79;stop-opacity:0.8"/>
	</linearGradient>
	<path class="st16" d="M156.7,76.5l1.2,8c0.1,0.6-0.1,1.2-0.5,1.6l-1,1c-0.5,0.5-1.4,0.5-1.9-0.1l-0.9-1.1c-0.4-0.5-0.5-1.2-0.3-1.8
		L156.7,76.5z"/>
</g>
<linearGradient id="SVGID_3_" gradientUnits="userSpaceOnUse" x1="221.4073" y1="602.6265" x2="218.2821" y2="575.4816" gradientTransform="matrix(0.9927 0.1207 -0.1207 0.9927 12.6226 -511.9229)">
	<stop  offset="0" style="stop-color:#5F697A"/>
	<stop  offset="1" style="stop-color:#A6ABB3"/>
</linearGradient>
<path class="st17" d="M155.8,118.2l2.8-18.9c0.2-1.4,1.3-2.6,2.8-2.5c1.5,0.1,2.2,1.4,2.2,2.8l-0.1,19.2c-0.1,2.1-2.3,3.1-4.4,3
	S155.6,120.1,155.8,118.2z"/>
<path class="st18" d="M160.3,99.3L160.3,99.3c0.9,0.4,1.9,0.2,2.5-0.5L167,95c0.6-0.6,0.9-1.4,0.8-2.2c-0.2-1.3-0.6-4.2-0.8-5.4
	c0-0.3-0.5-0.5-0.7-0.2l-6.8,8.9C158.7,97.1,159.1,98.7,160.3,99.3z"/>
<path class="st12" d="M153.4,117.8L153.4,117.8c0.4-0.5,0.9-0.8,1.5-0.8l5.6-0.8c0.7-0.1,1.5,0.1,2,0.7c1.1,1.1,3.2,3.2,4.2,4.3
	c0.3,0.3,0.1,0.7-0.3,0.7c-2.1,0-7.3,0-11.3,0C153.2,121.7,152.1,119.4,153.4,117.8z"/>
<g>
	<path class="st19" d="M228.2,110.9h-50.5c-0.9,0-1.5-0.7-1.5-1.5V78.8c0-0.9,0.7-1.5,1.5-1.5h50.5c0.9,0,1.5,0.7,1.5,1.5v30.5
		C229.8,110.2,229.1,110.9,228.2,110.9z"/>
	<path class="st20" d="M229.2,110.9h-50.5c-0.9,0-1.5-0.7-1.5-1.5V78.8c0-0.9,0.7-1.5,1.5-1.5h50.5c0.9,0,1.5,0.7,1.5,1.5v30.5
		C230.8,110.2,230.1,110.9,229.2,110.9z"/>
</g>
<g>
	<path class="st19" d="M208.9,96.3c-0.1-0.4-0.4-0.7-0.8-0.7h-9.5c-0.4,0-0.8,0.3-0.8,0.7l-2.6,24.7c0,0.3,0.2,0.6,0.5,0.6h15.9
		c0.3,0,0.6-0.3,0.5-0.6L208.9,96.3z M206.4,110.3c0,1.5-1.2,2.7-2.7,2.7s-2.7-1.2-2.7-2.7v-4.1c0-1.5,1.2-2.7,2.7-2.7
		s2.7,1.2,2.7,2.7V110.3z"/>
	<path class="st21" d="M209.3,96.3c-0.1-0.4-0.4-0.7-0.8-0.7H199c-0.4,0-0.8,0.3-0.8,0.7l-2.6,24.7c0,0.3,0.2,0.6,0.5,0.6H212
		c0.3,0,0.6-0.3,0.5-0.6L209.3,96.3z M206.8,110.3c0,1.5-1.2,2.7-2.7,2.7s-2.7-1.2-2.7-2.7v-4.1c0-1.5,1.2-2.7,2.7-2.7
		s2.7,1.2,2.7,2.7V110.3z"/>
	<path class="st22" d="M195.6,121c0,0.3,0.2,0.6,0.5,0.6H212c0.3,0,0.6-0.3,0.5-0.6H195.6z"/>
</g>
<g>
	<polygon class="st20" points="72.3,131 57.9,187.9 61.2,187.9 80.2,127.8 	"/>
	<polygon class="st21" points="85.6,127.4 71.1,184.3 74.4,184.3 93.4,124.2 	"/>
	<polygon class="st3" points="236.8,131 251.3,187.9 248,187.9 229,127.8 	"/>
	<polygon class="st4" points="223.6,128 238,184.9 234.7,184.9 215.7,124.8 	"/>
	<polygon class="st23" points="246.8,125.4 246.6,125.4 246.6,125.4 63.4,125.4 63.4,144.9 112.7,144.9 119.1,134.8 191,134.8 
		198.7,144.9 246.8,144.9 	"/>
	<rect x="63.4" y="121.8" class="st24" width="183.4" height="3.6"/>
</g>
<path class="st15" d="M170.1,58.5c-4.2,2.5-8.5-5.3-13.7,1.1c0-1.5,1.5-2.7,1.5-2.7c-11.7,2.6-13.6,7.9-15,11.2
	c-1.4,3.3-0.5,11.9-0.5,11.9s0.4,0,0.6,0.1c0.4,0.2,1.3,2.6,1.3,2.6s-0.1-4.4-0.1-5.4c0.1-4.5,2.7-5.3,6.1-6.3
	c0.4,2.3,3.1,3.9,6.2,4.2c3,0.3,5.2-0.9,6.3-3c4,1.6,4.2,2.9,3.6,6.9c-0.3,1.9-0.5,3.3-1.2,5.8c0,0,1.3-1.7,1.6-2.3c0.4,0,0.5,0,1,0
	c0,0,3.6-7,2.3-10.6C172.4,70.9,172.7,63.6,170.1,58.5z"/>
<g>
	<g>
		<path class="st25" d="M70.3,78.3c-2.9,1.6-3.4,8.5-1.3,12.9c1.9,3.9,6.4,7,10.4,4.4c4.7-3,4.6-8,1.4-11.7
			C78.1,80.8,73.1,76.8,70.3,78.3z"/>
		<path class="st10" d="M79.2,95.2c-0.3-3.2,0.8-7.3,2.8-9.7l0.2,0.2c-1.9,2.3-3,6.3-2.7,9.5L79.2,95.2z"/>
		<g>
			<path class="st10" d="M77.9,92.8c-0.6-0.5-1.3-0.9-1.9-1.2c-2.3-1.1-5.1-1.9-7.7-2.2l0-0.3c2.6,0.3,5.4,1.1,7.8,2.2
				c0.7,0.3,1.4,0.7,2,1.3L77.9,92.8z"/>
			<path class="st10" d="M75.2,87.7c-0.4-1.9,1-5.3,2.6-6.8l0.2,0.2c-1.5,1.4-2.8,4.8-2.5,6.5L75.2,87.7z"/>
			<path class="st10" d="M73.8,85.2c-1.8-1-3.7-1.4-6-1.4c0,0,0,0,0,0v-0.3c0,0,0,0,0,0c2.3,0,4.3,0.5,6.1,1.4L73.8,85.2z"/>
			<path class="st10" d="M83.4,103.8c-2.8-5.4-9.6-18.7-13.5-25.2l0.5-0.3c3.9,6.5,10.8,19.8,13.5,25.2L83.4,103.8z"/>
		</g>
	</g>
	<g>
		<path class="st10" d="M90.1,59.4c-4.8-0.1-10.6,7.7-11.1,14.7c-0.5,6.3,2.9,13,9.7,13.1c8,0.1,11.7-7.2,10.5-14.1
			C98.2,67.1,94.7,59.5,90.1,59.4z"/>
		<g>
			<g>
				<path class="st26" d="M89.2,82.7c2.2-3.7,6-6.8,10.3-7.9"/>
				<path class="st26" d="M89.6,72.3c1.4-2.2,4.8-4.5,7.5-6.2"/>
				<path class="st26" d="M89.7,68.8c-1.3-2.8-3.6-4.6-5.7-6.1"/>
				<path class="st26" d="M80.2,69.1c3.4,2.3,6.8,4.7,9.2,8"/>
				<path class="st26" d="M89,86.9c-2.7-3.3-6-6.5-9.6-8.4"/>
				
					<rect x="67" y="81.2" transform="matrix(4.195521e-02 -0.9991 0.9991 4.195521e-02 4.0266 167.2235)" class="st10" width="44.3" height="0.6"/>
			</g>
			<g>
				<path class="st24" d="M89.3,82.8L89,82.6c2.3-3.9,6.3-6.9,10.4-8l0.1,0.3C95.4,76,91.5,79,89.3,82.8z"/>
				<path class="st24" d="M89.7,72.4l-0.3-0.2c1.1-1.8,3.7-3.8,7.6-6.2l0.2,0.3C93.3,68.6,90.8,70.7,89.7,72.4z"/>
				<path class="st24" d="M89.6,68.9c-1.3-2.7-3.6-4.6-5.6-6l0.2-0.2c2.1,1.5,4.4,3.4,5.7,6.1L89.6,68.9z"/>
				<path class="st24" d="M89.3,77.2c-2.4-3.3-5.8-5.7-9.1-7.9l-0.1,0l0.2-0.2l0.1,0c3.3,2.3,6.8,4.7,9.1,8L89.3,77.2z"/>
				<path class="st24" d="M88.9,87c-2.1-2.6-5.5-6.3-9.6-8.4l0.1-0.3c4.1,2.2,7.5,5.8,9.7,8.5L88.9,87z"/>
				
					<rect x="75.6" y="73" transform="matrix(4.195521e-02 -0.9991 0.9991 4.195521e-02 12.5949 159.672)" class="st24" width="27.8" height="0.6"/>
			</g>
		</g>
	</g>
	<g>
		<path class="st27" d="M110.1,71.7c-3.2-1.7-10.6,3.7-14.1,10c-3.1,5.7-3.8,12.9,0.8,15.2c5.4,2.7,11.2-2.8,13.4-9.6
			C112.2,81.5,113.2,73.3,110.1,71.7z"/>
		<g>
			<path class="st10" d="M102,83.2C102,83.2,102,83.1,102,83.2c-0.2-0.1-0.2-0.2-0.1-0.2c1.7-2.3,6.4-2.6,9.8-2.7c0,0,0,0,0,0
				c0.1,0,0.1,0.1,0.2,0.1c0,0.1-0.1,0.2-0.1,0.2c-3.3,0.1-8,0.5-9.6,2.6C102.1,83.1,102.1,83.2,102,83.2z"/>
			<path class="st10" d="M106.7,75c0,0-0.1,0-0.1-0.1c0-0.1,0-0.2,0-0.2c1.1-0.7,3.2-1,4.8-1.1c0.1,0,0.2,0.1,0.2,0.1
				c0,0.1-0.1,0.2-0.1,0.2C110.2,74,107.9,74.2,106.7,75C106.8,75,106.7,75,106.7,75z"/>
			<path class="st10" d="M105,77.9C105,77.9,105,77.9,105,77.9c-0.1,0-0.2-0.1-0.2-0.2c0.1-1.5-0.4-2.9-1.3-4.1
				c-0.1-0.1,0-0.2,0-0.2c0.1-0.1,0.2,0,0.2,0c1,1.2,1.5,2.7,1.4,4.3C105.1,77.9,105,77.9,105,77.9z"/>
			<path class="st10" d="M98,91.2c-0.1,0-0.1,0-0.1-0.1c0-0.1,0-0.2,0.1-0.2c4-2.3,7.8-3.2,11.7-2.6c0.1,0,0.1,0.1,0.1,0.2
				c0,0.1-0.1,0.1-0.2,0.1C105.8,88,102.1,88.9,98,91.2C98.1,91.2,98.1,91.2,98,91.2z"/>
			<path class="st10" d="M96.9,93.6c-0.1,0-0.1-0.1-0.2-0.1c-0.1-2.2-0.9-4.3-2.7-6.8c0-0.1,0-0.2,0-0.2c0.1,0,0.2,0,0.2,0
				c1.8,2.5,2.6,4.6,2.8,6.9C97.1,93.6,97,93.6,96.9,93.6C96.9,93.6,96.9,93.6,96.9,93.6z"/>
			<path class="st10" d="M100.8,85.6c-0.1,0-0.1-0.1-0.2-0.1c-0.2-2.7-1.4-4.8-2.5-6.6c0-0.1,0-0.2,0-0.2c0.1,0,0.2,0,0.2,0
				c1.1,1.7,2.4,4.1,2.5,6.8C100.9,85.5,100.8,85.6,100.8,85.6C100.8,85.6,100.8,85.6,100.8,85.6z"/>
			<path class="st10" d="M92.9,104c0,0-0.1,0-0.1,0c-0.2-0.1-0.2-0.2-0.2-0.4c5-13.9,9.7-22.5,15.8-32c0.1-0.1,0.3-0.2,0.4-0.1
				c0.1,0.1,0.2,0.3,0.1,0.4c-6,9.4-10.7,18.1-15.7,31.9C93.2,103.9,93.1,104,92.9,104z"/>
		</g>
	</g>
	<g>
		<path class="st28" d="M73.7,103.4c0,0.1,0,0.3,0,0.4c0,7.6,2.9,14.2,7.3,17.9h15.5c4.4-3.7,7.3-10.3,7.3-17.9c0-0.2,0-0.3,0-0.4
			H73.7z"/>
		<path class="st29" d="M81,121.8h15.5c4.4-3.7,7.3-10.3,7.3-17.9c0-0.2,0-0.3,0-0.4h-3.8c-0.2,5.3-2.1,10.3-9.5,11.6
			C84.1,116.1,81.6,119.7,81,121.8C80.9,121.7,81,121.8,81,121.8z"/>
		<path class="st28" d="M103.3,104.8H74.1c-0.3,0-0.6-0.3-0.6-0.6v-0.1c0-0.3,0.3-0.6,0.6-0.6h29.1c0.3,0,0.6,0.3,0.6,0.6v0.1
			C103.9,104.6,103.6,104.8,103.3,104.8z"/>
		<path class="st30" d="M103.7,105.5c0-0.2,0-0.4,0-0.7h-30c0,0.2,0,0.4,0,0.7H103.7z"/>
	</g>
</g>
<path class="st31" d="M149.9,80.2c-0.5-0.1-1-0.3-1.2-0.6l-0.1,0c0,0,0,0.1,0,0.1c-0.1,0.5,0.5,1,1.3,1.1c0.8,0.1,1.5-0.2,1.5-0.8
	c0,0,0-0.1,0-0.1l-0.1,0C151.1,80.2,150.5,80.3,149.9,80.2z"/>
<path class="st31" d="M161.7,81.6c-0.5-0.1-1-0.3-1.2-0.6l-0.1,0c0,0,0,0.1,0,0.1c-0.1,0.5,0.5,1,1.3,1.1c0.8,0.1,1.5-0.2,1.5-0.8
	c0,0,0-0.1,0-0.1l-0.1,0C162.7,81.6,162.2,81.7,161.7,81.6z"/>
</svg>
