<?xml version="1.0" encoding="utf-8"?>
<svg version="1.1" id="Layer_1" xmlns="http://www.w3.org/2000/svg" xmlns:xlink="http://www.w3.org/1999/xlink" x="0px" y="0px" viewBox="0 0 200 154" style="enable-background:new 0 0 200 154;" xml:space="preserve">
<style type="text/css">
	.st0{opacity:0.1;fill:#1397B9;stroke:#1397B9;stroke-miterlimit:10;}
	.st1{fill:#CFE0DC;}
	.st2{fill:#ACC9C1;}
	.st3{fill:#94B4AC;}
	.st4{fill:#9BB9B2;}
	.st5{opacity:8.000000e-02;}
	.st6{fill:#C3D8D3;}
	.st7{fill:#8DAFA7;}
	.st8{fill:#687283;}
	.st9{opacity:0.6;fill:#525E71;}
</style>
<path class="st0" d="M187.9,79c-25.7-47.2-8.2-69.7-28.4-78c-20.5-8.4-33,39.4-59.4,45.8c-18.4,4.5-37.2-16.4-63.8-9
	c-24.7,6.9-41,39.3-35,69.6C12.7,165.5,65.6,131,99.4,129c38-2.3,63.3,42,91,14.3C200.8,132.8,206.4,112.9,187.9,79z"/>
<path class="st1" d="M126.2,32.6c-0.4-8.7-2.6-19.1-6.8-25.7c-0.2,0.1-0.4,0.3-0.6,0.3c-0.3,0.2-0.7,0.2-1,0.2c-0.4,0-0.7-0.1-1-0.2
	c-0.3-0.1-0.6-0.3-0.9-0.6c-0.1-0.1-0.2-0.2-0.2-0.2c-0.3-0.3-0.6-0.7-0.7-1.2l-0.1-0.7c0-0.5,0.1-0.9,0.4-1.4l0.4-0.5
	c0,0,0.1,0,0.1-0.1c-1-0.8-2.1-1.4-3.2-1.8c-5.6-1.7-13.3,2.3-19.3,9c2.7,2.6,1.6,8.3-3.2,8.3c-0.9,0-1.7-0.2-2.3-0.6
	c-1.2,2.3-2.3,4.7-3,7.1c-4.1,13.9,0,31.4,15.2,35c5.6,1.3,10.5,0.5,14.4-1.7c-2.4-1-2-5.2,1-5.2c0.1,0,0.2,0,0.3,0
	c-1.2-4,0.9-9.2,6.4-9.2c1,0,1.9,0.2,2.7,0.5C125.8,40.6,126.3,36.6,126.2,32.6z M110.1,33.6c-1.9,0-1.9-2.9,0-2.9
	C112,30.7,112,33.6,110.1,33.6z M117.3,30.4c-0.9,0-1.6-0.2-2.1-0.6c-0.5,0.6-1.1,0.9-2.1,0.9c-3.6,0-3.6-5.6,0-5.6
	c0.3,0,0.6,0.1,0.8,0.1c0.5-1.3,1.6-2.3,3.4-2.3C122.1,23,122.1,30.4,117.3,30.4z"/>
<g>
	<g>
		<path class="st2" d="M162.1,137c2,2.7-11.8,6.5-25.7,6.2c-12.4-0.3-20.5-3.6-13.1-7.3c5.7-2.8,13.6-3.5,20.4-3
			C150.1,133.5,160.6,135,162.1,137z"/>
		<path class="st3" d="M142.8,143.1c-0.1,0-0.3,0-0.4,0c-2.6-2.5-6.1-4.7-9.4-6c-0.6-0.2-1.3-0.5-2.1-0.7c-2.6-0.1-5.3-0.2-7.8-0.3
			c0.1-0.1,0.2-0.1,0.4-0.2c0.3-0.1,0.6-0.3,0.8-0.4c0.5,0,1.1,0,1.6,0.1c5.7-0.6,11.4-1.8,14.3-2.8c0.3,0,0.6,0,0.9,0
			c-2.6,1-8,2.2-13.1,2.8c3.5,0.1,7.1,0.2,10.6,0.3c1.2,0,2.4,0.1,3.6,0.1c3-0.4,6.5-1.6,7.6-2.4c0.1,0,0.3,0,0.4,0.1
			c-0.9,0.8-3.7,1.8-6.5,2.4c6,0.2,12.2,0.4,18.2,0.7c0.1,0.1,0.1,0.1,0.2,0.2c0.1,0.2,0.2,0.3,0.2,0.5c-4.6-0.3-9.2-0.4-13.9-0.6
			c2.9,0.9,5.7,2.3,8.3,3.9c-0.1,0-0.3,0.1-0.4,0.1c-2.8-1.8-5.9-3.2-9.1-4.1c-2.9-0.1-5.8-0.2-8.7-0.2c-2.1-0.1-4.3-0.1-6.5-0.2
			c0.3,0.1,0.7,0.2,1,0.3C136.5,138.2,140.1,140.4,142.8,143.1z"/>
	</g>
	<g>
		<path class="st2" d="M60.1,127.9c-1.5,1.8,9.1,4.4,19.8,4.2c9.6-0.2,15.8-2.4,10.1-4.9c-4.4-1.9-10.4-2.4-15.7-2
			C69.3,125.5,61.2,126.5,60.1,127.9z"/>
		<path class="st4" d="M74.9,132c0.1,0,0.2,0,0.3,0c2-1.7,4.7-3.2,7.3-4.1c0.5-0.2,1-0.3,1.6-0.5c2-0.1,4.1-0.1,6.1-0.2
			c-0.1,0-0.2-0.1-0.3-0.1c-0.2-0.1-0.4-0.2-0.6-0.3c-0.4,0-0.8,0-1.3,0c-4.4-0.4-8.8-1.2-11.1-1.9c-0.2,0-0.5,0-0.7,0
			c2,0.7,6.1,1.5,10.1,1.9c-2.7,0.1-5.5,0.1-8.2,0.2c-0.9,0-1.9,0-2.8,0.1c-2.3-0.3-5-1.1-5.9-1.6c-0.1,0-0.2,0-0.3,0
			c0.7,0.5,2.9,1.2,5,1.6c-4.7,0.1-9.4,0.2-14,0.5c0,0-0.1,0.1-0.1,0.1c-0.1,0.1-0.1,0.2-0.1,0.3c3.5-0.2,7.1-0.3,10.7-0.4
			c-2.2,0.6-4.4,1.5-6.4,2.7c0.1,0,0.2,0.1,0.3,0.1c2.2-1.2,4.6-2.2,7-2.8c2.2-0.1,4.5-0.1,6.7-0.2c1.6,0,3.3-0.1,5-0.1
			c-0.3,0.1-0.5,0.2-0.7,0.2C79.8,128.6,77,130.2,74.9,132z"/>
	</g>
	<ellipse class="st5" cx="103.3" cy="132.8" rx="38.3" ry="5.1"/>
	<g>
		<path class="st6" d="M32.7,57.9c-1.6,6.9,8.6,17.6,18.6,20.4c9,2.6,20.2-0.2,21.8-10.1c2-11.8-6.1-18.6-16.5-18.9
			C47.7,49.1,34.3,51.3,32.7,57.9z"/>
		<path class="st7" d="M68.9,66.1c0,0-0.1,0-0.1,0c-4.7-4.5-9.3-9.4-9.5-16.3c0-0.1,0.1-0.2,0.2-0.2c0.1,0,0.2,0.1,0.2,0.2
			c0.2,6.7,4.8,11.6,9.4,16C69,65.8,69,66,69,66C68.9,66,68.9,66.1,68.9,66.1z"/>
		<g>
			<path class="st7" d="M43.1,74.3C43.1,74.3,43.1,74.3,43.1,74.3c-0.1,0-0.2-0.1-0.1-0.2c1.2-2.9,4.4-5.6,8.8-7.7
				c4.1-1.8,8.8-2.9,12.6-2.8c0.1,0,0.2,0.1,0.2,0.2c0,0.1-0.1,0.2-0.2,0.2c-7.7-0.2-18.6,4.2-21.2,10.3
				C43.2,74.3,43.2,74.3,43.1,74.3z"/>
			<path class="st7" d="M51.6,59.1c0,0-0.1,0-0.1,0c-2.5-2.2-4.9-4.7-5.1-8.9c0-0.1,0.1-0.2,0.2-0.2c0.1,0,0.2,0.1,0.2,0.2
				c0.2,4.2,2.7,6.7,5,8.6c0.1,0.1,0.1,0.2,0,0.2C51.7,59,51.6,59.1,51.6,59.1z"/>
			<path class="st7" d="M34.1,64.4c0,0-0.1,0-0.1,0c-0.1-0.1-0.1-0.2,0-0.2c2.8-3.4,7.5-5.8,13-6.4c0.1,0,0.2,0.1,0.2,0.1
				c0,0.1-0.1,0.2-0.1,0.2c-5.4,0.7-10,3-12.8,6.3C34.2,64.4,34.2,64.4,34.1,64.4z"/>
			<path class="st7" d="M93.1,95.9c-0.1,0-0.3-0.1-0.3-0.2C90,83.6,80.9,73,67.3,65.6c-11.3-6.1-24.6-9.3-34-8.1
				c-0.2,0-0.3-0.1-0.4-0.3c0-0.2,0.1-0.3,0.3-0.4c9.5-1.2,23,2,34.4,8.2c13.8,7.5,23,18.3,25.8,30.5C93.5,95.6,93.4,95.8,93.1,95.9
				C93.2,95.9,93.1,95.9,93.1,95.9z"/>
		</g>
	</g>
	<g>
		<g>
			<g>
				<path class="st3" d="M103.4,51.1C103.4,51.1,103.4,51.1,103.4,51.1c-0.2-0.1-0.2-0.2-0.1-0.2c4-7.8,12.4-14.1,22.6-17
					c0.1,0,0.2,0,0.2,0.1c0,0.1,0,0.2-0.1,0.2c-10,2.8-18.4,9.1-22.4,16.8C103.5,51.1,103.5,51.1,103.4,51.1z"/>
				<path class="st3" d="M105.1,28.4C105.1,28.4,105.1,28.4,105.1,28.4c-0.2-0.1-0.2-0.2-0.1-0.2c3-6.2,12.2-12.2,18-13.4
					c0.1,0,0.2,0,0.2,0.1c0,0.1,0,0.2-0.1,0.2c-5.7,1.1-14.8,7.1-17.8,13.2C105.3,28.3,105.2,28.4,105.1,28.4z"/>
				<path class="st3" d="M106.2,20.6c-0.1,0-0.1,0-0.1-0.1c-2.4-5.1-7.8-10-12.4-11.2c-0.1,0-0.1-0.1-0.1-0.2C93.6,9,93.7,9,93.8,9
					c4.7,1.3,10.1,6.2,12.6,11.4C106.4,20.5,106.4,20.6,106.2,20.6C106.3,20.6,106.3,20.6,106.2,20.6z"/>
				<path class="st3" d="M104.3,36.8c-0.1,0-0.1,0-0.1-0.1c-4.6-8.3-9.9-12.8-18-15.3c-0.1,0-0.1-0.1-0.1-0.2c0-0.1,0.1-0.1,0.2-0.1
					c8.1,2.4,13.6,7.1,18.2,15.4C104.5,36.6,104.4,36.7,104.3,36.8C104.3,36.8,104.3,36.8,104.3,36.8z"/>
				<path class="st3" d="M103.2,57.5c-0.1,0-0.1,0-0.1-0.1c-6.1-10.7-12.4-16.3-19.7-17.7c-0.1,0-0.1-0.1-0.1-0.2
					c0-0.1,0.1-0.1,0.2-0.1c7.4,1.4,13.7,7,19.9,17.8C103.4,57.3,103.3,57.4,103.2,57.5C103.2,57.4,103.2,57.5,103.2,57.5z"/>
				<path class="st3" d="M103.3,95.2c-0.2,0-0.3-0.1-0.3-0.3c0-0.2-0.8-19.4-0.1-40.5c1-28.3,4.1-46.1,9.2-53.1
					c0.1-0.1,0.3-0.2,0.4-0.1c0.1,0.1,0.2,0.3,0.1,0.4c-12,16.4-9,92.4-9,93.1C103.7,95,103.5,95.2,103.3,95.2
					C103.3,95.2,103.3,95.2,103.3,95.2z"/>
			</g>
		</g>
	</g>
	<g>
		<g>
			<path class="st3" d="M165.2,67.3c0,0-0.1,0-0.1,0c-3.7-3.3-14-7.3-20.7-5.8c-0.1,0-0.2,0-0.2-0.1c0-0.1,0-0.2,0.1-0.2
				c6.8-1.4,17.3,2.5,21,5.9c0.1,0.1,0.1,0.2,0,0.2C165.3,67.3,165.3,67.3,165.2,67.3z"/>
			<path class="st3" d="M174.5,60.7C174.5,60.7,174.5,60.7,174.5,60.7c-1.5-1.1-6.4-4.4-9.6-4.7c-0.1,0-0.2-0.1-0.1-0.2
				c0-0.1,0.1-0.2,0.2-0.1c3.2,0.3,7.8,3.4,9.7,4.7c0.1,0.1,0.1,0.2,0,0.2C174.6,60.7,174.6,60.7,174.5,60.7z"/>
			<path class="st3" d="M158.1,57.1C158.1,57.1,158.1,57.1,158.1,57.1c-0.2-0.1-0.2-0.2-0.1-0.2c1.7-2.7,2.4-6.2,1.9-9.4
				c0-0.1,0-0.2,0.1-0.2c0.1,0,0.2,0,0.2,0.1c0.6,3.3-0.1,6.8-1.9,9.6C158.2,57.1,158.2,57.1,158.1,57.1z"/>
			<path class="st3" d="M154.5,75.4C154.5,75.4,154.5,75.3,154.5,75.4c-7.5-4.5-15.9-6.1-25-4.8c-0.1,0-0.2,0-0.2-0.1
				c0-0.1,0-0.2,0.1-0.2c9.2-1.3,17.7,0.4,25.2,4.8c0.1,0,0.1,0.1,0.1,0.2C154.6,75.3,154.6,75.4,154.5,75.4z"/>
			<path class="st3" d="M125.4,74.2C125.4,74.2,125.4,74.2,125.4,74.2c-0.1,0-0.2-0.1-0.2-0.2c1.5-4.3,1.5-8.8-0.2-15.6
				c0-0.1,0-0.2,0.1-0.2c0.1,0,0.2,0,0.2,0.1c1.6,6.9,1.7,11.4,0.2,15.8C125.5,74.2,125.5,74.2,125.4,74.2z"/>
			<path class="st3" d="M137.8,64.4C137.8,64.4,137.8,64.4,137.8,64.4c-0.1,0-0.2-0.1-0.1-0.2c1.8-4.1,2.4-9.1,1.8-15.5
				c0-0.1,0.1-0.2,0.1-0.2c0.1,0,0.2,0.1,0.2,0.1c0.5,6.5,0,11.4-1.9,15.6C138,64.4,137.9,64.4,137.8,64.4z"/>
			<path class="st3" d="M116.1,94.7C116.1,94.7,116.1,94.7,116.1,94.7c-0.2,0-0.3-0.2-0.3-0.4c1.1-10.9,7.5-20.8,18-28
				c11.2-7.6,26.3-11.6,43.7-11.6c0.2,0,0.3,0.1,0.3,0.3s-0.1,0.3-0.3,0.3c-17.2,0-32.2,4-43.4,11.5c-10.3,7-16.6,16.8-17.7,27.5
				C116.4,94.6,116.3,94.7,116.1,94.7z"/>
		</g>
	</g>
	<g>
		<path class="st8" d="M72.3,94.4c0,0.3,0,0.6,0,1c0,16.2,6.2,30.3,15.5,38.1h32.9c9.3-7.8,15.5-21.9,15.5-38.1c0-0.3,0-0.6,0-1
			H72.3z"/>
		<path class="st9" d="M87.8,133.4h32.9c9.3-7.8,15.5-21.9,15.5-38.1c0-0.3,0-0.6,0-1h-8.1c-0.3,11.2-4.6,22-20.3,24.6
			c-13.3,2.3-18.7,9.9-20.2,14.3C87.7,133.3,87.7,133.4,87.8,133.4z"/>
		<path class="st8" d="M136,97.3H72.6c-0.3,0-0.6-0.3-0.6-0.6V95c0-0.3,0.3-0.6,0.6-0.6H136c0.3,0,0.6,0.3,0.6,0.6v1.7
			C136.6,97.1,136.3,97.3,136,97.3z"/>
		<path class="st9" d="M136.1,98.8c0-0.5,0-0.9,0.1-1.4H72.4c0,0.5,0,0.9,0.1,1.4H136.1z"/>
	</g>
</g>
</svg>
