<?xml version="1.0" encoding="utf-8"?>
<svg version="1.1" id="Layer_1" xmlns="http://www.w3.org/2000/svg" xmlns:xlink="http://www.w3.org/1999/xlink" x="0" y="0" viewBox="0 0 200 154" style="enable-background:new 0 0 200 154;" xml:space="preserve">
<style type="text/css">
	.st0{opacity:0.1;fill:#33C5A0;}
	.st1{fill:#DBE8E5;}
	.st2{opacity:8.000000e-02;}
	.st3{fill:#9ABEB4;}
	.st4{fill:#ACC9C1;}
	.st5{fill:#B7CDC8;}
	.st6{fill:#7D8695;}
</style>
<path class="st0" d="M187.9,79c-25.7-47.2-8.2-69.7-28.4-78c-20.5-8.4-33,39.4-59.4,45.8c-18.4,4.5-37.2-16.4-63.8-9
	c-24.7,6.9-41,39.3-35,69.6C12.7,165.5,65.6,131,99.4,129c38-2.3,63.3,42,91,14.3C200.8,132.8,206.4,112.9,187.9,79z"/>
<polygon class="st1" points="110.1,83.6 110.1,83.6 82.8,24.1 80.9,24.3 70,71 97.3,93.3 "/>
<ellipse class="st2" cx="100" cy="120" rx="42.7" ry="4.4"/>
<path class="st3" d="M112.2,119.4c0.2-0.4,0.6-0.6,1.2-0.6c0.3,0,0.6,0.1,0.8,0.2l32.8-14.7l-2.6-0.1c0,0-11.3,1-21.1,1.9l-11,2.9
	C112.3,109,112.2,117.3,112.2,119.4z"/>
<path class="st4" d="M144.4,104.1l2.6,0.1l0,0l23-47l-1.4-0.8l-45.3,49.6C133.2,105.2,144.4,104.1,144.4,104.1z"/>
<path class="st5" d="M168.6,56.5l-60.4,27.2c0,0,0,0,0,0L80.9,24.3L68.1,71.1l16.7,48.2c0.3-0.4,0.7-0.6,1.2-0.6
	c0.8,0,1.5,0.7,1.5,1.5h12.3c0-0.6,0.5-1.1,1.1-1.1c0.6,0,1.1,0.5,1.1,1.1h4.3c0-0.6,0.5-1.1,1.1-1.1s1.1,0.5,1.1,1.1h0.2
	c0-1.1,0.9-1.9,1.9-1.9c0.7,0,1.2,0.3,1.6,0.9l33.1-14.9L168.6,56.5z"/>
<g>
	<path class="st6" d="M123.3,119.9c0-0.1,0-0.1-0.1-0.2c-0.1-0.1-0.2-0.3-0.3-0.3c-0.2-0.2-0.5-0.3-0.8-0.3c-0.3,0-0.6,0.1-0.8,0.3
		c-0.2,0.2-0.3,0.5-0.3,0.8v0c0,0,0,0.1,0.1,0.1c0.7,0,1.4,0,2.1,0c0,0,0-0.1,0-0.2L123.3,119.9z M122.2,119.4
		c0.2,0,0.4,0.1,0.6,0.2c0.1,0.1,0.2,0.1,0.2,0.2c0,0,0,0.1,0.1,0.1l0,0.1c-0.6,0-1.2,0-1.8,0C121.4,119.7,121.8,119.4,122.2,119.4z
		 M123.1,120C123.1,120,123.1,120,123.1,120C123.1,120,123.1,120,123.1,120z"/>
	<path class="st6" d="M74.6,119.7c0-0.1-0.1-0.2-0.2-0.3c-0.2-0.2-0.5-0.3-0.7-0.3c-0.3,0-0.6,0.1-0.7,0.3c-0.2,0.2-0.2,0.5-0.2,0.7
		c0,0,0,0.1,0.1,0.1c0.6,0,1.2,0,1.8,0c0,0,0-0.1,0-0.2l0-0.1C74.6,119.9,74.6,119.8,74.6,119.7z M72.9,120.1c0-0.2,0.1-0.3,0.2-0.5
		c0.2-0.1,0.3-0.2,0.5-0.2c0.2,0,0.4,0.1,0.5,0.2c0.1,0.1,0.1,0.1,0.2,0.2c0,0,0,0.1,0.1,0.1l0,0.1
		C73.9,120.1,73.4,120.1,72.9,120.1z M74.4,120C74.4,120,74.4,120,74.4,120C74.4,120,74.4,120,74.4,120z"/>
	<path class="st6" d="M84.6,120c-0.5,0-1,0.1-1.4,0.2c0,0,0,0,0,0c0,0,0,0.1,0,0.1c0.5,0.1,1,0.2,1.4,0.2c0.5,0,1,0,1.4-0.2
		c0,0,0,0,0,0c0,0,0-0.1,0-0.1C85.5,120,85.1,119.9,84.6,120z"/>
	<path class="st6" d="M115.1,120c0-0.6-0.5-1.2-1.1-1.5c-0.5-0.2-1.1-0.1-1.6,0.2c-0.2-0.3-0.5-0.6-0.9-0.7c-0.5-0.2-1-0.3-1.5-0.1
		c-0.5,0.1-1,0.4-1.2,0.9c-0.1,0.2-0.2,0.3-0.3,0.5c0,0,0-0.1-0.1-0.1c-0.3-0.3-0.6-0.4-1-0.4c-0.4,0-0.8,0.2-1,0.4
		c-0.2,0.2-0.3,0.4-0.4,0.7l-3.7,0c-0.1-0.3-0.2-0.5-0.4-0.7c-0.3-0.3-0.6-0.4-1-0.4c-0.4,0-0.8,0.1-1.1,0.4
		c-0.2,0.2-0.3,0.4-0.4,0.6l-11.6,0.1c-0.1-0.6-0.6-1.2-1.2-1.4c-0.6-0.2-1.2-0.1-1.7,0.3c-0.2-0.2-0.4-0.4-0.7-0.6
		c-0.4-0.2-0.8-0.3-1.2-0.2c-0.7,0.1-1.4,0.5-1.7,1.1c-0.3-0.3-0.8-0.4-1.2-0.2c-0.5,0.1-0.9,0.6-1,1.1l-2.6,0.1
		c-0.1,0-0.1,0-0.1,0.1c0,0.1,0,0.1,0.1,0.1l2.8,0.1c0.1,0,0.2-0.1,0.2-0.2l0,0v0c0-0.4,0.3-0.7,0.6-0.8c0.4-0.1,0.8,0.1,1,0.4
		c0,0.1,0.1,0.1,0.1,0.1c0.1,0,0.3,0,0.3-0.2l0,0c0.2-0.6,0.8-1.1,1.4-1.1c0.6-0.1,1.3,0.3,1.6,0.9c0,0,0,0.1,0.1,0.1
		c0.1,0.1,0.3,0.1,0.4-0.1c0.3-0.4,0.8-0.5,1.3-0.4c0.5,0.2,0.8,0.6,0.8,1.1l0,0l0,0c0,0.2,0.1,0.3,0.3,0.3l12.2,0.1l0,0l0,0l0,0
		c0.2,0,0.4-0.2,0.4-0.4c0-0.4,0.3-0.7,0.7-0.7c0.4,0,0.8,0.3,0.8,0.7l0,0l0,0c0,0.2,0.2,0.3,0.3,0.3l4.3,0h0l0,0
		c0.2,0,0.3-0.1,0.3-0.3c0-0.4,0.4-0.8,0.8-0.8c0.4,0,0.7,0.3,0.8,0.6c-0.3,0-0.7,0.1-1,0.2c0,0,0,0,0,0c0,0,0,0.1,0,0.1
		c0.7,0.2,1.4,0.2,2.1,0.2c0.7,0,1.4-0.1,2.1-0.2c0,0,0,0,0,0c0,0,0-0.1,0-0.1c-0.7-0.1-1.4-0.2-2.1-0.2c-0.1,0-0.2,0-0.3,0
		c0.1-0.6,0.6-1.1,1.2-1.2c0.6-0.2,1.3,0.1,1.8,0.7l0,0l0.1,0.1c0,0,0,0,0.1,0.1c0.1,0.1,0.3,0.1,0.4-0.1c0.3-0.4,0.8-0.6,1.3-0.4
		c0.5,0.1,0.9,0.6,0.9,1.1l0,0l0,0c0,0.1,0.1,0.2,0.2,0.2l3.5-0.1c0,0,0,0,0,0c0,0,0,0,0,0L115.1,120z"/>
</g>
</svg>
