<?xml version="1.0" encoding="utf-8"?>
<!-- Generator: Adobe Illustrator 23.0.6, SVG Export Plug-In . SVG Version: 6.00 Build 0)  -->
<svg version="1.1" id="Layer_1" xmlns="http://www.w3.org/2000/svg" xmlns:xlink="http://www.w3.org/1999/xlink" x="0px" y="0px"
	 width="112px" height="112px" viewBox="0 0 112 112" style="enable-background:new 0 0 112 112;" xml:space="preserve">
<style type="text/css">
	.st0{opacity:0.5;fill:#1397B9;}
	.st1{opacity:0.65;}
	.st2{fill:#1397B9;}
	.st3{opacity:0.8;fill:#99E2CF;}
	.st4{opacity:0.6;fill:#52CEAE;}
	.st5{opacity:0.9;}
	.st6{fill:#33C5A0;}
	.st7{opacity:0.7;fill:#33C5A0;}
	.st8{opacity:0.6;}
	.st9{opacity:0.95;}
	.st10{fill:#36A7C3;}
	.st11{fill:#70D6BC;}
</style>
<g>
	<g>
		<path class="st0" d="M53.1,91.3L21.5,73.8c-2-1.1-2-3.9,0-4.9l31.7-17.5c1.8-1,3.9-1,5.7,0l31.7,17.5c2,1.1,2,3.9,0,4.9L58.9,91.3
			C57.1,92.3,54.9,92.3,53.1,91.3z"/>
		<g class="st1">
			<path class="st2" d="M92,71.7c-0.1,0.8-0.6,1.6-1.4,2.1L58.9,91.3c-1.8,1-3.9,1-5.7,0L21.5,73.8c-0.9-0.5-1.3-1.3-1.4-2.1h0v1.6
				c0,1,0.5,1.9,1.5,2.5l31.7,17.5c1.8,1,3.9,1,5.7,0l31.7-17.5c1-0.5,1.5-1.5,1.5-2.5L92,71.7L92,71.7z"/>
		</g>
	</g>
	<g>
		<path class="st3" d="M53.1,75L21.5,57.5c-2-1.1-2-3.9,0-4.9l31.7-17.5c1.8-1,3.9-1,5.7,0l31.7,17.5c2,1.1,2,3.9,0,4.9L58.9,75
			C57.1,75.9,54.9,75.9,53.1,75z"/>
		<g>
			<path class="st4" d="M92,55.4c-0.1,0.8-0.6,1.6-1.4,2.1L58.9,75c-1.8,1-3.9,1-5.7,0L21.5,57.5c-0.9-0.5-1.3-1.3-1.4-2.1h0V57
				c0,1,0.5,1.9,1.5,2.5l31.7,17.5c1.8,1,3.9,1,5.7,0l31.7-17.5c1-0.5,1.5-1.5,1.5-2.5L92,55.4L92,55.4z"/>
		</g>
	</g>
	<g>
		<g class="st5">
			<path class="st6" d="M92,39c-0.1,0.8-0.6,1.6-1.4,2.1L58.9,58.6c-1.8,1-3.9,1-5.7,0L21.5,41.1c-0.9-0.5-1.3-1.3-1.4-2.1h0v1.6
				c0,1,0.5,1.9,1.5,2.5l31.7,17.5c1.8,1,3.9,1,5.7,0l31.7-17.5c1-0.5,1.5-1.5,1.5-2.5L92,39L92,39z"/>
		</g>
		<path class="st7" d="M53.1,58.6L21.5,41.1c-2-1.1-2-3.9,0-4.9l31.7-17.5c1.8-1,3.9-1,5.7,0l31.7,17.5c2,1.1,2,3.9,0,4.9L58.9,58.6
			C57.1,59.6,54.9,59.6,53.1,58.6z"/>
	</g>
</g>
</svg>
