<svg xmlns="http://www.w3.org/2000/svg" id="Layer_1" width="300" height="274" x="0" y="0" version="1.1" viewBox="0 0 300 274" xml:space="preserve"><style>.st0{opacity:.4;fill:#80c9a7}.st1{opacity:.45}.st2{fill:#64be95}.st3{opacity:.4}.st3,.st4{fill:#71b5d8}.st5{opacity:.65}.st6{opacity:.55;fill:#80c9a7}</style><path d="M138.1 262.7l-132-73.5c-8.1-4.5-8.1-16.2 0-20.8l132-73.5c7.4-4.1 16.4-4.1 23.8 0l132 73.5c8.1 4.5 8.1 16.2 0 20.8l-132 73.5c-7.4 4.1-16.4 4.1-23.8 0z" class="st0"/><g class="st1"><path d="M299.9 180.3c-.4 3.5-2.4 6.9-6 8.9l-132 73.5c-7.4 4.1-16.4 4.1-23.8 0l-132-73.5c-3.6-2-5.6-5.4-6-8.9H0v6.7c0 4.1 2 8.1 6.1 10.4l132 73.5c7.4 4.1 16.4 4.1 23.8 0l132-73.5c4.1-2.3 6.1-6.3 6.1-10.4l-.1-6.7z" class="st2"/></g><path d="M138.1 216.8l-132-73.5c-8.1-4.5-8.1-16.2 0-20.8l132-73.5c7.4-4.1 16.4-4.1 23.8 0l132 73.5c8.1 4.5 8.1 16.2 0 20.8l-132 73.5c-7.4 4.1-16.4 4.1-23.8 0z" class="st3"/><g class="st1"><path d="M299.9 134.4c-.4 3.5-2.4 6.9-6 8.9l-132 73.5c-7.4 4.1-16.4 4.1-23.8 0l-132-73.5c-3.6-2-5.6-5.4-6-8.9H0v6.7c0 4.1 2 8.1 6.1 10.4l132 73.5c7.4 4.1 16.4 4.1 23.8 0l132-73.5c4.1-2.3 6.1-6.3 6.1-10.4l-.1-6.7z" class="st4"/></g><g><g class="st5"><path d="M299.9 88.4c-.4 3.5-2.4 6.9-6 8.9l-132 73.5c-7.4 4.1-16.4 4.1-23.8 0L6.1 97.3c-3.6-2-5.6-5.4-6-8.9H0v6.7c0 4.1 2 8.1 6.1 10.4l132 73.5c7.4 4.1 16.4 4.1 23.8 0l132-73.5c4.1-2.3 6.1-6.3 6.1-10.4l-.1-6.7z" class="st2"/></g><path d="M138.1 170.8L6.1 97.3C-2 92.8-2 81.1 6.1 76.6l132-73.5c7.4-4.1 16.4-4.1 23.8 0l132 73.5c8.1 4.5 8.1 16.2 0 20.8l-132 73.5c-7.4 4-16.4 4-23.8-.1z" class="st6"/></g></svg>