<svg xmlns="http://www.w3.org/2000/svg" id="Layer_1" width="300" height="220" x="0" y="0" version="1.1" viewBox="0 0 300 220" xml:space="preserve"><style>.st0{fill:#f1f1f3}.st1{fill:#d2d5d9}.st2{fill:#b8bbc2}.st3{fill:#fff}.st4{fill:#afb3bb}.st5{fill:#dbdde1}.st6{fill:#9bd5ba}.st7{fill:#dbf0e6}.st8{fill:#6dc19b}.st9{fill:#92d1b4}.st10{fill:#5f6776}.st11{fill:#dddfe2}.st12{fill:#828995}.st13{fill:#a6aab3}.st14{fill:#969ba5}.st15{opacity:.59}.st16{fill:#79808d}.st17{fill:#54b789}.st18{fill:#edf7f2}.st19{fill:#848a96}.st20{fill:#edeef0}</style><path d="M24.6 175.6c-.8 0-1.5-.7-1.5-1.5V9c0-.8.7-1.5 1.5-1.5h225.1c.8 0 1.5.7 1.5 1.5v165.1c0 .8-.7 1.5-1.5 1.5H24.6z" class="st0"/><path d="M249.8 8c.6 0 1 .4 1 1v165.1c0 .6-.4 1-1 1H24.6c-.6 0-1-.4-1-1V9c0-.6.4-1 1-1h225.2m0-1H24.6c-1.1 0-2 .9-2 2v165.1c0 1.1.9 2 2 2h225.1c1.1 0 2-.9 2-2V9c.1-1.1-.8-2-1.9-2z" class="st1"/><circle cx="60.2" cy="21.4" r="4" class="st2"/><circle cx="48.6" cy="21.4" r="4" class="st2"/><circle cx="37" cy="21.4" r="4" class="st2"/><g><path d="M240 97.6H34.4c-.4 0-.8-.4-.8-.8V72.3c0-.4.4-.8.8-.8H240c.4 0 .8.4.8.8v24.5c0 .4-.4.8-.8.8z" class="st3"/><circle cx="47.6" cy="84.6" r="8" class="st1"/><path d="M84.7 81.9H62.9c-.6 0-1-.4-1-1v-2c0-.6.4-1 1-1h21.8c.6 0 1 .4 1 1v2c0 .6-.4 1-1 1zM100.9 81.9H91c-.6 0-1-.4-1-1v-2c0-.6.4-1 1-1h9.9c.6 0 1 .4 1 1v2c0 .6-.5 1-1 1z" class="st4"/><path d="M97.2 91.1H62.9c-.6 0-1-.4-1-1v-2c0-.6.4-1 1-1h34.3c.6 0 1 .4 1 1v2c0 .6-.5 1-1 1zM158.6 91.1h-9.2c-.6 0-1-.4-1-1v-2c0-.6.4-1 1-1h9.2c.6 0 1 .4 1 1v2c0 .6-.5 1-1 1zM143.9 91.1h-41.1c-.6 0-1-.4-1-1v-2c0-.6.4-1 1-1h41.1c.6 0 1 .4 1 1v2c0 .6-.4 1-1 1z" class="st5"/></g><g><path d="M240 130.7H34.4c-.4 0-.8-.4-.8-.8v-24.5c0-.4.4-.8.8-.8H240c.4 0 .8.4.8.8v24.5c0 .4-.4.8-.8.8z" class="st6"/><circle cx="47.6" cy="117.7" r="8" class="st3"/><path d="M84.7 115H62.9c-.6 0-1-.4-1-1v-2c0-.6.4-1 1-1h21.8c.6 0 1 .4 1 1v2c0 .6-.4 1-1 1zM131.4 115h-10.7c-.6 0-1-.4-1-1v-2c0-.6.4-1 1-1h10.7c.6 0 1 .4 1 1v2c0 .6-.4 1-1 1zM114.3 115H90.9c-.6 0-1-.4-1-1v-2c0-.6.4-1 1-1h23.4c.6 0 1 .4 1 1v2c0 .6-.4 1-1 1z" class="st3"/><path d="M97.2 124.2H62.9c-.6 0-1-.4-1-1v-2c0-.6.4-1 1-1h34.3c.6 0 1 .4 1 1v2c0 .6-.5 1-1 1zM143.9 124.2h-41.1c-.6 0-1-.4-1-1v-2c0-.6.4-1 1-1h41.1c.6 0 1 .4 1 1v2c0 .6-.4 1-1 1z" class="st7"/></g><g><path d="M240 163.8H34.4c-.4 0-.8-.4-.8-.8v-24.5c0-.4.4-.8.8-.8H240c.4 0 .8.4.8.8V163c0 .4-.4.8-.8.8z" class="st3"/><circle cx="47.6" cy="150.8" r="8" class="st1"/><path d="M93.3 148.1H62.1c-.1 0-.2-.1-.2-.2v-3.6c0-.1.1-.2.2-.2h31.1c.1 0 .2.1.2.2v3.6c.1.1 0 .2-.1.2zM114.3 148.1H98.4c-.6 0-1-.4-1-1v-2c0-.6.4-1 1-1h15.9c.6 0 1 .4 1 1v2c0 .6-.4 1-1 1z" class="st4"/><path d="M97.2 157.4H62.9c-.6 0-1-.4-1-1v-2.1c0-.6.4-1 1-1h34.3c.6 0 1 .4 1 1v2.1c0 .6-.5 1-1 1zM158.6 157.4h-29.3c-.6 0-1-.4-1-1v-2.1c0-.6.4-1 1-1h29.3c.6 0 1 .4 1 1v2.1c0 .6-.5 1-1 1zM123.3 157.4h-20.4c-.6 0-1-.4-1-1v-2.1c0-.6.4-1 1-1h20.4c.6 0 1 .4 1 1v2.1c0 .6-.5 1-1 1z" class="st5"/></g><g><path d="M0 78.3h14v113.9H0z" class="st8"/><path d="M3.7 78.3h6.7v113.9H3.7z" class="st9"/><path d="M4.8 63L7 55.7 9.3 63z" class="st10"/><path d="M9.3 63H4.8L0 78.3h14z" class="st11"/><path d="M9.5 208.9h-5c-2.5 0-4.5-2-4.5-4.5v-8.6h14v8.6c0 2.5-2 4.5-4.5 4.5z" class="st1"/><path d="M0 192.2h14v3.5H0z" class="st12"/></g><g><path d="M289.4 22.7v-3.3c0-1.1-.9-2-2-2h-46.7c-1.5 0-3 .6-4 1.7l-8.2 8.2c-.3.3-.1.7.3.7h36.4v178.4c0 1.1.9 2 2 2h15c1.1 0 2-.9 2-2V28h15.6c.1 0 .2-.1.2-.2v-1.1c0-2.2-1.8-4-4-4h-6.6z" class="st13"/><path d="M267 208.4h4.2V28h-6v178.4c0 1.1.8 2 1.8 2zM282.3 208.4h-4.2V28h6v178.4c0 1.1-.8 2-1.8 2z" class="st14"/><g class="st15"><path d="M279.9 28h4.2v1.6h-4.2zM282 33h2.1v1.6H282zM282 38h2.1v1.6H282zM282 43.1h2.1v1.6H282zM282 48.1h2.1v1.6H282zM279.9 53.1h4.2v1.6h-4.2zM282 68.3h2.1v1.6H282zM282 73.3h2.1v1.6H282zM282 58.2h2.1v1.6H282zM282 63.2h2.1v1.6H282zM279.9 78.3h4.2v1.6h-4.2zM282 83.4h2.1V85H282zM282 88.4h2.1V90H282zM282 93.4h2.1V95H282zM282 98.5h2.1v1.6H282zM279.9 103.5h4.2v1.6h-4.2zM282 108.5h2.1v1.6H282zM282 113.6h2.1v1.6H282zM282 118.6h2.1v1.6H282zM282 123.7h2.1v1.6H282zM279.9 128.7h4.2v1.6h-4.2zM282 133.7h2.1v1.6H282zM282 138.8h2.1v1.6H282zM282 143.8h2.1v1.6H282zM282 148.8h2.1v1.6H282zM279.9 153.9h4.2v1.6h-4.2z" class="st16"/></g><path d="M281.1 53.2v20.3c0 .2.2.4.4.4h5.9c1.1 0 2-.9 2-2V58.1h6.6c2.2 0 4-1.8 4-4V53c0-.1-.1-.2-.2-.2h-18.3c-.2 0-.4.2-.4.4zM228.5 53.5l8.2 8.2c1.1 1.1 2.5 1.7 4 1.7h19.2V72c0 1.1.9 2 2 2h5.9c.2 0 .4-.2.4-.4V53.2c0-.2-.2-.4-.4-.4h-39c-.4 0-.6.5-.3.7z" class="st4"/></g><g><path d="M238.8 49.4h-47.3c-1.1 0-2-.9-2-2v-14c0-1.1.9-2 2-2h47.3c1.1 0 2 .9 2 2v14c0 1.1-.9 2-2 2z" class="st17"/><path d="M214.8 42.4h-16c-.4 0-.8-.4-.8-.8v-2.4c0-.4.4-.8.8-.8h16c.4 0 .8.4.8.8v2.4c0 .4-.3.8-.8.8zM231.3 42.4h-11.9c-.4 0-.8-.4-.8-.8v-2.4c0-.4.4-.8.8-.8h11.9c.4 0 .8.4.8.8v2.4c0 .4-.4.8-.8.8z" class="st18"/></g><g><path d="M183.4 49.4h-47.3c-1.1 0-2-.9-2-2v-14c0-1.1.9-2 2-2h47.3c1.1 0 2 .9 2 2v14c0 1.1-.9 2-2 2z" class="st19"/><path d="M154.5 42.4h-11.1c-.4 0-.8-.4-.8-.8v-2.4c0-.4.4-.8.8-.8h11.1c.4 0 .8.4.8.8v2.4c0 .4-.3.8-.8.8zM175.9 42.4H159c-.4 0-.8-.4-.8-.8v-2.4c0-.4.4-.8.8-.8h16.9c.4 0 .8.4.8.8v2.4c0 .4-.3.8-.8.8z" class="st20"/></g></svg>