<?xml version="1.0" encoding="utf-8"?>
<!-- Generator: Adobe Illustrator 23.0.6, SVG Export Plug-In . SVG Version: 6.00 Build 0)  -->
<svg version="1.1" id="Layer_1" xmlns="http://www.w3.org/2000/svg" xmlns:xlink="http://www.w3.org/1999/xlink" x="0px" y="0px"
	 width="112px" height="112px" viewBox="0 0 112 112" style="enable-background:new 0 0 112 112;" xml:space="preserve">
<style type="text/css">
	.st0{opacity:0.5;fill:#1397B9;}
	.st1{opacity:0.65;}
	.st2{fill:#1397B9;}
	.st3{opacity:0.8;fill:#99E2CF;}
	.st4{opacity:0.6;fill:#52CEAE;}
	.st5{opacity:0.9;}
	.st6{fill:#33C5A0;}
	.st7{opacity:0.7;fill:#33C5A0;}
	.st8{opacity:0.6;}
	.st9{opacity:0.95;}
	.st10{fill:#36A7C3;}
	.st11{fill:#70D6BC;}
	.st12{fill:#C8E8D9;}
	.st13{fill:#FFFFFF;}
	.st14{opacity:0.8;}
	.st15{fill:#6DC19B;}
	.st16{fill:#89CBDC;}
	.st17{fill:#42ACC7;}
	.st18{fill:#71C1D5;}
	.st19{fill:#5F6776;}
</style>
<g>
	<g>
		<path class="st12" d="M86.1,14.8L14.5,86.3c-0.6,0.6-0.5,1.7,0.2,2.5l9.5,9.5c0.7,0.7,1.9,0.8,2.5,0.2l71.6-71.6
			c0.6-0.6,0.5-1.7-0.2-2.5L88.5,15C87.8,14.2,86.7,14.1,86.1,14.8z"/>
	</g>
	<g>
		<path class="st13" d="M85.4,14.1L13.9,85.7c-0.6,0.6-0.5,1.7,0.2,2.5l9.5,9.5c0.7,0.7,1.9,0.8,2.5,0.2l71.6-71.6
			c0.6-0.6,0.5-1.7-0.2-2.5l-9.5-9.5C87.2,13.6,86.1,13.5,85.4,14.1z"/>
	</g>
	<g class="st14">
		
			<rect x="79.2" y="36.7" transform="matrix(0.7071 -0.7071 0.7071 0.7071 -4.6936 68.0957)" class="st15" width="1.2" height="6.1"/>
		<rect x="77.6" y="42" transform="matrix(0.7071 -0.7071 0.7071 0.7071 -7.8368 68.0606)" class="st15" width="1.2" height="3.1"/>
		
			<rect x="74.9" y="44.7" transform="matrix(0.7071 -0.7071 0.7071 0.7071 -10.532 66.9442)" class="st15" width="1.2" height="3.1"/>
		
			<rect x="72.2" y="47.4" transform="matrix(0.7071 -0.7071 0.7071 0.7071 -13.2273 65.8278)" class="st15" width="1.2" height="3.1"/>
		
			<rect x="69.5" y="50" transform="matrix(0.7071 -0.7071 0.7071 0.7071 -15.9226 64.7114)" class="st15" width="1.2" height="3.1"/>
		
			<rect x="65.8" y="50.1" transform="matrix(0.7071 -0.7071 0.7071 0.7071 -18.17 62.5136)" class="st15" width="1.2" height="6.1"/>
		
			<rect x="92.7" y="23.2" transform="matrix(0.7071 -0.7071 0.7071 0.7071 8.7936 73.6823)" class="st15" width="1.2" height="6.1"/>
		
			<rect x="91.1" y="28.5" transform="matrix(0.7071 -0.7071 0.7071 0.7071 5.6505 73.6472)" class="st15" width="1.2" height="3.1"/>
		
			<rect x="88.4" y="31.2" transform="matrix(0.7071 -0.7071 0.7071 0.7071 2.9552 72.5308)" class="st15" width="1.2" height="3.1"/>
		
			<rect x="85.7" y="33.9" transform="matrix(0.7071 -0.7071 0.7071 0.7071 0.2599 71.4144)" class="st15" width="1.2" height="3.1"/>
		<rect x="83" y="36.6" transform="matrix(0.7071 -0.7071 0.7071 0.7071 -2.4354 70.298)" class="st15" width="1.2" height="3.1"/>
		
			<rect x="58.8" y="60.8" transform="matrix(0.7071 -0.7071 0.7071 0.7071 -26.7037 60.2457)" class="st15" width="1.2" height="3.1"/>
		
			<rect x="56.1" y="63.5" transform="matrix(0.7071 -0.7071 0.7071 0.7071 -29.399 59.1293)" class="st15" width="1.2" height="3.1"/>
		
			<rect x="64.2" y="55.4" transform="matrix(0.7071 -0.7071 0.7071 0.7071 -21.3131 62.4785)" class="st15" width="1.2" height="3.1"/>
		
			<rect x="61.5" y="58.1" transform="matrix(0.7071 -0.7071 0.7071 0.7071 -24.0084 61.3621)" class="st15" width="1.2" height="3.1"/>
		
			<rect x="52.3" y="63.6" transform="matrix(0.7071 -0.7071 0.7071 0.7071 -31.6463 56.9315)" class="st15" width="1.2" height="6.1"/>
		
			<rect x="50.7" y="68.9" transform="matrix(0.7071 -0.7071 0.7071 0.7071 -34.7895 56.8964)" class="st15" width="1.2" height="3.1"/>
		<rect x="48" y="71.6" transform="matrix(0.7071 -0.7071 0.7071 0.7071 -37.4848 55.78)" class="st15" width="1.2" height="3.1"/>
		
			<rect x="45.3" y="74.3" transform="matrix(0.7071 -0.7071 0.7071 0.7071 -40.1801 54.6636)" class="st15" width="1.2" height="3.1"/>
		
			<rect x="42.6" y="77" transform="matrix(0.7071 -0.7071 0.7071 0.7071 -42.8754 53.5472)" class="st15" width="1.2" height="3.1"/>
		
			<rect x="38.8" y="77.1" transform="matrix(0.7071 -0.7071 0.7071 0.7071 -45.1227 51.3494)" class="st15" width="1.2" height="6.1"/>
		
			<rect x="37.2" y="82.4" transform="matrix(0.7071 -0.7071 0.7071 0.7071 -48.2659 51.3143)" class="st15" width="1.2" height="3.1"/>
		
			<rect x="34.5" y="85.1" transform="matrix(0.7071 -0.7071 0.7071 0.7071 -50.9612 50.1979)" class="st15" width="1.2" height="3.1"/>
		
			<rect x="31.8" y="87.8" transform="matrix(0.7071 -0.7071 0.7071 0.7071 -53.6565 49.0815)" class="st15" width="1.2" height="3.1"/>
		
			<rect x="29.1" y="90.5" transform="matrix(0.7071 -0.7071 0.7071 0.7071 -56.3517 47.9651)" class="st15" width="1.2" height="3.1"/>
		
			<rect x="25.3" y="90.6" transform="matrix(0.7071 -0.7071 0.7071 0.7071 -58.5991 45.7673)" class="st15" width="1.2" height="6.1"/>
	</g>
</g>
<g>
	
		<rect x="49.2" y="20" transform="matrix(0.7071 -0.7071 0.7071 0.7071 -23.7261 57.2798)" class="st17" width="16.1" height="74.6"/>
	
		<rect x="53.4" y="20" transform="matrix(0.7071 -0.7071 0.7071 0.7071 -23.7261 57.2798)" class="st18" width="7.7" height="74.6"/>
	<g>
		<path class="st19" d="M16.6,20.3l-2.7-5.1c-0.4-0.8,0.5-1.7,1.3-1.3l5.1,2.7L16.6,20.3z"/>
		<polygon class="st13" points="20.3,16.6 16.6,20.3 25.2,36.6 36.6,25.2 		"/>
	</g>
	<path class="st13" d="M96.9,91.9l-5,5c-1.8,1.8-4.6,1.8-6.4,0L78,89.4L89.4,78l7.5,7.5C98.7,87.2,98.7,90.1,96.9,91.9z"/>
</g>
</svg>
