<?xml version="1.0" encoding="utf-8"?>
<!-- Generator: Adobe Illustrator 23.0.6, SVG Export Plug-In . SVG Version: 6.00 Build 0)  -->
<svg version="1.1" id="Layer_1" xmlns="http://www.w3.org/2000/svg" xmlns:xlink="http://www.w3.org/1999/xlink" x="0px" y="0px"
	 width="112px" height="112px" viewBox="0 0 112 112" style="enable-background:new 0 0 112 112;" xml:space="preserve">
<style type="text/css">
	.st0{opacity:0.5;fill:#1397B9;}
	.st1{opacity:0.65;}
	.st2{fill:#1397B9;}
	.st3{opacity:0.8;fill:#99E2CF;}
	.st4{opacity:0.6;fill:#52CEAE;}
	.st5{opacity:0.9;}
	.st6{fill:#33C5A0;}
	.st7{opacity:0.7;fill:#33C5A0;}
	.st8{opacity:0.6;}
	.st9{opacity:0.95;}
	.st10{fill:#36A7C3;}
	.st11{fill:#70D6BC;}
</style>
<g class="st9">
	<g>
		<path class="st6" d="M72.9,21.5l-26.9-6c-2-0.4-4,0.8-4.4,2.8l-6,26.9c-0.4,2,0.8,4,2.8,4.4l26.9,6c2,0.4,4-0.8,4.4-2.8l6-26.9
			C76.1,23.9,74.9,22,72.9,21.5z M62.7,44.7c-0.1,0.4-0.4,0.8-0.8,1.1c-0.4,0.3-0.9,0.4-1.4,0.3c-0.3-0.1-0.5-0.2-0.7-0.3
			c-0.2-0.2-0.3-0.3-0.4-0.6c-0.1-0.2-0.2-0.5-0.3-0.9c-0.1-0.4-0.1-0.8-0.2-1.1l-0.4-2.5l-7.6-1.7l-1.4,2.2c-0.6,0.9-1,1.4-1.3,1.7
			c-0.3,0.3-0.8,0.3-1.3,0.2c-0.5-0.1-0.9-0.4-1.1-0.8c-0.3-0.4-0.4-0.9-0.3-1.3c0.1-0.3,0.2-0.5,0.3-0.8c0.1-0.3,0.4-0.6,0.7-1
			L53.8,28c0.2-0.3,0.5-0.7,0.8-1.1c0.3-0.4,0.6-0.8,0.9-1.1c0.3-0.3,0.6-0.5,1-0.6c0.4-0.1,0.9-0.1,1.4,0c0.5,0.1,0.9,0.3,1.3,0.6
			c0.3,0.3,0.5,0.6,0.7,1c0.1,0.4,0.3,0.7,0.3,1.1c0.1,0.4,0.1,0.9,0.2,1.6l2.2,13.2C62.7,43.6,62.8,44.3,62.7,44.7z"/>
		<polygon class="st6" points="52.5,36.3 58,37.5 56.9,29.2 		"/>
	</g>
	<g>
		<path class="st10" d="M39.5,76.7c-0.7-0.4-1.7-0.7-3-0.7h-4v5.6h4.2c2.6,0,3.9-0.9,3.9-2.8C40.6,77.8,40.2,77.1,39.5,76.7z"/>
		<path class="st10" d="M38.3,73c0.5-0.2,0.9-0.5,1.2-1c0.2-0.4,0.3-0.8,0.3-1.2c0-1-0.3-1.6-1-1.9c-0.7-0.3-1.7-0.5-3.2-0.5h-3.2v5
			H36C37,73.2,37.7,73.1,38.3,73z"/>
		<path class="st10" d="M49.2,57.5H21.7c-2,0-3.7,1.6-3.7,3.7v27.6c0,2,1.6,3.7,3.7,3.7h27.6c2,0,3.7-1.6,3.7-3.7V61.2
			C52.9,59.1,51.3,57.5,49.2,57.5z M43.7,82c-0.5,0.9-1.3,1.5-2.2,1.9c-0.6,0.2-1.3,0.4-2,0.5c-0.8,0.1-1.6,0.2-2.7,0.2h-5.9
			c-0.8,0-1.4-0.2-1.8-0.6c-0.4-0.4-0.5-1-0.5-1.8V67.7c0-0.8,0.2-1.5,0.6-1.8c0.4-0.4,1-0.6,1.8-0.6h6.2c0.9,0,1.7,0.1,2.4,0.2
			c0.7,0.1,1.3,0.3,1.8,0.7c0.5,0.3,0.9,0.6,1.2,1c0.3,0.4,0.6,0.9,0.8,1.4c0.2,0.5,0.3,1,0.3,1.6c0,1.9-1,3.3-2.9,4.2
			c2.5,0.8,3.8,2.4,3.8,4.7C44.5,80.1,44.2,81.1,43.7,82z"/>
	</g>
	<path class="st11" d="M94,86.3l-2.7-27.4c-0.2-2-2-3.5-4-3.3l-27.4,2.7c-2,0.2-3.5,2-3.3,4l2.7,27.4c0.2,2,2,3.5,4,3.3l27.4-2.7
		C92.7,90.1,94.2,88.3,94,86.3z M83.9,79c-0.2,0.7-0.6,1.5-1.2,2.2c-0.6,0.7-1.3,1.4-2.3,1.9c-1,0.5-2.1,0.8-3.4,1
		c-1,0.1-1.9,0.1-2.8,0c-0.8-0.1-1.6-0.3-2.3-0.7c-0.7-0.3-1.4-0.8-2-1.4c-0.6-0.5-1.1-1.2-1.5-1.9c-0.4-0.7-0.8-1.5-1-2.3
		c-0.3-0.8-0.4-1.7-0.5-2.7c-0.1-1.5-0.1-2.9,0.3-4.2c0.3-1.3,0.9-2.4,1.6-3.3c0.7-0.9,1.7-1.7,2.7-2.3c1.1-0.6,2.2-0.9,3.5-1
		c1.5-0.1,2.9,0,4.2,0.5c1.3,0.5,2.3,1.2,3,2c0.7,0.8,1.1,1.7,1.2,2.5c0,0.4-0.1,0.8-0.4,1.2c-0.3,0.4-0.6,0.6-1.1,0.6
		c-0.5,0-0.9,0-1.1-0.2c-0.3-0.2-0.6-0.6-0.9-1.1c-0.6-0.9-1.3-1.5-2-1.9c-0.7-0.4-1.6-0.6-2.6-0.5c-1.6,0.2-2.8,0.9-3.6,2.2
		c-0.8,1.3-1.1,3.1-0.9,5.3c0.1,1.5,0.5,2.7,1,3.6c0.5,0.9,1.2,1.6,2,2c0.8,0.4,1.7,0.6,2.8,0.5c1.1-0.1,2-0.5,2.7-1.1
		c0.7-0.6,1.2-1.5,1.5-2.6c0.1-0.5,0.3-0.9,0.5-1.3c0.2-0.3,0.6-0.5,1.1-0.6c0.5,0,0.9,0.1,1.2,0.4c0.4,0.3,0.6,0.7,0.6,1.1
		C84.2,77.6,84.1,78.3,83.9,79z"/>
</g>
</svg>
