<?xml version="1.0" encoding="utf-8"?>
<!-- Generator: Adobe Illustrator 23.0.6, SVG Export Plug-In . SVG Version: 6.00 Build 0)  -->
<svg version="1.1" id="Layer_1" xmlns="http://www.w3.org/2000/svg" xmlns:xlink="http://www.w3.org/1999/xlink" x="0px" y="0px"
	 width="112px" height="112px" viewBox="0 0 112 112" style="enable-background:new 0 0 112 112;" xml:space="preserve">
<style type="text/css">
	.st0{opacity:0.5;fill:#1397B9;}
	.st1{opacity:0.65;}
	.st2{fill:#1397B9;}
	.st3{opacity:0.8;fill:#99E2CF;}
	.st4{opacity:0.6;fill:#52CEAE;}
	.st5{opacity:0.9;}
	.st6{fill:#33C5A0;}
	.st7{opacity:0.7;fill:#33C5A0;}
	.st8{opacity:0.6;}
	.st9{opacity:0.95;}
	.st10{fill:#36A7C3;}
	.st11{fill:#70D6BC;}
</style>
<g class="st8">
	<ellipse class="st6" cx="56" cy="55.9" rx="6.8" ry="6.8"/>
	<path class="st2" d="M90.1,49.2c-2.3-2-5.7-3.7-9.6-5.1c-0.8-0.3-1.6-0.5-2.4-0.8c0.1-0.6,0.3-1.1,0.4-1.7
		c0.9-4.3,1.1-8.3,0.5-11.5c-0.6-3.5-2-5.9-4-7.1c-2-1.1-4.7-1.1-7.8,0c-2.9,1.1-6,3.1-9.2,5.8c-0.6,0.5-1.3,1.1-1.9,1.7
		c-0.4-0.4-0.8-0.8-1.3-1.2c-3.3-2.9-6.7-5.1-9.7-6.2c-3.3-1.2-6.1-1.2-8.1,0c-2,1.1-3.3,3.5-3.9,6.8c-0.5,3-0.4,6.8,0.4,10.9
		c0.2,0.8,0.3,1.7,0.6,2.5c-1,0.3-1.9,0.6-2.8,0.9c-3.9,1.4-7.1,3.1-9.4,5.1c-2.5,2.1-3.8,4.4-3.8,6.7c0,2.3,1.4,4.8,4,7
		c2.4,2.1,5.9,3.9,9.9,5.3c0.7,0.2,1.3,0.4,2.1,0.6c-0.2,0.9-0.4,1.8-0.6,2.7c-0.8,4-0.9,7.7-0.3,10.7c0.6,3.2,2,5.5,3.9,6.6
		c1,0.6,2.2,0.9,3.6,0.9c1.3,0,2.8-0.3,4.4-0.8c3-1.1,6.3-3.1,9.6-5.9c0.5-0.5,1.1-1,1.6-1.5c0.7,0.7,1.4,1.3,2.1,1.9
		c3.1,2.7,6.2,4.6,9.1,5.6c1.5,0.5,2.9,0.8,4.1,0.8c1.3,0,2.5-0.3,3.5-0.9c2-1.2,3.4-3.6,4.1-6.9c0.6-3.2,0.5-7.1-0.4-11.3
		c-0.1-0.7-0.3-1.3-0.5-2c0.5-0.1,0.9-0.3,1.4-0.4c4.2-1.4,7.7-3.2,10.3-5.3c2.7-2.2,4.1-4.7,4.1-7C94,53.6,92.6,51.3,90.1,49.2z
		 M68.2,26.1c1.2-0.4,2.3-0.7,3.2-0.7c0.7,0,1.4,0.1,1.8,0.4c1.2,0.7,2.1,2.4,2.5,4.8c0.5,2.8,0.3,6.4-0.5,10.3
		c-0.1,0.5-0.2,1-0.3,1.5c-3.2-0.7-6.6-1.3-10.2-1.6c-0.8-1.1-1.6-2.2-2.4-3.2c-1.3-1.7-2.7-3.3-4-4.8c0.6-0.6,1.2-1.1,1.7-1.6
		C62.9,28.8,65.7,27,68.2,26.1z M72.2,61.1c0.8,1.8,1.4,3.6,2,5.3c-2.2,0.5-4.6,0.9-7.1,1.2c0.8-1.2,1.6-2.5,2.3-3.9
		c0.8-1.3,1.5-2.7,2.2-4C71.8,60.2,72,60.6,72.2,61.1z M66.6,62.1c-1.2,2.1-2.4,4-3.6,5.9c-2.3,0.2-4.6,0.2-7,0.2
		c-2.4,0-4.7-0.1-6.9-0.2c-1.3-1.9-2.5-3.9-3.7-5.9l0,0c-1.2-2-2.3-4.1-3.2-6.1c1-2.1,2.1-4.1,3.2-6.1l0,0c1.2-2,2.4-4,3.7-5.9
		c2.3-0.2,4.6-0.3,6.9-0.3c2.3,0,4.7,0.1,6.9,0.3c1.3,1.9,2.5,3.8,3.7,5.9c1.2,2.1,2.3,4.1,3.3,6.1C68.9,58,67.8,60.1,66.6,62.1z
		 M56.1,76.9c-1.1-1.2-2.3-2.6-3.4-4c-0.4-0.5-0.8-1-1.1-1.5c1.5,0.1,2.9,0.1,4.4,0.1c1.6,0,3.1,0,4.6-0.1c-0.3,0.4-0.6,0.8-0.9,1.2
		C58.5,74.2,57.3,75.6,56.1,76.9z M40.4,59.8c0.7,1.3,1.4,2.6,2.2,3.9l0,0c0.8,1.3,1.6,2.6,2.4,3.9c-0.5-0.1-1-0.1-1.5-0.2
		c-1.9-0.3-3.8-0.6-5.5-0.9c0.5-1.6,1.1-3.3,1.8-5C40,61,40.2,60.4,40.4,59.8z M42.6,48.3c-0.8,1.3-1.5,2.6-2.1,3.9
		c-0.9-2.2-1.8-4.4-2.4-6.6c1.6-0.4,3.3-0.7,5-0.9c0.6-0.1,1.2-0.2,1.9-0.3C44.1,45.7,43.3,47,42.6,48.3L42.6,48.3z M56,35.2
		c1.5,1.6,3,3.4,4.5,5.4c-1.5-0.1-3-0.1-4.5-0.1c-1.5,0-3,0-4.5,0.1C53,38.7,54.5,36.9,56,35.2z M69.4,48.2
		c-0.8-1.3-1.5-2.6-2.3-3.8c2.4,0.3,4.7,0.7,6.9,1.2c-0.7,2.1-1.5,4.3-2.4,6.6C70.9,50.9,70.2,49.6,69.4,48.2z M36.6,40.1
		c-0.7-3.7-0.9-7.1-0.4-9.7c0.4-2.3,1.2-3.9,2.3-4.5c1.2-0.7,3.1-0.6,5.4,0.3c2.7,1,5.7,2.9,8.7,5.6c0.4,0.3,0.8,0.7,1.1,1
		c-2.2,2.4-4.4,5.1-6.5,8c-1.6,0.2-3.2,0.3-4.7,0.6c-1.9,0.3-3.7,0.6-5.4,1C36.9,41.7,36.8,40.9,36.6,40.1z M32.9,65.2
		c-3.7-1.3-6.7-2.9-8.9-4.7c-1.8-1.6-2.8-3.2-2.8-4.5c0-1.3,0.9-2.8,2.6-4.2c2-1.7,4.9-3.2,8.4-4.5c0.8-0.3,1.7-0.6,2.6-0.8
		c1,3.1,2.2,6.3,3.7,9.6c-0.7,1.5-1.3,2.9-1.9,4.4c-0.7,1.8-1.4,3.6-1.9,5.4C34.2,65.6,33.5,65.4,32.9,65.2z M43.9,85.9
		c-2.3,0.8-4.2,0.9-5.3,0.2c-1.1-0.6-1.9-2.2-2.4-4.4c-0.5-2.6-0.4-5.8,0.3-9.5c0.2-0.8,0.3-1.7,0.6-2.5c1.9,0.4,3.8,0.8,5.9,1
		c1.4,0.2,2.8,0.3,4.3,0.5c0.9,1.3,1.9,2.5,2.8,3.7c1.2,1.6,2.5,3,3.7,4.3c-0.5,0.5-1,0.9-1.5,1.3C49.5,83.1,46.6,85,43.9,85.9z
		 M75.5,71.4c0.8,3.8,0.9,7.3,0.4,10c-0.4,2.4-1.3,4-2.5,4.7c-1.1,0.6-2.9,0.6-5-0.2c-2.5-0.9-5.2-2.6-8-5c-0.6-0.5-1.3-1.1-1.9-1.7
		c1.3-1.4,2.6-2.9,3.9-4.6c0.8-1.1,1.7-2.3,2.5-3.5c1.3-0.1,2.6-0.3,3.9-0.4c2.3-0.3,4.4-0.7,6.4-1.2C75.2,70.2,75.4,70.8,75.5,71.4
		z M87.8,60.5c-2.2,1.8-5.4,3.5-9.2,4.7c-0.4,0.1-0.8,0.3-1.3,0.4c-0.6-1.8-1.3-3.7-2.1-5.7c-0.5-1.3-1.1-2.6-1.7-3.9
		c0.6-1.2,1.1-2.4,1.6-3.6c0.8-2,1.5-4,2.1-5.9c0.8,0.2,1.5,0.5,2.3,0.7C83,48.4,86,50,88,51.7c1.8,1.5,2.7,3,2.7,4.3
		C90.8,57.3,89.7,58.9,87.8,60.5z"/>
</g>
</svg>
