<?xml version="1.0" encoding="utf-8"?>
<!-- Generator: Adobe Illustrator 23.0.6, SVG Export Plug-In . SVG Version: 6.00 Build 0)  -->
<svg version="1.1" id="Layer_1" xmlns="http://www.w3.org/2000/svg" xmlns:xlink="http://www.w3.org/1999/xlink" x="0px" y="0px"
	 width="40px" height="40px" viewBox="0 0 40 40" style="enable-background:new 0 0 40 40;" xml:space="preserve">
<style type="text/css">
	.st0{opacity:0.45;}
	.st1{fill:none;stroke:#1397B9;stroke-linecap:round;stroke-linejoin:round;stroke-miterlimit:10;}
	.st2{fill:none;stroke:#33C5A0;stroke-linecap:round;stroke-linejoin:round;stroke-miterlimit:10;}
</style>
<g class="st0">
	<path class="st1" d="M38.5,23.8c-0.3,0.2-0.6,0.4-0.9,0.5c-5.5,2.7-11,5.4-16.5,8.2c-0.4,0.2-0.8,0.4-1.2,0.3
		c-5-0.7-10.1-1.4-15.4-2.2c6.2-3.8,12.1-7.5,18.2-11.3C18.7,13.1,14.9,7,10.9,0.7c4,1.4,7.8,2.6,11.5,3.9c1.7,0.6,3.6,0.8,4.9,1.8
		c1.3,1,2,2.9,2.9,4.4c2.5,4,5,8,7.6,12C38.1,23.1,38.2,23.5,38.5,23.8z"/>
</g>
<g>
	<path class="st2" d="M37.6,13.2c-0.1,0.4-0.2,0.7-0.4,0.9c-2.7,5.5-5.4,11-8.2,16.5c-0.2,0.4-0.4,0.8-0.7,1
		c-4.4,2.5-8.8,5-13.5,7.6c2.6-6.8,5-13.3,7.5-20c-6.8-2.5-13.6-5.1-20.6-7.7c4-1.4,7.8-2.6,11.5-3.9c1.7-0.6,3.4-1.6,5-1.5
		c1.7,0,3.3,1.1,5,1.7c4.4,1.6,8.9,3.3,13.3,4.9C36.9,12.9,37.3,13,37.6,13.2z"/>
</g>
</svg>
