<?xml version="1.0" encoding="utf-8"?>
<!-- Generator: Adobe Illustrator 23.0.6, SVG Export Plug-In . SVG Version: 6.00 Build 0)  -->
<svg version="1.1" id="Layer_1" xmlns="http://www.w3.org/2000/svg" xmlns:xlink="http://www.w3.org/1999/xlink" x="0px" y="0px"
	 width="40px" height="40px" viewBox="0 0 40 40" style="enable-background:new 0 0 40 40;" xml:space="preserve">
<style type="text/css">
	.st0{opacity:0.9;}
	.st1{fill:none;stroke:#1397B9;stroke-linecap:round;stroke-linejoin:round;}
	.st2{fill:none;stroke:#1397B9;stroke-linecap:round;stroke-linejoin:round;stroke-dasharray:0.483,1.9321;}
	.st3{fill:none;stroke:#1397B9;stroke-linecap:round;stroke-linejoin:round;stroke-dasharray:0.4752,1.9007;}
	.st4{fill:none;stroke:#1397B9;stroke-linecap:round;stroke-linejoin:round;stroke-dasharray:0.4875,1.9501;}
	.st5{fill:none;stroke:#1397B9;stroke-linecap:round;stroke-linejoin:round;stroke-dasharray:0.5077,2.0309;}
	.st6{fill:none;stroke:#33C5A0;stroke-linecap:round;stroke-linejoin:round;stroke-miterlimit:10;}
</style>
<g class="st0">
	<g>
		<g>
			<path class="st1" d="M38.3,23.6c0,0.1,0.1,0.1,0.1,0.2c-0.1,0-0.1,0.1-0.2,0.1"/>
			<path class="st2" d="M36.5,24.9c-5.2,2.5-10.3,5.1-15.5,7.6c-0.4,0.2-0.8,0.4-1.2,0.3c-4.7-0.6-9.3-1.3-14.2-2"/>
			<path class="st1" d="M4.7,30.7c-0.1,0-0.2,0-0.2,0c0.1,0,0.1-0.1,0.2-0.1"/>
			<path class="st3" d="M6.3,29.5c5.2-3.2,10.2-6.4,15.3-9.6"/>
			<path class="st1" d="M22.4,19.4c0.1,0,0.1-0.1,0.2-0.1c0-0.1-0.1-0.1-0.1-0.2"/>
			<path class="st4" d="M21.5,17.4c-3.3-5.2-6.5-10.4-9.9-15.7"/>
			<path class="st1" d="M11.1,0.9c0-0.1-0.1-0.1-0.1-0.2c0.1,0,0.2,0.1,0.2,0.1"/>
			<path class="st5" d="M13.1,1.5c3.2,1.1,6.3,2.1,9.4,3.2c1.7,0.6,3.6,0.8,4.9,1.8c1.3,1,2,2.9,2.9,4.4c2.5,4,5,7.9,7.5,11.9"/>
		</g>
	</g>
</g>
<g>
	<path class="st6" d="M37.6,13.2c-0.1,0.4-0.2,0.7-0.4,0.9c-2.7,5.5-5.4,11-8.2,16.5c-0.2,0.4-0.4,0.8-0.7,1
		c-4.4,2.5-8.8,5-13.5,7.6c2.6-6.8,5-13.3,7.5-20c-6.8-2.5-13.6-5.1-20.6-7.7c4-1.4,7.8-2.6,11.5-3.9c1.7-0.6,3.4-1.6,5-1.5
		c1.7,0,3.3,1.1,5,1.7c4.4,1.6,8.9,3.3,13.3,4.9C36.9,12.9,37.3,13,37.6,13.2z"/>
</g>
</svg>
